<svg width="179" height="80" viewBox="0 0 179 80" fill="none" xmlns="http://www.w3.org/2000/svg">
<path fill-rule="evenodd" clip-rule="evenodd" d="M127.084 43.8364C125.948 47.4167 123.056 50.2541 119.405 51.3682C110.633 54.0451 102.587 47.1545 103.493 38.7653C104.089 33.2485 108.611 28.8137 114.235 28.2289C122.788 27.3399 129.813 35.2324 127.084 43.8364ZM115.552 24.1141C114.971 24.1141 114.382 24.145 113.801 24.2053C106.251 24.9902 100.191 30.9342 99.391 38.339C98.9042 42.8459 100.39 47.3557 103.468 50.712C106.551 54.0727 110.955 56.0001 115.552 56.0001C117.25 56.0001 118.959 55.7415 120.631 55.231C125.594 53.7167 129.479 49.9061 131.023 45.0384C132.617 40.0115 131.752 34.7561 128.648 30.6204C125.591 26.5465 120.695 24.1141 115.552 24.1141Z" fill="white" fill-opacity="0.3"/>
<path fill-rule="evenodd" clip-rule="evenodd" d="M22.7407 39.5023H29.8767C30.1833 39.5023 30.4322 39.7463 30.4322 40.0477C30.4322 40.3492 30.1833 40.5932 29.8767 40.5932H22.7407C22.4341 40.5932 22.1852 40.8372 22.1852 41.1386V49.5194C22.1852 50.287 22.8189 50.9092 23.6004 50.9092H32.2067C32.5133 50.9092 32.7622 51.1532 32.7622 51.4546C32.7622 51.7557 32.5133 52.0001 32.2067 52.0001H23.6004C22.2052 52.0001 21.0741 50.8892 21.0741 49.5194V30.5761C21.0741 29.2059 22.2056 28.0954 23.6007 28.0954H32.2067C32.5133 28.0954 32.7622 28.3394 32.7622 28.6408C32.7622 28.9419 32.5133 29.1863 32.2067 29.1863H23.6004C22.8189 29.1863 22.1852 29.8085 22.1852 30.5757V38.9568C22.1852 39.2583 22.4341 39.5023 22.7407 39.5023ZM32.2067 33.1863C34.7593 33.1863 36.8363 31.147 36.8363 28.6408C36.8363 26.1343 34.7593 24.0954 32.2067 24.0954H23.6007C19.9611 24.0954 17 27.0026 17 30.5761V49.5194C17 53.0928 19.9607 56.0001 23.6004 56.0001H32.2067C34.7593 56.0001 36.8363 53.9608 36.8363 51.4546C36.8363 48.9481 34.7593 46.9092 32.2067 46.9092H26.2593V44.5932H29.8767C32.4293 44.5932 34.5063 42.5543 34.5063 40.0477C34.5063 37.5412 32.4293 35.5023 29.8767 35.5023H26.2593V33.1863H32.2067Z" fill="white" fill-opacity="0.3"/>
<path fill-rule="evenodd" clip-rule="evenodd" d="M120.322 44.9477C119.061 46.3124 117.349 47.0639 115.501 47.0639H115.5C115.32 47.0639 115.138 47.0567 114.957 47.0424C111.789 46.7901 109.21 44.2113 108.958 41.0435C108.81 39.1872 109.421 37.4149 110.678 36.0534C111.939 34.688 113.651 33.9362 115.5 33.9362C115.68 33.9362 115.863 33.9433 116.044 33.9577C119.211 34.2099 121.79 36.7887 122.043 39.9569C122.19 41.8132 121.579 43.5859 120.322 44.9477ZM116.356 30.0342C109.894 29.5193 104.519 34.8948 105.034 41.3566C105.44 46.4416 109.559 50.5612 114.644 50.9659C121.106 51.4804 126.481 46.1056 125.966 39.6441C125.561 34.5588 121.442 30.4392 116.356 30.0342Z" fill="white" fill-opacity="0.3"/>
<path fill-rule="evenodd" clip-rule="evenodd" d="M91.8224 47.9528C90.4539 49.5231 88.6682 50.7166 86.643 51.3515C76.9789 54.3817 68.2163 45.1969 71.8855 35.417C73.0009 32.4447 75.3463 30.0697 78.2921 28.9365C83.5404 26.9176 88.6144 28.5688 91.7038 32.0464C91.9217 32.2915 91.888 32.6717 91.6265 32.8689C91.4005 33.0387 91.08 33.0136 90.8924 32.8017C89.1001 30.7795 86.5737 29.4292 83.7562 29.2033C77.0976 28.6685 71.5661 34.2904 72.1767 41.0149C72.639 46.1057 76.676 50.2356 81.721 50.7705C85.3895 51.1595 88.7389 49.6745 90.9448 47.1507C91.143 46.9244 91.4825 46.8953 91.725 47.0713C92.01 47.2781 92.0539 47.6874 91.8224 47.9528ZM94.081 43.7772C93.288 43.2013 92.3521 42.8968 91.3748 42.8968C90.051 42.8968 88.7917 43.4701 87.9217 44.4667C86.6408 45.9315 84.8034 46.7716 82.8793 46.7716C82.636 46.7716 82.388 46.7583 82.1426 46.7321C79.0342 46.4028 76.4749 43.7853 76.1892 40.6447C76.0141 38.7137 76.6276 36.8659 77.917 35.4421C79.191 34.0353 80.9998 33.2284 82.8796 33.2284C83.0635 33.2284 83.2507 33.2358 83.4357 33.2509C85.1382 33.3875 86.7192 34.1885 87.888 35.5074C88.7521 36.482 89.9935 37.0408 91.2931 37.0408C92.2759 37.0408 93.251 36.7145 94.0393 36.1209C95.0657 35.3476 95.7268 34.1667 95.8539 32.8814C95.9814 31.5939 95.5624 30.3023 94.7059 29.3384C91.6924 25.9457 87.3814 24 82.8782 24C80.8533 24 78.8265 24.3846 76.8551 25.1428C72.8284 26.6921 69.643 29.9132 68.1167 33.9807C66.1709 39.1674 66.7881 44.6701 69.8108 49.0787C72.7826 53.4124 77.6676 56 82.8793 56H82.88C84.5382 56 86.2074 55.7405 87.84 55.2285C90.5444 54.3806 92.9686 52.7911 94.8499 50.6328C95.7081 49.6475 96.1173 48.3353 95.9708 47.0322C95.825 45.7306 95.1367 44.5446 94.081 43.7772Z" fill="white" fill-opacity="0.3"/>
<path fill-rule="evenodd" clip-rule="evenodd" d="M61.7832 28.8556L54.3729 39.1888C54.2389 39.376 54.2389 39.6247 54.3729 39.8119L61.7828 50.1448C61.9603 50.392 61.8978 50.7315 61.6432 50.9034C61.3886 51.0757 61.039 51.015 60.8615 50.7678L53.0042 39.8119C52.8698 39.6247 52.8698 39.376 53.0042 39.1888L60.8615 28.2325C61.039 27.9853 61.3886 27.9246 61.6432 28.0969H61.6436C61.8978 28.2689 61.9603 28.6088 61.7832 28.8556ZM46.2412 50.3581C46.2412 50.6595 45.9896 50.9034 45.6796 50.9034C45.3697 50.9034 45.1181 50.6595 45.1181 50.3581V28.6422C45.1181 28.3409 45.3697 28.0969 45.6796 28.0969C45.9896 28.0969 46.2412 28.3409 46.2412 28.6422V50.3581ZM63.9976 24.8161C63.2088 24.2821 62.2837 24 61.3227 24C59.7931 24 58.3577 24.7278 57.4824 25.9474L50.3593 35.8793V28.6422C50.3593 26.1364 48.2602 24.0982 45.6796 24.0982C43.0995 24.0982 41 26.1364 41 28.6422V50.3581C41 52.8639 43.0995 54.9022 45.6796 54.9022C48.2602 54.9022 50.3593 52.8639 50.3593 50.3581V43.1214L57.4832 53.054C58.3577 54.2726 59.7931 55 61.3227 55H61.3231C62.2834 55 63.2081 54.7183 63.9961 54.1853C66.1128 52.7545 66.6366 49.9176 65.1627 47.8596L59.1679 39.5004L65.1638 31.1393C66.6362 29.0839 66.1128 26.2473 63.9976 24.8161Z" fill="white" fill-opacity="0.3"/>
<path fill-rule="evenodd" clip-rule="evenodd" d="M158.009 50.2517C158.009 50.9746 157.092 51.2865 156.651 50.7134L141.08 30.4841V50.3344C141.08 50.6347 140.836 50.8785 140.535 50.8785C140.235 50.8785 139.991 50.6347 139.991 50.3344V28.3533C139.991 28.0066 140.431 27.8568 140.642 28.1317L156.92 49.279V29.0489C156.92 28.7483 157.164 28.5049 157.465 28.5049C157.765 28.5049 158.009 28.7483 158.009 29.0489V50.2517ZM157.465 24.5154C154.964 24.5154 152.929 26.5489 152.929 29.0489V37.552L143.805 25.6988C142.974 24.6191 141.718 24 140.358 24C137.955 24 136 25.9527 136 28.3533V50.3344C136 52.8341 138.034 54.868 140.535 54.868C143.036 54.868 145.071 52.8341 145.071 50.3344V42.2111L153.488 53.1467C154.395 54.3243 155.764 55 157.244 55C159.867 55 162 52.87 162 50.2517V29.0489C162 26.5489 159.966 24.5154 157.465 24.5154Z" fill="white" fill-opacity="0.3"/>
</svg>
