<svg width="180" height="80" viewBox="0 0 180 80" fill="none" xmlns="http://www.w3.org/2000/svg">
<path fill-rule="evenodd" clip-rule="evenodd" d="M83.3186 33.4849C82.3121 32.1022 81.7166 30.4008 81.7166 28.5596C81.7166 26.4385 82.5062 24.5027 83.8059 23.0266C85.0742 23.2549 86.9202 23.8006 87.4482 25.0765L89.4483 23.3521C89.4483 23.3521 88.8869 21.5056 86.7593 20.872C87.7825 20.4273 88.9103 20.1794 90.097 20.1794C91.9384 20.1794 93.6396 20.7746 95.0223 21.7811L97.2897 19.5135C95.3153 17.9418 92.8169 17 90.097 17C83.7129 17 78.5374 22.1755 78.5374 28.5596C78.5374 31.2795 79.4792 33.7779 81.051 35.7522L83.3186 33.4849Z" fill="white" fill-opacity="0.3"/>
<path fill-rule="evenodd" clip-rule="evenodd" d="M101.593 28.3011C101.593 25.5496 100.64 23.0222 99.0501 21.0249L96.7562 23.3186C97.7746 24.7174 98.3768 26.4386 98.3768 28.3011C98.3768 30.6091 97.4533 32.7005 95.957 34.2291C95.0069 34.0626 93.6382 33.4785 92.3129 31.6853L90.4988 33.918C90.4988 33.918 91.4276 35.3678 92.969 36.2032C92.0168 36.5734 90.982 36.7787 89.899 36.7787C88.0364 36.7787 86.3154 36.1768 84.9166 35.1584L82.6227 37.4523C84.62 39.0423 87.1477 39.9951 89.899 39.9951C96.3573 39.9951 101.593 34.7594 101.593 28.3011" fill="white" fill-opacity="0.3"/>
<path fill-rule="evenodd" clip-rule="evenodd" d="M29.1036 47.3723H27.8199V62.1269H30.3873V55.0943H37.305V53.095H30.3873V49.0271H37.305V47.3723H30.3873H29.1036Z" fill="white" fill-opacity="0.3"/>
<path fill-rule="evenodd" clip-rule="evenodd" d="M41.5206 62.1269H43.6284V47.3723H41.5206V62.1269Z" fill="white" fill-opacity="0.3"/>
<path fill-rule="evenodd" clip-rule="evenodd" d="M62.458 58.5714L48.8979 46.3185V48.8963V62.3322H50.9355V50.7375L64.7064 63.1808V60.603V47.1991H62.458V58.5714Z" fill="white" fill-opacity="0.3"/>
<path fill-rule="evenodd" clip-rule="evenodd" d="M133.069 58.5714L119.509 46.3185V48.8963V62.3322H121.547V50.7375L135.318 63.1808V60.603V47.1991H133.069V58.5714Z" fill="white" fill-opacity="0.3"/>
<path fill-rule="evenodd" clip-rule="evenodd" d="M75.7832 52.7646C70.7393 51.4599 71.7406 47.9682 75.672 47.9682C75.672 47.9682 77.9714 47.9298 79.047 49.7333L80.9754 48.774C80.9754 48.774 79.7516 46.3185 75.5606 46.3185C71.3698 46.3185 70.0345 48.5055 70.0345 50.1171C70.0345 51.7287 70.8876 53.2634 75.2641 54.4146C79.6403 55.5655 79.2322 57.4841 79.2322 57.4841C79.2322 57.4841 79.1953 60.4001 75.1898 60.4001C71.1843 60.4001 71.3327 57.4841 71.3327 57.4841L68.922 58.098C68.922 58.098 70.0719 62.1269 75.1155 62.1269C80.1594 62.1269 81.5688 58.9806 81.5688 57.3306C81.5688 55.6806 80.8273 54.0692 75.7832 52.7646" fill="white" fill-opacity="0.3"/>
<path fill-rule="evenodd" clip-rule="evenodd" d="M83.6766 48.9342H88.2924V62.1269H90.5106V48.9342H95.2695V47.3723H83.6766V48.9342Z" fill="white" fill-opacity="0.3"/>
<path fill-rule="evenodd" clip-rule="evenodd" d="M105.809 60.2514C102.257 60.2514 99.3779 57.5523 99.3779 54.2228C99.3779 50.8931 102.257 48.194 105.809 48.194C109.36 48.194 112.239 50.8931 112.239 54.2228C112.239 57.5523 109.36 60.2514 105.809 60.2514M105.809 46.3185C101.152 46.3185 97.3773 49.8573 97.3773 54.2228C97.3773 58.5881 101.152 62.1269 105.809 62.1269C110.465 62.1269 114.24 58.5881 114.24 54.2228C114.24 49.8573 110.465 46.3185 105.809 46.3185" fill="white" fill-opacity="0.3"/>
<path fill-rule="evenodd" clip-rule="evenodd" d="M152.18 48.9038V47.3723H144.033H142.837H141.641V62.1269H142.015H144.033H152.18V60.5955H144.033V54.7869H152.031V53.3117H144.033V48.9038H152.18Z" fill="white" fill-opacity="0.3"/>
</svg>
