<svg width="180" height="80" viewBox="0 0 180 80" fill="none" xmlns="http://www.w3.org/2000/svg">
<mask id="mask0" mask-type="alpha" maskUnits="userSpaceOnUse" x="67" y="7" width="46" height="67">
<path fill-rule="evenodd" clip-rule="evenodd" d="M67 7H113V74H67V7Z" fill="white"/>
</mask>
<g mask="url(#mask0)">
<path fill-rule="evenodd" clip-rule="evenodd" d="M107.807 71.7146V66.2933H109.738V65.1898H104.554V66.2933H106.49V71.7146H107.807ZM97.0294 71.2586C97.4717 71.6394 98.1057 71.8305 98.9301 71.8305C99.4974 71.8305 99.9702 71.7508 100.35 71.5922C100.73 71.4335 101.023 71.1906 101.232 70.8642C101.439 70.5378 101.543 70.1881 101.543 69.8138C101.543 69.4019 101.456 69.0554 101.283 68.775C101.109 68.4946 100.868 68.2731 100.561 68.1119C100.254 67.95 99.7804 67.7932 99.1393 67.6423C98.4988 67.4908 98.0954 67.3457 97.9289 67.2058C97.7988 67.0964 97.7327 66.9643 97.7327 66.8101C97.7327 66.6405 97.8033 66.5058 97.9425 66.4047C98.1595 66.2474 98.458 66.169 98.8414 66.169C99.2125 66.169 99.4903 66.2422 99.6755 66.3892C99.8608 66.5362 99.9825 66.7771 100.039 67.1126L101.356 67.0543C101.335 66.4552 101.118 65.976 100.704 65.6172C100.29 65.2578 99.6736 65.0784 98.855 65.0784C98.3531 65.0784 97.9251 65.1542 97.5702 65.3057C97.2159 65.4566 96.9452 65.6768 96.7568 65.9663C96.5683 66.2558 96.4738 66.5666 96.4738 66.8989C96.4738 67.415 96.6739 67.8528 97.0748 68.2116C97.3591 68.4668 97.8551 68.6824 98.561 68.8573C99.1095 68.9939 99.4612 69.0885 99.616 69.1422C99.8413 69.2219 99.9993 69.3164 100.09 69.4246C100.181 69.5327 100.225 69.6642 100.225 69.8183C100.225 70.0586 100.118 70.2691 99.9028 70.4485C99.6878 70.6279 99.3679 70.7179 98.9437 70.7179C98.5429 70.7179 98.2249 70.6168 97.9892 70.4148C97.7534 70.2134 97.5967 69.8973 97.5197 69.4667L96.2381 69.5917C96.3242 70.3215 96.5878 70.8772 97.0294 71.2586ZM87.61 68.6701C87.61 69.4 87.6528 69.9517 87.7395 70.3261C87.7985 70.578 87.9215 70.8195 88.1087 71.0495C88.2952 71.2794 88.5503 71.4659 88.8722 71.6103C89.1941 71.7541 89.6662 71.8259 90.2892 71.8259C90.8053 71.8259 91.2243 71.7599 91.5449 71.6278C91.8648 71.4957 92.1206 71.3182 92.3123 71.0961C92.5033 70.8733 92.6348 70.6007 92.706 70.2768C92.7773 69.9537 92.8129 69.4 92.8129 68.617V65.1898H91.4956V68.7996C91.4956 69.3158 91.4762 69.6849 91.438 69.9077C91.3992 70.1298 91.2845 70.3176 91.0948 70.4705C90.905 70.6233 90.6233 70.6997 90.2497 70.6997C89.8812 70.6997 89.591 70.6188 89.3793 70.4569C89.1669 70.2956 89.0328 70.0813 88.9765 69.8138C88.9434 69.648 88.9279 69.2847 88.9279 68.7239V65.1898H87.61V68.6701ZM79.9884 66.2933H81.0161C81.5504 66.2933 81.8709 66.3011 81.9772 66.316C82.1909 66.3516 82.3566 66.4365 82.4739 66.5718C82.5904 66.7065 82.6494 66.884 82.6494 67.1035C82.6494 67.2991 82.6053 67.4623 82.516 67.5931C82.4272 67.7239 82.3042 67.8159 82.1468 67.869C81.9895 67.9227 81.5944 67.9493 80.963 67.9493H79.9884V66.2933ZM79.9884 71.7146V68.9907H80.2552C80.5582 68.9907 80.7791 69.0153 80.9183 69.0639C81.0576 69.1131 81.1897 69.2037 81.3147 69.3359C81.439 69.468 81.6708 69.7872 82.0089 70.295L82.9615 71.7146H84.5365L83.7399 70.4413C83.4258 69.9343 83.1759 69.5813 82.99 69.3825C82.8048 69.1837 82.5691 69.001 82.2848 68.8346C82.8572 68.7517 83.2879 68.5509 83.5754 68.2317C83.863 67.913 84.0074 67.5083 84.0074 67.0193C84.0074 66.6333 83.9122 66.2908 83.7224 65.9909C83.5327 65.6911 83.2795 65.4825 82.9635 65.3653C82.6474 65.2481 82.1403 65.1898 81.4435 65.1898H78.6711V71.7146H79.9884ZM73.5149 71.7146V66.2933H75.4461V65.1898H70.2613V66.2933H72.1977V71.7146H73.5149ZM105.362 63.4775C105.843 63.8926 106.533 64.0999 107.431 64.0999C108.048 64.0999 108.564 64.0137 108.978 63.8408C109.39 63.6679 109.71 63.4037 109.937 63.0481C110.163 62.6932 110.276 62.3118 110.276 61.9044C110.276 61.4556 110.182 61.0781 109.993 60.773C109.803 60.4674 109.542 60.2271 109.208 60.0509C108.873 59.8748 108.357 59.7045 107.659 59.5393C106.961 59.3748 106.522 59.2168 106.341 59.0646C106.199 58.9448 106.128 58.801 106.128 58.6333C106.128 58.4494 106.203 58.3024 106.356 58.1923C106.591 58.0213 106.918 57.9352 107.335 57.9352C107.738 57.9352 108.041 58.0155 108.243 58.1754C108.445 58.3354 108.576 58.5977 108.638 58.963L110.072 58.9001C110.05 58.2473 109.813 57.7254 109.362 57.3348C108.912 56.9437 108.241 56.7481 107.349 56.7481C106.802 56.7481 106.336 56.8303 105.951 56.9955C105.565 57.16 105.269 57.3996 105.064 57.715C104.858 58.0297 104.756 58.3684 104.756 58.7305C104.756 59.2926 104.974 59.7692 105.411 60.1597C105.72 60.4376 106.26 60.672 107.029 60.8624C107.627 61.0114 108.01 61.1143 108.177 61.1726C108.423 61.2601 108.595 61.3624 108.693 61.4809C108.792 61.5988 108.842 61.7412 108.842 61.9096C108.842 62.1713 108.725 62.3999 108.49 62.5954C108.256 62.7904 107.908 62.8882 107.445 62.8882C107.01 62.8882 106.663 62.7787 106.406 62.5585C106.149 62.339 105.979 61.9951 105.895 61.5269L104.5 61.6622C104.593 62.4569 104.88 63.0624 105.362 63.4775ZM103.448 63.9742V62.7768H99.4793V60.843H103.046V59.6462H99.4793V58.0712H103.312V56.8692H98.0449V63.9742H103.448ZM93.2766 60.8773C93.9287 60.8773 94.3529 60.911 94.5485 60.979C94.744 61.047 94.8936 61.1551 94.9966 61.3034C95.1002 61.4524 95.152 61.6331 95.152 61.8461C95.152 62.0987 95.0847 62.2995 94.9506 62.4497C94.8166 62.6 94.643 62.6945 94.4299 62.7334C94.2907 62.7625 93.963 62.7768 93.4456 62.7768H92.118V60.8773H93.2766ZM92.9417 58.0518C93.6172 58.0518 94.0258 58.0602 94.1677 58.0757C94.4073 58.1049 94.5873 58.1884 94.7078 58.3257C94.8295 58.463 94.8904 58.6411 94.8904 58.8613C94.8904 59.0905 94.8198 59.2757 94.6793 59.4163C94.5387 59.5568 94.3458 59.6417 94.1003 59.6701C93.9643 59.6863 93.6172 59.6948 93.0583 59.6948H92.118V58.0518H92.9417ZM90.6835 63.9742H93.1017C94.0161 63.9677 94.5931 63.9516 94.8321 63.9257C95.2135 63.8836 95.5341 63.7715 95.7938 63.5889C96.0541 63.4063 96.2594 63.1621 96.409 62.8571C96.5599 62.5514 96.6344 62.2373 96.6344 61.9141C96.6344 61.5042 96.5185 61.1467 96.286 60.843C96.0535 60.5399 95.7206 60.3249 95.2874 60.1986C95.5943 60.06 95.8378 59.8515 96.0166 59.5737C96.196 59.2958 96.286 58.9902 96.286 58.6573C96.286 58.351 96.2134 58.0738 96.0677 57.8264C95.922 57.579 95.7407 57.3815 95.5224 57.2325C95.3042 57.0842 95.0575 56.9864 94.7809 56.9398C94.5051 56.8925 94.0861 56.8692 93.5233 56.8692H90.6835V63.9742ZM85.9094 60.8773C86.5622 60.8773 86.9864 60.911 87.1819 60.979C87.3775 61.047 87.5271 61.1551 87.6301 61.3034C87.7337 61.4524 87.7855 61.6331 87.7855 61.8461C87.7855 62.0987 87.7182 62.2995 87.5841 62.4497C87.4501 62.6 87.2765 62.6945 87.0634 62.7334C86.9242 62.7625 86.5965 62.7768 86.0791 62.7768H84.7515V60.8773H85.9094ZM85.5752 58.0518C86.2507 58.0518 86.6593 58.0602 86.8012 58.0757C87.0408 58.1049 87.2208 58.1884 87.3413 58.3257C87.463 58.463 87.5239 58.6411 87.5239 58.8613C87.5239 59.0905 87.4533 59.2757 87.3128 59.4163C87.1722 59.5568 86.9792 59.6417 86.7338 59.6701C86.5978 59.6863 86.2507 59.6948 85.6918 59.6948H84.7515V58.0518H85.5752ZM83.317 63.9742H85.7352C86.6496 63.9677 87.2266 63.9516 87.4656 63.9257C87.847 63.8836 88.1676 63.7715 88.4273 63.5889C88.6876 63.4063 88.8929 63.1621 89.0425 62.8571C89.1934 62.5514 89.2679 62.2373 89.2679 61.9141C89.2679 61.5042 89.152 61.1467 88.9195 60.843C88.687 60.5399 88.3541 60.3249 87.9209 60.1986C88.2278 60.06 88.4713 59.8515 88.6501 59.5737C88.8295 59.2958 88.9195 58.9902 88.9195 58.6573C88.9195 58.351 88.8469 58.0738 88.7012 57.8264C88.5555 57.579 88.3742 57.3815 88.1559 57.2325C87.9377 57.0842 87.691 56.9864 87.4144 56.9398C87.1386 56.8925 86.7189 56.8692 86.1568 56.8692H83.317V63.9742ZM75.9363 60.6591C75.9363 61.4537 75.9829 62.0547 76.0775 62.462C76.1416 62.7366 76.2763 62.9989 76.4796 63.2495C76.683 63.5002 76.9602 63.7035 77.3105 63.8602C77.6609 64.017 78.1757 64.0953 78.8544 64.0953C79.4159 64.0953 79.8718 64.0234 80.2202 63.8797C80.5693 63.7359 80.8484 63.5429 81.0563 63.3001C81.2654 63.0578 81.4079 62.7606 81.485 62.4083C81.5633 62.0566 81.6015 61.4537 81.6015 60.6008V56.8692H80.1671V60.7996C80.1671 61.3617 80.1464 61.7639 80.1049 62.0061C80.0622 62.249 79.9378 62.453 79.7306 62.6194C79.5247 62.7858 79.2177 62.8687 78.811 62.8687C78.4095 62.8687 78.0941 62.7813 77.8629 62.6052C77.6317 62.429 77.486 62.1952 77.4245 61.9044C77.3889 61.7237 77.3714 61.3281 77.3714 60.7174V56.8692H75.9363V60.6591ZM74.7253 63.9742V62.7768H71.1583V56.9275H69.7238V63.9742H74.7253ZM69.6921 74H110.307V73.1672H69.6921V74ZM69.6921 74H110.307V73.1672H69.6921V74ZM69.6921 55.6711H110.307V54.8383H69.6921V55.6711ZM103.16 24.1833V48.8588C109.107 44.7005 113 37.8072 113 30.0002C113 27.9906 112.74 26.0413 112.256 24.1833H103.16ZM93.6541 52.7083C92.4638 52.8987 91.2437 53.0003 90.0003 53.0003C77.2982 53.0003 67 42.7025 67 30.0002C67 24.3121 69.0697 19.1105 72.4904 15.0952V42.3684H73.7351H82.5626H92.5214V34.8217H82.5626V8.2363C84.8966 7.43909 87.3957 7 90.0003 7C97.8007 7 104.69 10.887 108.848 16.8263H84.4866V24.1833H93.6541V52.7083Z" fill="white" fill-opacity="0.3"/>
</g>
</svg>
