<svg width="180" height="80" viewBox="0 0 180 80" fill="none" xmlns="http://www.w3.org/2000/svg">
<mask id="mask0" mask-type="alpha" maskUnits="userSpaceOnUse" x="51" y="15" width="79" height="50">
<path fill-rule="evenodd" clip-rule="evenodd" d="M51 15H130V65H51V15Z" fill="white"/>
</mask>
<g mask="url(#mask0)">
<path fill-rule="evenodd" clip-rule="evenodd" d="M129.866 64.0976C129.776 64.2902 129.651 64.4521 129.491 64.5829C129.331 64.7136 129.14 64.8136 128.917 64.8824C128.695 64.9513 128.449 64.9857 128.179 64.9857C127.799 64.9857 127.426 64.9202 127.061 64.7894C126.696 64.6587 126.364 64.458 126.065 64.187L126.712 63.4091C126.94 63.5948 127.174 63.7424 127.414 63.8515C127.653 63.961 127.915 64.0156 128.2 64.0156C128.427 64.0156 128.604 63.9738 128.73 63.8907C128.856 63.8075 128.919 63.6922 128.919 63.5446V63.5307C128.919 63.4593 128.905 63.3963 128.879 63.3413C128.853 63.2868 128.803 63.2355 128.73 63.1879C128.655 63.1406 128.554 63.093 128.423 63.0454C128.292 62.9978 128.122 62.948 127.912 62.8956C127.66 62.8337 127.432 62.7649 127.227 62.6887C127.023 62.6129 126.849 62.5188 126.707 62.4071C126.564 62.2954 126.453 62.1562 126.375 61.9896C126.296 61.8233 126.257 61.6164 126.257 61.3692V61.3549C126.257 61.1264 126.299 60.9209 126.384 60.7378C126.469 60.5547 126.588 60.3964 126.741 60.2635C126.894 60.1302 127.077 60.028 127.29 59.9566C127.503 59.8852 127.737 59.8497 127.993 59.8497C128.359 59.8497 128.695 59.9042 129 60.0137C129.307 60.1232 129.588 60.28 129.844 60.4843L129.274 61.312C129.052 61.1597 128.833 61.0399 128.62 60.9517C128.406 60.8638 128.193 60.8198 127.979 60.8198C127.765 60.8198 127.605 60.8616 127.499 60.9447C127.392 61.0278 127.339 61.1315 127.339 61.2549V61.2692C127.339 61.3501 127.354 61.4201 127.385 61.4798C127.416 61.5391 127.472 61.5926 127.553 61.6402C127.634 61.6878 127.744 61.7328 127.885 61.7757C128.025 61.8185 128.202 61.8683 128.416 61.9255C128.669 61.9921 128.893 62.0668 129.091 62.15C129.288 62.2335 129.454 62.3335 129.59 62.4499C129.725 62.5664 129.828 62.703 129.897 62.8601C129.966 63.0168 130 63.2047 130 63.4234V63.4377C130 63.6852 129.955 63.905 129.866 64.0976V64.0976ZM124.158 61.6259C124.158 61.3882 124.082 61.2099 123.93 61.0908C123.778 60.9722 123.567 60.9125 123.297 60.9125H122.208V62.3463H123.318C123.588 62.3463 123.796 62.2822 123.94 62.1536C124.086 62.0255 124.158 61.8541 124.158 61.6402V61.6259ZM124.136 64.9143L123.069 63.3164H122.208V64.9143H121.112V59.9211H123.389C123.982 59.9211 124.443 60.0661 124.773 60.3562C125.103 60.6462 125.268 61.0505 125.268 61.5688V61.583C125.268 61.9874 125.17 62.3166 124.972 62.5711C124.775 62.8253 124.518 63.0121 124.2 63.1311L125.417 64.9143H124.136ZM118.628 64.9147H119.724V59.9211H118.628V64.9147ZM115.013 61.2051L114.351 62.8242H115.675L115.013 61.2051ZM116.521 64.9143L116.066 63.7944H113.96L113.504 64.9143H112.387L114.522 59.8852H115.532L117.667 64.9143H116.521ZM109.099 60.9125V61.9896H111.476V62.9813H109.099V64.9143H108.003V59.9211H111.797V60.9125H109.099ZM104.288 60.9125V61.9896H106.665V62.9813H104.288V64.9143H103.192V59.9211H106.985V60.9125H104.288ZM99.6271 61.2051L98.9654 62.8242H100.289L99.6271 61.2051ZM101.136 64.9143L100.68 63.7944H98.5738L98.1182 64.9143H97.0009L99.1361 59.8852H100.146L102.281 64.9143H101.136ZM93.7345 64.4792C93.5968 64.5887 93.4463 64.6825 93.2826 64.7612C93.1193 64.8396 92.9403 64.8989 92.7451 64.9392C92.5508 64.9799 92.3327 65 92.0908 65C91.7251 65 91.386 64.9333 91.0729 64.8004C90.7601 64.6671 90.4898 64.4851 90.2618 64.2547C90.0338 64.024 89.8559 63.7515 89.728 63.4376C89.5997 63.1238 89.5358 62.7887 89.5358 62.432V62.4177C89.5358 62.061 89.5997 61.727 89.728 61.4153C89.8559 61.104 90.0338 60.8304 90.2618 60.5949C90.4898 60.3595 90.7623 60.1741 91.0802 60.0386C91.3981 59.9031 91.7492 59.8354 92.1335 59.8354C92.3655 59.8354 92.5782 59.8544 92.7704 59.8925C92.9625 59.9306 93.1368 59.983 93.2932 60.0493C93.4499 60.1159 93.5946 60.1968 93.7276 60.2921C93.8602 60.3869 93.9837 60.4917 94.0977 60.6059L93.3999 61.412C93.2055 61.2359 93.0075 61.0978 92.8058 60.9982C92.6045 60.8982 92.378 60.8484 92.1262 60.8484C91.9176 60.8484 91.724 60.8887 91.5464 60.9696C91.3685 61.0505 91.2154 61.1622 91.0871 61.3047C90.9593 61.4475 90.8595 61.6127 90.7883 61.8006C90.7174 61.9885 90.6816 62.1895 90.6816 62.4034V62.4177C90.6816 62.6316 90.7174 62.8337 90.7883 63.0242C90.8595 63.2142 90.9582 63.3805 91.0838 63.5233C91.2092 63.6662 91.3612 63.779 91.5395 63.8621C91.717 63.9456 91.9129 63.987 92.1262 63.987C92.4108 63.987 92.6516 63.9346 92.8489 63.8302C93.0455 63.7255 93.2413 63.583 93.4357 63.4021L94.1332 64.1082C94.0053 64.2463 93.8723 64.3701 93.7345 64.4792V64.4792ZM87.2731 64.9147H88.3688V59.9211H87.2731V64.9147ZM85.1127 64.7682C84.7594 64.9227 84.355 65 83.8994 65C83.5106 65 83.1559 64.9359 82.8354 64.8074C82.5154 64.6792 82.2399 64.5008 82.0105 64.2723C81.7799 64.0441 81.6005 63.7731 81.4726 63.4593C81.3444 63.1454 81.2805 62.803 81.2805 62.432V62.4177C81.2805 62.061 81.3459 61.727 81.4767 61.4153C81.6067 61.104 81.7883 60.8304 82.021 60.5949C82.2534 60.3595 82.5285 60.1741 82.8464 60.0386C83.1643 59.9031 83.5128 59.8354 83.8924 59.8354C84.1153 59.8354 84.3184 59.8508 84.5008 59.8819C84.6834 59.9127 84.8533 59.9566 85.0097 60.0137C85.1661 60.0709 85.3133 60.1419 85.4511 60.2276C85.5884 60.3133 85.7214 60.4107 85.8493 60.5202L85.1595 61.3549C85.0641 61.2739 84.9692 61.2025 84.8745 61.1406C84.7795 61.0791 84.6809 61.0267 84.5789 60.9839C84.4774 60.941 84.367 60.9077 84.2483 60.8839C84.1296 60.8601 83.9991 60.8484 83.857 60.8484C83.6575 60.8484 83.4715 60.8901 83.298 60.9733C83.1248 61.0568 82.9732 61.1688 82.8427 61.3095C82.7119 61.4501 82.61 61.6145 82.5369 61.8028C82.4631 61.991 82.4262 62.1925 82.4262 62.4071V62.4214C82.4262 62.6499 82.4631 62.8608 82.5369 63.0538C82.61 63.2472 82.7145 63.4153 82.8497 63.5581C82.9852 63.701 83.1438 63.8119 83.3265 63.8907C83.5092 63.9691 83.7119 64.0086 83.9352 64.0086C84.3429 64.0086 84.6871 63.9079 84.967 63.7068V62.9883H83.8639V62.0397H86.0276V64.2082C85.7711 64.4268 85.4664 64.6136 85.1127 64.7682V64.7682ZM76.591 64.9143V59.9211H80.3415V60.8982H77.6725V61.9112H80.0211V62.8883H77.6725V63.9372H80.3769V64.9143H76.591ZM74.0931 60.9337V64.9143H72.9973V60.9337H71.4811V59.9211H75.6089V60.9337H74.0931ZM68.2718 61.2051L67.6097 62.8242H68.9338L68.2718 61.2051ZM69.7803 64.9143L69.3251 63.7944H67.2184L66.7632 64.9143H65.6459L67.7807 59.8852H68.7913L70.9265 64.9143H69.7803ZM63.8311 61.6259C63.8311 61.3882 63.7551 61.2099 63.6035 61.0908C63.4515 60.9722 63.2407 60.9125 62.9696 60.9125H61.8812V62.3463H62.9912C63.2615 62.3463 63.4691 62.2822 63.6141 62.1536C63.7584 62.0255 63.8311 61.8541 63.8311 61.6402V61.6259ZM63.8096 64.9143L62.7424 63.3164H61.8812V64.9143H60.7851V59.9211H63.0624C63.6554 59.9211 64.1169 60.0661 64.4464 60.3562C64.7767 60.6462 64.9411 61.0505 64.9411 61.5688V61.583C64.9411 61.9874 64.8425 62.3166 64.6459 62.5711C64.449 62.8253 64.1914 63.0121 63.8735 63.1311L65.0905 64.9143H63.8096ZM58.2875 60.9337V64.9143H57.1914V60.9337H55.6755V59.9211H59.803V60.9337H58.2875ZM54.8012 64.0976C54.7117 64.2902 54.5868 64.4521 54.4264 64.5829C54.266 64.7136 54.0749 64.8136 53.8524 64.8824C53.6302 64.9513 53.384 64.9857 53.1136 64.9857C52.734 64.9857 52.3613 64.9202 51.996 64.7894C51.631 64.6587 51.2989 64.458 51 64.187L51.6474 63.4091C51.8754 63.5948 52.1089 63.7424 52.3486 63.8515C52.5879 63.961 52.8502 64.0156 53.1348 64.0156C53.3624 64.0156 53.5393 63.9738 53.6653 63.8907C53.7906 63.8075 53.8535 63.6922 53.8535 63.5446V63.5307C53.8535 63.4593 53.8403 63.3963 53.8144 63.3413C53.7881 63.2868 53.7384 63.2355 53.6646 63.1879C53.5908 63.1406 53.4885 63.093 53.358 63.0454C53.2265 62.9978 53.0566 62.948 52.8476 62.8956C52.5952 62.8337 52.3672 62.7649 52.1622 62.6887C51.958 62.6129 51.7844 62.5188 51.6416 62.4071C51.4991 62.2954 51.3884 62.1562 51.3098 61.9896C51.2313 61.8233 51.1918 61.6164 51.1918 61.3692V61.3549C51.1918 61.1264 51.2342 60.9209 51.3193 60.7378C51.4041 60.5547 51.5228 60.3964 51.6763 60.2635C51.8294 60.1302 52.0124 60.028 52.2251 59.9566C52.4377 59.8852 52.6726 59.8497 52.9284 59.8497C53.2937 59.8497 53.6295 59.9042 53.9357 60.0137C54.2415 60.1232 54.5225 60.28 54.7786 60.4843L54.2097 61.312C53.9861 61.1597 53.7683 61.0399 53.555 60.9517C53.3412 60.8638 53.1279 60.8198 52.9145 60.8198C52.7008 60.8198 52.5404 60.8616 52.4337 60.9447C52.327 61.0278 52.274 61.1315 52.274 61.2549V61.2692C52.274 61.3501 52.2894 61.4201 52.3201 61.4798C52.3511 61.5391 52.4066 61.5926 52.4878 61.6402C52.5689 61.6878 52.6792 61.7328 52.8195 61.7757C52.9602 61.8185 53.137 61.8683 53.3515 61.9255C53.6036 61.9921 53.8283 62.0668 54.0256 62.15C54.2229 62.2335 54.3895 62.3335 54.525 62.4499C54.6606 62.5664 54.7625 62.703 54.8319 62.8601C54.9006 63.0168 54.9353 63.2047 54.9353 63.4234V63.4377C54.9353 63.6852 54.8907 63.905 54.8012 64.0976V64.0976ZM118.368 54.3214C118.368 54.0837 118.292 53.9053 118.14 53.7863C117.989 53.6676 117.778 53.6079 117.507 53.6079H116.418V55.0418H117.528C117.799 55.0418 118.006 54.9777 118.151 54.8491C118.296 54.7209 118.368 54.5495 118.368 54.3357V54.3214ZM118.347 57.6101L117.28 56.0119H116.418V57.6101H115.322V52.6166H117.6C118.193 52.6166 118.654 52.7616 118.984 53.0516C119.314 53.3417 119.478 53.746 119.478 54.2642V54.2785C119.478 54.6828 119.38 55.0121 119.183 55.2666C118.986 55.5212 118.729 55.7079 118.411 55.8266L119.628 57.6101H118.347ZM113.06 55.1132C113.06 54.8993 113.022 54.6971 112.949 54.5071C112.875 54.3166 112.771 54.1503 112.636 54.0075C112.501 53.8647 112.341 53.7519 112.155 53.6687C111.971 53.5856 111.769 53.5439 111.551 53.5439C111.328 53.5439 111.125 53.5841 110.942 53.6651C110.759 53.746 110.603 53.8577 110.473 54.0006C110.342 54.143 110.24 54.3086 110.167 54.4961C110.093 54.6843 110.056 54.885 110.056 55.0989V55.1132C110.056 55.327 110.093 55.5296 110.167 55.7196C110.24 55.9097 110.344 56.0764 110.479 56.2188C110.615 56.3617 110.774 56.4745 110.956 56.5576C111.139 56.6411 111.342 56.6825 111.565 56.6825C111.783 56.6825 111.985 56.6422 112.17 56.5613C112.354 56.4807 112.513 56.3686 112.643 56.2262C112.774 56.0833 112.875 55.9181 112.949 55.7303C113.022 55.5424 113.06 55.3413 113.06 55.1275V55.1132ZM114.006 56.1155C113.873 56.4268 113.69 56.7004 113.454 56.9359C113.219 57.1714 112.939 57.3567 112.615 57.4922C112.29 57.6277 111.935 57.6955 111.551 57.6955C111.166 57.6955 110.813 57.6277 110.49 57.4922C110.167 57.3567 109.889 57.1736 109.654 56.9429C109.419 56.7125 109.236 56.4411 109.106 56.1298C108.976 55.8182 108.911 55.4842 108.911 55.1274V55.1132C108.911 54.7565 108.977 54.4224 109.109 54.1111C109.243 53.7995 109.426 53.5259 109.661 53.2904C109.896 53.0553 110.176 52.8696 110.501 52.7341C110.826 52.5986 111.18 52.5309 111.565 52.5309C111.949 52.5309 112.303 52.5986 112.625 52.7341C112.948 52.8696 113.227 53.0527 113.462 53.2835C113.696 53.5142 113.879 53.7852 114.01 54.0969C114.14 54.4082 114.205 54.7422 114.205 55.0989V55.1132C114.205 55.4699 114.139 55.8039 114.006 56.1155V56.1155ZM105.416 53.6079V54.6854H107.793V55.6768H105.416V57.6101H104.321V52.6166H108.114V53.6079H105.416ZM97.1328 57.6101V52.6166H100.883V53.5937H98.2142V54.6067H100.563V55.5841H98.2142V56.6327H100.919V57.6101H97.1328ZM94.6348 53.6296V57.6101H93.5391V53.6296H92.0232V52.6166H96.1511V53.6296H94.6348ZM90.9662 56.4257C90.8639 56.7063 90.7185 56.9407 90.5285 57.1285C90.3385 57.3164 90.1087 57.4567 89.838 57.5494C89.568 57.642 89.2665 57.6885 88.9344 57.6885C88.2654 57.6885 87.7386 57.5028 87.3546 57.1318C86.9702 56.7612 86.7781 56.2071 86.7781 55.4699V52.6166H87.8738V55.4413C87.8738 55.8504 87.9688 56.1584 88.1588 56.3653C88.3484 56.5719 88.6118 56.6755 88.9487 56.6755C89.2855 56.6755 89.5486 56.5755 89.7386 56.3759C89.9278 56.176 90.0232 55.8764 90.0232 55.4772V52.6166H91.1189V55.4344C91.1189 55.8149 91.0685 56.1452 90.9662 56.4257V56.4257ZM84.3583 53.6296V57.6101H83.2625V53.6296H81.7467V52.6166H85.8745V53.6296H84.3583ZM79.6192 57.6101H80.7149V52.6166H79.6192V57.6101ZM77.0711 53.6296V57.6101H75.9754V53.6296H74.4595V52.6166H78.587V53.6296H77.0711ZM73.5848 56.7931C73.4953 56.9857 73.3707 57.1476 73.2103 57.2783C73.05 57.4091 72.8589 57.5091 72.6364 57.5779C72.4142 57.6468 72.168 57.6812 71.8976 57.6812C71.518 57.6812 71.1453 57.616 70.78 57.4853C70.415 57.3545 70.0828 57.1535 69.784 56.8824L70.4314 56.1049C70.6594 56.2902 70.8929 56.4378 71.1325 56.547C71.3718 56.6565 71.6342 56.711 71.9188 56.711C72.1464 56.711 72.3232 56.6697 72.4489 56.5862C72.5746 56.503 72.6375 56.3877 72.6375 56.2404V56.2262C72.6375 56.1547 72.6243 56.0917 72.5984 56.0372C72.5721 55.9826 72.5224 55.9313 72.4486 55.8837C72.3748 55.8361 72.2725 55.7885 72.1417 55.7409C72.0105 55.6936 71.841 55.6435 71.6316 55.5911C71.3792 55.5296 71.1512 55.4604 70.9462 55.3842C70.742 55.3084 70.568 55.2142 70.4256 55.1025C70.2831 54.9908 70.172 54.8517 70.0938 54.6854C70.0153 54.5188 69.9758 54.3118 69.9758 54.0646V54.0504C69.9758 53.8222 70.0182 53.6164 70.1033 53.4333C70.1881 53.2501 70.3068 53.0919 70.4603 52.959C70.6134 52.8257 70.7964 52.7235 71.009 52.6521C71.2217 52.5807 71.4566 52.5451 71.7124 52.5451C72.0777 52.5451 72.4135 52.5997 72.7197 52.7092C73.0255 52.8187 73.3064 52.9755 73.5626 53.1802L72.9933 54.0075C72.7705 53.8555 72.5523 53.7354 72.339 53.6471C72.1252 53.5592 71.9119 53.5153 71.6985 53.5153C71.4847 53.5153 71.3243 53.557 71.2177 53.6402C71.1113 53.7233 71.058 53.827 71.058 53.9504V53.9647C71.058 54.0456 71.0733 54.1159 71.104 54.1752C71.1351 54.2346 71.1906 54.288 71.2717 54.3357C71.3528 54.3833 71.4632 54.4283 71.6035 54.4712C71.7441 54.514 71.921 54.5638 72.1351 54.6209C72.3876 54.6876 72.6119 54.7627 72.8095 54.8458C73.0068 54.929 73.1734 55.0289 73.309 55.1454C73.4445 55.2619 73.5468 55.3985 73.6159 55.5556C73.6846 55.7123 73.7193 55.9002 73.7193 56.1192V56.1335C73.7193 56.3807 73.6747 56.6004 73.5848 56.7931V56.7931ZM67.8479 57.6101L65.4354 54.4356V57.6101H64.3536V52.6166H65.3642L67.6989 55.6911V52.6166H68.7803V57.6101H67.8479ZM61.8706 57.6101H62.9663V52.6166H61.8706V57.6101ZM116.226 18.5466C115.727 20.0423 114.321 21.1212 112.661 21.1212C110.584 21.1212 108.9 19.4336 108.9 17.3512C108.9 16.4616 109.21 15.6453 109.724 15.0004H105.584L103.469 20.072C104.64 24.0526 108.311 26.959 112.661 26.959C115.013 26.959 117.165 26.1086 118.833 24.6997L116.226 18.5466ZM112.661 38.5525C107.05 38.5525 101.953 36.358 98.1671 32.7843L91.3487 49.1326H101.135L103.562 42.8088H116.584L118.93 48.792H129.039L123.446 35.5885C120.288 37.4691 116.601 38.5525 112.661 38.5525V38.5525ZM112.661 34.3368C116.021 34.3368 119.149 33.3527 121.783 31.6625L120.512 28.6638C118.286 30.2192 115.581 31.134 112.661 31.134C107.966 31.134 103.822 28.7733 101.342 25.1729L99.9307 28.555C103.036 32.0976 107.587 34.3368 112.661 34.3368V34.3368ZM86.6575 25.8643L91.3487 19.1351C91.3487 19.1351 86.9001 15.0004 77.9224 15.0004C68.9447 15.0004 64.415 19.2974 64.415 25.8643C64.415 32.4312 70.3196 34.8638 76.1431 35.9987C81.9662 37.1337 82.7752 38.3774 82.7752 39.8229C82.7752 41.2684 81.9662 42.0793 77.8822 42.0793C73.7975 42.0793 69.1062 39.3227 68.1358 37.9445L62.7168 44.1873C62.7168 44.1873 68.1358 49.7812 77.6798 49.7812C87.2238 49.7812 92.1576 45.7277 92.1576 38.8363C92.1576 31.9449 86.7386 30.2423 83.7459 29.3505C80.7532 28.4587 73.636 27.7292 73.636 24.8912C73.636 22.0537 80.5918 21.6482 86.6575 25.8643V25.8643ZM51.3931 49.1326H60.8564V15H51.3931V49.1326Z" fill="white" fill-opacity="0.3"/>
</g>
</svg>
