<svg width="169" height="52" viewBox="0 0 169 52" fill="none" xmlns="http://www.w3.org/2000/svg">
<path d="M105.874 16.6527C109.509 15.6383 112.087 13.0601 112.087 8.74907C112.087 3.63496 108.41 0.507324 102.409 0.507324H90.7856V26.5428H95.3503V4.69159H102.028C105.409 4.69159 107.438 6.17088 107.438 9.04493C107.438 11.7076 105.367 13.4405 102.07 13.4405H98.2666L101.141 17.498L107.523 26.5851H112.933L105.874 16.6527Z" fill="white"/>
<path d="M53.8037 22.3163H62.8062L60.4816 26.5006H49.239V0.465088H53.8037V22.3163Z" fill="white"/>
<path d="M0 26.5006H4.56466V15.892H17.7092V11.7077H4.56466V4.6071H19.3998V0.465088H0V26.5006Z" fill="white"/>
<path d="M39.4336 15.427C39.4336 20.2453 36.94 22.6967 32.8825 22.6967C28.7827 22.6967 26.2891 20.0762 26.2891 15.258V0.465088H21.7244V15.4693C21.7244 23.0348 26.0355 26.9232 32.798 26.9232C39.6027 26.9232 43.9983 23.0348 43.9983 15.258V0.465088H39.4336V15.427Z" fill="white"/>
<path d="M133.601 15.427C133.601 20.2453 131.107 22.6967 127.049 22.6967C122.95 22.6967 120.456 20.0762 120.456 15.258V0.465088H115.891V15.4693C115.891 23.0348 120.202 26.9232 126.965 26.9232C133.77 26.9232 138.165 23.0348 138.165 15.258V0.465088H133.601V15.427Z" fill="white"/>
<path d="M163.821 0.465088L155.917 12.7643L147.972 0.465088H143.111V26.5006H147.633V7.9038L155.748 20.0762H156.805L164.117 7.81926V26.5006H168.724V0.465088H163.821Z" fill="white"/>
<path d="M75.1058 0.042268L72.4008 4.90279C73.4152 4.43787 74.5986 4.18428 75.8243 4.18428C78.7829 4.18428 81.0229 5.4945 83.0939 7.43871L86.0525 4.05748C83.5588 1.69062 80.6425 0 75.8665 0C75.613 0 75.3594 0.042268 75.1058 0.042268Z" fill="white"/>
<path d="M83.3053 19.3574C81.0653 21.4284 79.0365 22.7386 75.8244 22.7386C71.0906 22.7386 67.6249 18.977 67.2867 14.2433L64.0746 20.0759C66.2724 24.2179 70.5412 26.9652 75.6976 26.9652C80.5581 26.9652 83.5589 25.19 86.2639 22.3582L83.3053 19.3574Z" fill="white"/>
<path d="M13.9897 37.8112H12.6372V36.9659H18.5121C21.048 36.9659 22.9077 38.572 22.9077 41.1925C22.9077 43.8129 21.048 45.4613 18.5121 45.4613H14.835V51.463H13.9474V37.8112H13.9897ZM18.4698 44.616C20.5831 44.616 21.9779 43.348 21.9779 41.1925C21.9779 39.0369 20.5831 37.8112 18.4698 37.8112H14.835V44.616H18.4698Z" fill="white"/>
<path d="M24.9791 42.3753C24.9791 42.0795 24.81 41.9104 24.5142 41.9104H23.6266V41.1074H24.641C25.4863 41.1074 25.8244 41.4455 25.8244 42.2485V42.967C25.8244 43.4319 25.7821 43.8123 25.7821 43.8123H25.8244C26.3316 42.2062 27.4727 41.0228 29.0788 41.0228C29.3747 41.0228 29.6705 41.0651 29.6705 41.0651V41.9527C29.6705 41.9527 29.4169 41.9104 29.2056 41.9104C27.5995 41.9104 26.5852 43.2629 26.1202 44.7844C25.9089 45.503 25.8244 46.2637 25.8244 46.94V51.4201H24.9368V42.3753H24.9791Z" fill="white"/>
<path d="M35.3344 40.8536C38.1239 40.8536 39.5609 43.0514 39.5609 45.5451C39.5609 45.7564 39.5187 46.0946 39.5187 46.0946H31.2347C31.2347 49.0954 33.2634 50.786 35.6725 50.786C37.659 50.786 38.8847 49.4758 38.8847 49.4758L39.3496 50.1943C39.3496 50.1943 37.9126 51.6313 35.6725 51.6313C32.7562 51.6313 30.3471 49.518 30.3471 46.2213C30.3048 42.7979 32.6717 40.8536 35.3344 40.8536ZM38.6311 45.3338C38.5466 42.7978 37.025 41.6567 35.2921 41.6567C33.3902 41.6567 31.615 42.8824 31.2769 45.3338H38.6311Z" fill="white"/>
<path d="M42.1808 42.3752C42.1808 42.0793 42.0117 41.9102 41.7159 41.9102H40.8283V41.1072H41.8427C42.688 41.1072 43.0261 41.4453 43.0261 42.2484V42.8401C43.0261 43.305 42.9838 43.6854 42.9838 43.6854H43.0261C43.5333 42.1216 45.3507 40.8959 46.9568 40.8959C49.0278 40.8959 49.9999 41.868 50.2112 43.6854H50.2535C50.8452 42.1216 52.409 40.8959 54.1842 40.8959C56.8469 40.8959 57.6499 42.4597 57.6499 44.9111V50.2365C57.6499 50.5324 57.819 50.7014 58.1148 50.7014H59.0024V51.5045H57.988C57.1427 51.5045 56.8046 51.1664 56.8046 50.3211V45.2915C56.8046 43.3473 56.4242 41.7412 54.2264 41.7412C52.4936 41.7412 51.0565 43.2627 50.5916 44.8688C50.4648 45.3337 50.3803 45.8409 50.3803 46.4749V51.5045H49.4927V45.2492C49.4927 43.4741 49.2391 41.6989 46.9568 41.6989C45.0971 41.6989 43.6601 43.305 43.1952 45.0379C43.0684 45.4605 43.0261 45.9677 43.0261 46.4326V51.4622H42.1385V42.3752H42.1808Z" fill="white"/>
<path d="M61.1159 42.3752C61.1159 42.0793 60.9469 41.9103 60.651 41.9103H59.7634V41.1072H60.7778C61.6231 41.1072 61.9612 41.4453 61.9612 42.2906V50.1943C61.9612 50.4901 62.1303 50.6592 62.4261 50.6592H63.3137V51.4622H62.2994C61.454 51.4622 61.1159 51.1241 61.1159 50.2788V42.3752ZM60.9891 36.9652H61.919V38.4868H60.9891V36.9652Z" fill="white"/>
<path d="M65.3843 42.3754C65.3843 42.0795 65.2152 41.9105 64.9194 41.9105H64.0318V41.1074H65.0462C65.8915 41.1074 66.2296 41.4456 66.2296 42.2486V47.3627C66.2296 49.1801 66.4409 50.8707 68.7655 50.8707C71.3437 50.8707 72.9921 48.5884 72.9921 46.1793V41.1497H73.8796V50.2367C73.8796 50.5326 74.0487 50.7017 74.3445 50.7017H75.2321V51.5047H74.2178C73.3724 51.5047 73.0343 51.1666 73.0343 50.3635V49.7718C73.0343 49.3069 73.0766 48.9265 73.0766 48.9265H73.0343C72.6962 49.8986 71.3014 51.716 68.8078 51.716C66.2719 51.716 65.3843 50.3213 65.3843 47.7008V42.3754Z" fill="white"/>
<path d="M77.2617 42.3752C77.2617 42.0793 77.0927 41.9102 76.7968 41.9102H75.9092V41.1072H76.9236C77.7689 41.1072 78.107 41.4453 78.107 42.2484V42.8401C78.107 43.305 78.0648 43.6854 78.0648 43.6854H78.107C78.6142 42.1216 80.4316 40.8959 82.0377 40.8959C84.1087 40.8959 85.0808 41.868 85.2921 43.6854H85.3344C85.9261 42.1216 87.49 40.8959 89.2651 40.8959C91.9278 40.8959 92.7309 42.4597 92.7309 44.9111V50.2365C92.7309 50.5324 92.8999 50.7014 93.1958 50.7014H94.0834V51.5045H93.069C92.2237 51.5045 91.8855 51.1664 91.8855 50.3211V45.2915C91.8855 43.3473 91.5052 41.7412 89.3074 41.7412C87.5745 41.7412 86.1375 43.2627 85.6725 44.8688C85.5457 45.3337 85.4612 45.8409 85.4612 46.4749V51.5045H84.5736V45.2492C84.5736 43.4741 84.3201 41.6989 82.0377 41.6989C80.178 41.6989 78.741 43.305 78.2761 45.0379C78.1493 45.4605 78.107 45.9677 78.107 46.4326V51.4622H77.2195V42.3752H77.2617Z" fill="white"/>
<path d="M101.859 37.8105H100.506V36.9652H107.945C108.79 36.9652 109.129 37.3033 109.129 38.1486V39.2475H108.241V38.2332C108.241 37.9373 108.072 37.7682 107.776 37.7682H102.704V43.8122H108.241V44.6575H102.704V51.42H101.859V37.8105Z" fill="white"/>
<path d="M111.285 42.3752C111.285 42.0793 111.116 41.9103 110.82 41.9103H109.932V41.1072H110.947C111.792 41.1072 112.13 41.4453 112.13 42.2906V50.1943C112.13 50.4901 112.299 50.6592 112.595 50.6592H113.483V51.4622H112.468C111.623 51.4622 111.285 51.1241 111.285 50.2788V42.3752ZM111.158 36.9652H112.088V38.4868H111.158V36.9652Z" fill="white"/>
<path d="M115.596 42.3752C115.596 42.0793 115.427 41.9102 115.131 41.9102H114.243V41.1072H115.258C116.103 41.1072 116.441 41.4453 116.441 42.2484V42.8401C116.441 43.305 116.399 43.6854 116.399 43.6854H116.441C116.779 42.7133 118.216 40.8959 120.794 40.8959C123.499 40.8959 124.218 42.502 124.218 44.9111V50.2365C124.218 50.5324 124.387 50.7014 124.683 50.7014H125.57V51.5045H124.556C123.711 51.5045 123.373 51.1664 123.373 50.3211V45.2915C123.373 43.4741 123.161 41.7834 120.837 41.7834C118.893 41.7834 117.16 43.1359 116.652 45.0801C116.526 45.5028 116.483 46.01 116.483 46.4749V51.5045H115.596V42.3752Z" fill="white"/>
<path d="M133.009 45.1649H133.685V45.0381C133.685 42.5867 132.84 41.6991 130.684 41.6991C130.135 41.6991 128.402 41.8259 128.402 42.7135V43.432H127.514V42.5022C127.514 41.2765 129.839 40.9384 130.684 40.9384C133.854 40.9384 134.531 42.6712 134.531 44.8268V50.279C134.531 50.5749 134.7 50.7439 134.995 50.7439H135.883V51.547H134.869C134.023 51.547 133.685 51.2088 133.685 50.279C133.685 49.7296 133.727 49.3492 133.727 49.3492H133.685C133.685 49.3492 132.798 51.8006 130.093 51.8006C128.402 51.8006 126.585 50.8707 126.585 48.7997C126.627 45.2072 131.192 45.1649 133.009 45.1649ZM130.177 50.8707C132.417 50.8707 133.727 48.5461 133.727 46.4751V45.9257H133.051C131.276 45.9257 127.514 45.9257 127.514 48.6307C127.514 49.7296 128.402 50.8707 130.177 50.8707Z" fill="white"/>
<path d="M137.87 42.3752C137.87 42.0793 137.701 41.9102 137.405 41.9102H136.517V41.1072H137.531C138.377 41.1072 138.715 41.4453 138.715 42.2484V42.8401C138.715 43.305 138.673 43.6854 138.673 43.6854H138.715C139.053 42.7133 140.49 40.8959 143.068 40.8959C145.773 40.8959 146.492 42.502 146.492 44.9111V50.2365C146.492 50.5324 146.661 50.7014 146.957 50.7014H147.844V51.5045H146.83C145.985 51.5045 145.646 51.1664 145.646 50.3211V45.2915C145.646 43.4741 145.435 41.7834 143.11 41.7834C141.166 41.7834 139.433 43.1359 138.926 45.0801C138.799 45.5028 138.757 46.01 138.757 46.4749V51.5045H137.87V42.3752Z" fill="white"/>
<path d="M154.227 40.8536C155.325 40.8536 157.861 41.3186 157.861 43.0092V43.8122H156.974V43.2205C156.974 42.2061 155.199 41.7412 154.184 41.7412C151.775 41.7412 149.746 43.5586 149.746 46.3481C149.746 49.0954 151.733 50.9128 154.184 50.9128C156.467 50.9128 157.65 49.4335 157.65 49.4335L158.115 50.152C158.115 50.152 156.762 51.7581 154.227 51.7581C151.31 51.7581 148.901 49.6448 148.901 46.3481C148.901 43.0514 151.352 40.8536 154.227 40.8536Z" fill="white"/>
<path d="M164.412 40.8536C167.201 40.8536 168.638 43.0514 168.638 45.5451C168.638 45.7564 168.596 46.0946 168.596 46.0946H160.312C160.312 49.0954 162.341 50.786 164.75 50.786C166.736 50.786 167.962 49.4758 167.962 49.4758L168.427 50.1943C168.427 50.1943 166.99 51.6313 164.75 51.6313C161.834 51.6313 159.425 49.518 159.425 46.2213C159.425 42.7979 161.791 40.8536 164.412 40.8536ZM167.751 45.3338C167.666 42.7978 166.145 41.6567 164.412 41.6567C162.51 41.6567 160.735 42.8824 160.397 45.3338H167.751Z" fill="white"/>
</svg>
