<svg width="206" height="61" viewBox="0 0 206 61" fill="none" xmlns="http://www.w3.org/2000/svg">
<path d="M129.168 20.3162C133.602 19.0786 136.748 15.9332 136.748 10.6737C136.748 4.4345 132.262 0.618774 124.939 0.618774H110.759V32.3821H116.328V5.72359H124.475C128.601 5.72359 131.076 7.52833 131.076 11.0347C131.076 14.2832 128.549 16.3973 124.527 16.3973H119.886L123.393 21.3474L131.179 32.4337H137.779L129.168 20.3162Z" fill="white"/>
<path d="M65.6406 27.2259H76.6238L73.7877 32.3307H60.0717V0.567383H65.6406V27.2259Z" fill="white"/>
<path d="M0 32.3307H5.5689V19.3882H21.6053V14.2834H5.5689V5.62064H23.6678V0.567383H0V32.3307Z" fill="white"/>
<path d="M48.109 18.821C48.109 24.6993 45.0668 27.69 40.1166 27.69C35.115 27.69 32.0727 24.493 32.0727 18.6147V0.567383H26.5038V18.8726C26.5038 28.1025 31.7633 32.8464 40.0135 32.8464C48.3153 32.8464 53.6779 28.1025 53.6779 18.6147V0.567383H48.109V18.821Z" fill="white"/>
<path d="M162.994 18.821C162.994 24.6993 159.951 27.69 155.001 27.69C150 27.69 146.957 24.493 146.957 18.6147V0.567383H141.388V18.8726C141.388 28.1025 146.648 32.8464 154.898 32.8464C163.2 32.8464 168.563 28.1025 168.563 18.6147V0.567383H162.994V18.821Z" fill="white"/>
<path d="M199.862 0.567383L190.219 15.5725L180.525 0.567383H174.595V32.3307H180.113V9.64263L190.013 24.493H191.302L200.223 9.53949V32.3307H205.843V0.567383H199.862Z" fill="white"/>
<path d="M91.6297 0.051567L88.3296 5.98141C89.5671 5.41421 91.0109 5.10483 92.5063 5.10483C96.1157 5.10483 98.8486 6.70331 101.375 9.07524L104.985 4.95013C101.942 2.06256 98.3845 0 92.5578 0C92.2484 0 91.9391 0.051567 91.6297 0.051567Z" fill="white"/>
<path d="M101.633 23.6163C98.9001 26.1429 96.425 27.7414 92.5061 27.7414C86.731 27.7414 82.5027 23.1522 82.0902 17.3771L78.1714 24.4929C80.8527 29.5461 86.0607 32.8978 92.3515 32.8978C98.2813 32.8978 101.942 30.7321 105.242 27.2773L101.633 23.6163Z" fill="white"/>
<path d="M17.0675 43.9328H15.4175V42.9015H22.5849C25.6787 42.9015 27.9475 44.8609 27.9475 48.0579C27.9475 51.2548 25.6787 53.2658 22.5849 53.2658H18.0988V60.5879H17.016V43.9328H17.0675ZM22.5333 52.2346C25.1115 52.2346 26.8131 50.6876 26.8131 48.0579C26.8131 45.4281 25.1115 43.9328 22.5333 43.9328H18.0988V52.2346H22.5333Z" fill="white"/>
<path d="M30.4741 49.5012C30.4741 49.1403 30.2679 48.934 29.9069 48.934H28.8241V47.9543H30.0616C31.0929 47.9543 31.5054 48.3668 31.5054 49.3465V50.2231C31.5054 50.7903 31.4538 51.2544 31.4538 51.2544H31.5054C32.1242 49.295 33.5164 47.8512 35.4758 47.8512C35.8368 47.8512 36.1977 47.9027 36.1977 47.9027V48.9856C36.1977 48.9856 35.8883 48.934 35.6305 48.934C33.6711 48.934 32.4335 50.5841 31.8663 52.4404C31.6085 53.317 31.5054 54.2451 31.5054 55.0701V60.5359H30.4225V49.5012H30.4741Z" fill="white"/>
<path d="M43.1072 47.6448C46.5104 47.6448 48.2636 50.3261 48.2636 53.3684C48.2636 53.6262 48.212 54.0387 48.212 54.0387H38.1055C38.1055 57.6997 40.5806 59.7623 43.5197 59.7623C45.9432 59.7623 47.4386 58.1638 47.4386 58.1638L48.0058 59.0404C48.0058 59.0404 46.2526 60.7936 43.5197 60.7936C39.9618 60.7936 37.0227 58.2154 37.0227 54.1934C36.9711 50.0167 39.8587 47.6448 43.1072 47.6448ZM47.1292 53.1105C47.026 50.0167 45.1697 48.6245 43.0556 48.6245C40.7352 48.6245 38.5696 50.1198 38.1571 53.1105H47.1292Z" fill="white"/>
<path d="M51.4602 49.5013C51.4602 49.1403 51.254 48.9341 50.893 48.9341H49.8102V47.9544H51.0477C52.079 47.9544 52.4915 48.3669 52.4915 49.3466V50.0685C52.4915 50.6357 52.4399 51.0998 52.4399 51.0998H52.4915C53.1103 49.1919 55.3275 47.6965 57.2869 47.6965C59.8136 47.6965 60.9995 48.8825 61.2574 51.0998H61.3089C62.0308 49.1919 63.9387 47.6965 66.1044 47.6965C69.3529 47.6965 70.3326 49.6044 70.3326 52.5951V59.0922C70.3326 59.4531 70.5389 59.6594 70.8998 59.6594H71.9826V60.6391H70.7451C69.7138 60.6391 69.3013 60.2266 69.3013 59.1953V53.0592C69.3013 50.6872 68.8372 48.7278 66.1559 48.7278C64.0418 48.7278 62.2886 50.5841 61.7214 52.5435C61.5667 53.1107 61.4636 53.7295 61.4636 54.503V60.6391H60.3808V53.0076C60.3808 50.8419 60.0714 48.6762 57.2869 48.6762C55.0181 48.6762 53.265 50.6357 52.6978 52.7498C52.5431 53.2654 52.4915 53.8842 52.4915 54.4514V60.5875H51.4087V49.5013H51.4602Z" fill="white"/>
<path d="M74.561 49.501C74.561 49.1401 74.3547 48.9338 73.9938 48.9338H72.9109V47.9541H74.1485C75.1797 47.9541 75.5922 48.3667 75.5922 49.3979V59.0404C75.5922 59.4013 75.7985 59.6076 76.1594 59.6076H77.2423V60.5873H76.0048C74.9735 60.5873 74.561 60.1748 74.561 59.1435V49.501ZM74.4063 42.9009H75.5407V44.7572H74.4063V42.9009Z" fill="white"/>
<path d="M79.7685 49.5011C79.7685 49.1402 79.5623 48.9339 79.2013 48.9339H78.1185V47.9542H79.356C80.3873 47.9542 80.7998 48.3667 80.7998 49.3465V55.5857C80.7998 57.8029 81.0576 59.8655 83.8937 59.8655C87.039 59.8655 89.05 57.081 89.05 54.1419V48.0058H90.1329V59.092C90.1329 59.453 90.3391 59.6592 90.7001 59.6592H91.7829V60.6389H90.5454C89.5141 60.6389 89.1016 60.2264 89.1016 59.2467V58.5248C89.1016 57.9576 89.1532 57.4935 89.1532 57.4935H89.1016C88.6891 58.6795 86.9875 60.8968 83.9452 60.8968C80.8514 60.8968 79.7685 59.1952 79.7685 55.9982V49.5011Z" fill="white"/>
<path d="M94.2586 49.5013C94.2586 49.1403 94.0524 48.9341 93.6914 48.9341H92.6086V47.9544H93.8461C94.8774 47.9544 95.2899 48.3669 95.2899 49.3466V50.0685C95.2899 50.6357 95.2383 51.0998 95.2383 51.0998H95.2899C95.9087 49.1919 98.1259 47.6965 100.085 47.6965C102.612 47.6965 103.798 48.8825 104.056 51.0998H104.107C104.829 49.1919 106.737 47.6965 108.903 47.6965C112.151 47.6965 113.131 49.6044 113.131 52.5951V59.0922C113.131 59.4531 113.337 59.6594 113.698 59.6594H114.781V60.6391H113.544C112.512 60.6391 112.1 60.2266 112.1 59.1953V53.0592C112.1 50.6872 111.636 48.7278 108.954 48.7278C106.84 48.7278 105.087 50.5841 104.52 52.5435C104.365 53.1107 104.262 53.7295 104.262 54.503V60.6391H103.179V53.0076C103.179 50.8419 102.87 48.6762 100.085 48.6762C97.8165 48.6762 96.0634 50.6357 95.4962 52.7498C95.3415 53.2654 95.2899 53.8842 95.2899 54.4514V60.5875H94.2071V49.5013H94.2586Z" fill="white"/>
<path d="M124.268 43.9322H122.618V42.9009H131.694C132.725 42.9009 133.137 43.3134 133.137 44.3447V45.6853H132.055V44.4478C132.055 44.0868 131.848 43.8806 131.487 43.8806H125.3V51.2542H132.055V52.2855H125.3V60.5357H124.268V43.9322Z" fill="white"/>
<path d="M135.768 49.501C135.768 49.1401 135.561 48.9338 135.2 48.9338H134.117V47.9541H135.355C136.386 47.9541 136.799 48.3667 136.799 49.3979V59.0404C136.799 59.4013 137.005 59.6076 137.366 59.6076H138.449V60.5873H137.211C136.18 60.5873 135.768 60.1748 135.768 59.1435V49.501ZM135.613 42.9009H136.747V44.7572H135.613V42.9009Z" fill="white"/>
<path d="M141.027 49.5013C141.027 49.1403 140.821 48.9341 140.46 48.9341H139.377V47.9544H140.615C141.646 47.9544 142.058 48.3669 142.058 49.3466V50.0685C142.058 50.6357 142.007 51.0998 142.007 51.0998H142.058C142.471 49.9138 144.224 47.6965 147.37 47.6965C150.67 47.6965 151.546 49.656 151.546 52.5951V59.0922C151.546 59.4531 151.752 59.6594 152.113 59.6594H153.196V60.6391H151.959C150.927 60.6391 150.515 60.2266 150.515 59.1953V53.0592C150.515 50.8419 150.257 48.7794 147.421 48.7794C145.049 48.7794 142.935 50.4294 142.316 52.8014C142.162 53.317 142.11 53.9358 142.11 54.503V60.6391H141.027V49.5013Z" fill="white"/>
<path d="M162.272 52.9042H163.097V52.7495C163.097 49.7588 162.065 48.6759 159.436 48.6759C158.765 48.6759 156.651 48.8307 156.651 49.9135V50.7901H155.568V49.6557C155.568 48.1603 158.404 47.7478 159.436 47.7478C163.303 47.7478 164.128 49.8619 164.128 52.4917V59.1434C164.128 59.5044 164.334 59.7106 164.695 59.7106H165.778V60.6903H164.54C163.509 60.6903 163.097 60.2778 163.097 59.1434C163.097 58.4731 163.148 58.009 163.148 58.009H163.097C163.097 58.009 162.014 60.9997 158.714 60.9997C156.651 60.9997 154.434 59.8653 154.434 57.3387C154.485 52.9558 160.054 52.9042 162.272 52.9042ZM158.817 59.8653C161.55 59.8653 163.148 57.0293 163.148 54.5027V53.8323H162.323C160.157 53.8323 155.568 53.8323 155.568 57.1324C155.568 58.4731 156.651 59.8653 158.817 59.8653Z" fill="white"/>
<path d="M168.201 49.5013C168.201 49.1403 167.995 48.9341 167.634 48.9341H166.551V47.9544H167.788C168.82 47.9544 169.232 48.3669 169.232 49.3466V50.0685C169.232 50.6357 169.181 51.0998 169.181 51.0998H169.232C169.645 49.9138 171.398 47.6965 174.543 47.6965C177.843 47.6965 178.72 49.656 178.72 52.5951V59.0922C178.72 59.4531 178.926 59.6594 179.287 59.6594H180.37V60.6391H179.133C178.101 60.6391 177.689 60.2266 177.689 59.1953V53.0592C177.689 50.8419 177.431 48.7794 174.595 48.7794C172.223 48.7794 170.109 50.4294 169.49 52.8014C169.335 53.317 169.284 53.9358 169.284 54.503V60.6391H168.201V49.5013Z" fill="white"/>
<path d="M188.156 47.6448C189.496 47.6448 192.59 48.212 192.59 50.2745V51.2542H191.507V50.5324C191.507 49.2948 189.342 48.7276 188.104 48.7276C185.165 48.7276 182.69 50.9449 182.69 54.3481C182.69 57.6997 185.114 59.917 188.104 59.917C190.889 59.917 192.332 58.1123 192.332 58.1123L192.9 58.9888C192.9 58.9888 191.25 60.9483 188.156 60.9483C184.598 60.9483 181.659 58.3701 181.659 54.3481C181.659 50.3261 184.649 47.6448 188.156 47.6448Z" fill="white"/>
<path d="M200.583 47.6448C203.986 47.6448 205.739 50.3261 205.739 53.3684C205.739 53.6262 205.688 54.0387 205.688 54.0387H195.581C195.581 57.6997 198.056 59.7623 200.995 59.7623C203.419 59.7623 204.914 58.1638 204.914 58.1638L205.481 59.0404C205.481 59.0404 203.728 60.7936 200.995 60.7936C197.437 60.7936 194.498 58.2154 194.498 54.1934C194.498 50.0167 197.386 47.6448 200.583 47.6448ZM204.656 53.1105C204.553 50.0167 202.697 48.6245 200.583 48.6245C198.262 48.6245 196.097 50.1198 195.684 53.1105H204.656Z" fill="white"/>
</svg>
