<svg width="136" height="133" viewBox="0 0 136 133" fill="none" xmlns="http://www.w3.org/2000/svg">
<path d="M0 66.5C0 29.7731 29.7731 0 66.5 0H69.5C106.227 0 136 29.7731 136 66.5C136 103.227 106.227 133 69.5 133H66.5C29.7731 133 0 103.227 0 66.5Z" fill="#FFFEFE"/>
<path d="M0 66.5C0 29.7731 29.7731 0 66.5 0H69.5C106.227 0 136 29.7731 136 66.5C136 103.227 106.227 133 69.5 133H66.5C29.7731 133 0 103.227 0 66.5Z" fill="url(#paint0_radial)"/>
<path d="M35.9 98.6H43.1V91.4H35.9V98.6ZM38.3 93.8H40.7V96.2H38.3V93.8Z" fill="#093C3D"/>
<path d="M45.4 98.6H52.6V91.4H45.4V98.6ZM47.8 93.8H50.2V96.2H47.8V93.8Z" fill="#093C3D"/>
<path d="M55 98.6H62.2V91.4H55V98.6ZM57.4 93.8H59.8V96.2H57.4V93.8Z" fill="#093C3D"/>
<path d="M35.9 89H43.1V81.8H35.9V89ZM38.3 84.2H40.7V86.6H38.3V84.2Z" fill="#093C3D"/>
<path d="M45.4 89H52.6V81.8H45.4V89ZM47.8 84.2H50.2V86.6H47.8V84.2Z" fill="#093C3D"/>
<path d="M55 89H62.2V81.8H55V89ZM57.4 84.2H59.8V86.6H57.4V84.2Z" fill="#093C3D"/>
<path d="M35.9 79.4H43.1V72.2H35.9V79.4ZM38.3 74.6H40.7V77H38.3V74.6Z" fill="#093C3D"/>
<path d="M45.4 79.4H52.6V72.2H45.4V79.4ZM47.8 74.6H50.2V77H47.8V74.6Z" fill="#093C3D"/>
<path d="M55 79.4H62.2V72.2H55V79.4ZM57.4 74.6H59.8V77H57.4V74.6Z" fill="#093C3D"/>
<path d="M49 55.4C48.3 55.4 47.8 54.9 47.8 54.2H45.4C45.4 55.8 46.4 57.1 47.8 57.6V60.2H50.2V57.8H52.6V54.2C52.6 52.2 51 50.6 49 50.6C48.3 50.6 47.8 50.1 47.8 49.4V48.2H49C49.7 48.2 50.2 48.7 50.2 49.4H52.6C52.6 47.8 51.6 46.5 50.2 46V43.4H47.8V45.8H45.4V49.4C45.4 51.4 47 53 49 53C49.7 53 50.2 53.5 50.2 54.2V55.4H49Z" fill="#007E8C"/>
<path d="M41.9 53C42.5627 53 43.1 52.4627 43.1 51.8C43.1 51.1372 42.5627 50.6 41.9 50.6C41.2372 50.6 40.7 51.1372 40.7 51.8C40.7 52.4627 41.2372 53 41.9 53Z" fill="#007E8C"/>
<path d="M56.2 53C56.8627 53 57.4 52.4627 57.4 51.8C57.4 51.1372 56.8627 50.6 56.2 50.6C55.5373 50.6 55 51.1372 55 51.8C55 52.4627 55.5373 53 56.2 53Z" fill="#007E8C"/>
<path d="M104.4 84L101.2 80.8C101.1 80.7 101 80.5 100.9 80.4C99.9 79.4 98.3 79.2 96.3 79.7C95.3 77.2 93.3 74.5 91.1 72.2C86.6 67.7 80.4 64.5 77.7 67.2C77.6 67.3 77.5 67.5 77.4 67.6L74.1 70.8C71.8 73.1 73.7 77.7 77 81.8C73.2 81.9 69.5 82.7 67.1 84.2V56.6C67.1 53.7 65 51.3 62.2 50.7C61.6 43.9 56 38.6 49.1 38.6C42.2 38.6 36.5 43.9 35.9 50.7C33.1 51.2 31 53.7 31 56.6V97.4C31 100.7 33.7 103.4 37 103.4H61C63.2 103.4 65.2 102.2 66.2 100.4C68.6 102.4 73.3 103.4 77.8 103.4C80.7 103.4 83.6 103 85.8 102.2L86 102.4C86.7 103.1 87.6 103.4 88.6 103.4C91.7 103.4 96 100.7 99.3 97.4C103.9 92.9 107.1 86.7 104.4 84ZM102 89.9L100.2 88.1C100.9 86.9 101.4 85.7 101.6 84.6L102.7 85.7C103.3 86.2 103.1 87.8 102 89.9ZM94.9 94.6L96.8 96.5C95.8 97.4 94.9 98.1 94 98.7L92.1 96.8C93.1 96.2 94.1 95.4 94.9 94.6ZM96.6 92.9C97.4 92 98.2 91.1 98.8 90.1L100.7 92C100.1 92.9 99.4 93.8 98.5 94.8L96.6 92.9ZM99.1 82.1C100.1 83.1 98.7 87.5 94.1 92.1C89.5 96.7 85.1 98.1 84.1 97.1C83.3 96.3 84 93.4 86.9 89.6C87.9 90 88.9 90.2 89.7 90.2C90.8 90.2 91.7 89.9 92.4 89.2L95.2 86.2C95.5 86.1 95.7 85.9 95.9 85.7C96.8 84.8 97 83.5 96.8 82.1C98 81.7 98.8 81.7 99.1 82.1ZM81.4 95.9C80.6 96 79.8 96.1 79 96.1V93.7C80 93.7 81 93.6 81.9 93.4C81.6 94.4 81.5 95.2 81.4 95.9ZM67 91.3C67.7 91.7 68.5 92.1 69.4 92.4V94.6C67.9 93.9 67 93.1 67 92.5V91.3ZM71.8 93.1C73.3 93.4 75 93.6 76.6 93.7V96.1C74.8 96 73.2 95.8 71.8 95.4V93.1ZM76.6 98.6V100.9C74.8 100.8 73.2 100.6 71.8 100.2V97.9C73.4 98.3 75 98.5 76.6 98.6ZM81.8 79.7L79.9 81.6C79 80.6 78.3 79.7 77.7 78.8L79.6 76.9C80.2 77.9 81 78.8 81.8 79.7ZM83.5 81.4C84.4 82.2 85.3 83 86.2 83.6L84.3 85.5C83.4 84.9 82.5 84.2 81.5 83.3L83.5 81.4ZM86.5 86.8L88.3 84.9C89.5 85.6 90.7 86 91.8 86.3L90.7 87.5C90.2 88 88.6 87.9 86.5 86.8ZM79.3 68.9C79.5 68.7 79.8 68.6 80.3 68.6C82.1 68.6 85.6 70.3 89.3 73.9C93.9 78.5 95.3 82.9 94.3 83.9C93.3 84.9 88.9 83.5 84.3 78.9C79.8 74.3 78.3 69.9 79.3 68.9ZM75.7 72.5L76.8 71.4C77.1 72.5 77.6 73.7 78.2 74.9L76.4 76.7C75.4 74.6 75.2 73 75.7 72.5ZM77.8 84.2C78.2 84.2 78.6 84.2 79.1 84.2C80.8 85.9 82.8 87.4 84.7 88.5C84.1 89.3 83.6 90.1 83.1 90.8C81.5 91.1 79.6 91.3 77.8 91.3C71.2 91.3 67 89.2 67 87.7C67 86.2 71.2 84.2 77.8 84.2ZM38.3 59.4C40.7 62.8 44.6 65 49.1 65C53.6 65 57.5 62.8 59.9 59.4V67.4H38.3V59.4ZM49 41C55 41 59.8 45.8 59.8 51.8C59.8 57.8 55 62.6 49 62.6C43 62.6 38.2 57.8 38.2 51.8C38.2 45.8 43.1 41 49 41ZM61 101H37C35 101 33.4 99.4 33.4 97.4V56.6C33.4 55 34.4 53.7 35.8 53.2V69.8H62.2V53.2C63.6 53.7 64.6 55 64.6 56.6V87.8V92.6V97.4C64.6 99.4 63 101 61 101ZM67 97.4V96.2C67.7 96.6 68.5 97 69.4 97.3V99.5C67.9 98.8 67 98 67 97.4ZM79 100.9V98.5C80 98.5 81 98.4 82 98.2C82.1 98.4 82.3 98.6 82.4 98.7C82.6 98.9 82.9 99.1 83.1 99.2L84 100.1C82.5 100.6 80.8 100.9 79 100.9ZM87.8 100.7L86.7 99.5C87.8 99.2 89 98.8 90.2 98.1L92 100C89.9 101.1 88.3 101.3 87.8 100.7Z" fill="#093C3D"/>
<path d="M101.8 36.2H99.4V38.6H101.8V36.2Z" fill="#093C3D"/>
<path d="M105.2 55.4H101.8V41H99.4V57.8H100.9L97 63.9L93.2 57.8H94.6V29H92.2V55.4H88.9L97 68.5L105.2 55.4Z" fill="#093C3D"/>
<path d="M101.8 31.4H99.4V33.8H101.8V31.4Z" fill="#093C3D"/>
<path d="M77.8 55.4H75.4V57.8H77.8V55.4Z" fill="#093C3D"/>
<path d="M75.4 53H77.8V41H76.4L80.2 34.9L84.1 41H82.6V65H85V43.4H88.4L80.2 30.3L72.1 43.4H75.4V53Z" fill="#093C3D"/>
<path d="M77.8 60.2H75.4V62.6H77.8V60.2Z" fill="#093C3D"/>
<defs>
<radialGradient id="paint0_radial" cx="0" cy="0" r="1" gradientUnits="userSpaceOnUse" gradientTransform="translate(68 66.5) rotate(90) scale(66.5 68)">
<stop stop-color="#E6E88F"/>
<stop offset="0.15625" stop-color="#F2E747"/>
<stop offset="1" stop-color="#D9E409"/>
</radialGradient>
</defs>
</svg>
