<svg width="136" height="133" viewBox="0 0 136 133" fill="none" xmlns="http://www.w3.org/2000/svg">
<path d="M0 66.5C0 29.7731 29.7731 0 66.5 0H69.5C106.227 0 136 29.7731 136 66.5C136 103.227 106.227 133 69.5 133H66.5C29.7731 133 0 103.227 0 66.5Z" fill="#FFFEFE"/>
<path d="M0 66.5C0 29.7731 29.7731 0 66.5 0H69.5C106.227 0 136 29.7731 136 66.5C136 103.227 106.227 133 69.5 133H66.5C29.7731 133 0 103.227 0 66.5Z" fill="url(#paint0_radial)"/>
<path d="M92.5 40.1C93.3 40.1 93.9 39.5 93.9 38.7V30.2C93.9 29.4 93.3 28.8 92.5 28.8H74V27.4C74 26.6 73.4 26 72.6 26H64.1C63.7 26 63.4 26.1 63.1 26.4L57.4 32.1C57.1 32.4 57 32.7 57 33.1V73.3C47.1 78 42.9 89.8 47.6 99.8C52.3 109.8 64.1 113.9 74.1 109.2C84 104.5 88.2 92.7 83.5 82.7C81.5 78.6 78.2 75.2 74.1 73.3V60H92.5C93.3 60 93.9 59.4 93.9 58.6V50.1C93.9 49.3 93.3 48.7 92.5 48.7H74V40.1H92.5ZM91 31.6V37.3H74V31.6H91ZM82.5 91.2C82.5 100.6 74.9 108.2 65.5 108.2C56.1 108.2 48.5 100.6 48.5 91.2C48.5 81.8 56.1 74.2 65.5 74.2C74.9 74.2 82.5 81.8 82.5 91.2ZM65.5 71.3C63.6 71.3 61.7 71.6 59.8 72.1V33.6L64.6 28.8H71.1V72.2C69.3 71.6 67.4 71.3 65.5 71.3ZM91 51.5V57.2H74V51.5H91Z" fill="#093C3D"/>
<path d="M51.3 91.2C51.3 99 57.7 105.4 65.5 105.4C73.3 105.4 79.7 99 79.7 91.2C79.7 83.4 73.3 77 65.5 77C57.7 77 51.3 83.4 51.3 91.2ZM76.9 91.2C76.9 97.5 71.8 102.5 65.6 102.5C59.4 102.5 54.3 97.4 54.3 91.2C54.3 84.9 59.4 79.9 65.6 79.9C71.8 79.9 76.8 84.9 76.9 91.2Z" fill="#007E8C"/>
<path d="M64.1 82.7V84.1H63.9C61.7 84.1 59.9 85.9 59.9 88.2V88.6C59.9 90.8 61.7 92.7 63.9 92.7H65.7C66.4 92.7 66.9 93.3 66.9 93.9V94.3C66.9 95 66.4 95.5 65.7 95.5H61.3C60.5 95.5 59.9 96.1 59.9 96.9C59.9 97.7 60.5 98.3 61.3 98.3H64.1V99.7C64.1 100.5 64.7 101.1 65.5 101.1C66.3 101.1 66.9 100.5 66.9 99.7V98.1C68.6 97.6 69.7 96 69.7 94.2V93.8C69.7 91.6 67.9 89.7 65.7 89.7H63.8C63.1 89.7 62.6 89.1 62.6 88.5V88.1C62.6 87.4 63.1 86.9 63.8 86.9H69.7C70.5 86.9 71.1 86.3 71.1 85.5C71.1 84.7 70.5 84.1 69.8 84.1H67V82.7C67 81.9 66.4 81.3 65.6 81.3C64.8 81.3 64.1 81.9 64.1 82.7Z" fill="#007E8C"/>
<path d="M41.4 38.7C40.6 38.7 40 39.3 40 40.1C40 40.9 40.6 41.5 41.4 41.5C43.8 41.5 45.7 43.4 45.7 45.8C45.7 46.6 46.3 47.2 47.1 47.2C47.9 47.2 48.5 46.6 48.5 45.8C48.5 43.4 50.4 41.5 52.8 41.5C53.6 41.5 54.2 40.9 54.2 40.1C54.2 39.3 53.6 38.7 52.8 38.7C50.4 38.7 48.5 36.8 48.5 34.4C48.5 33.6 47.9 33 47.1 33C46.3 33 45.7 33.6 45.7 34.4C45.6 36.8 43.7 38.7 41.4 38.7ZM47.1 38.7C47.5 39.2 48 39.7 48.5 40.1C48 40.5 47.5 41 47.1 41.5C46.7 41 46.2 40.5 45.7 40.1C46.2 39.7 46.7 39.3 47.1 38.7Z" fill="#093C3D"/>
<path d="M66.9 31.6C66.1 31.6 65.5 32.2 65.5 33V35.8C65.5 36.6 66.1 37.2 66.9 37.2C67.7 37.2 68.3 36.6 68.3 35.8V33C68.3 32.3 67.7 31.6 66.9 31.6Z" fill="#093C3D"/>
<path d="M66.9 40.1C66.1 40.1 65.5 40.7 65.5 41.5V58.5C65.5 59.3 66.1 59.9 66.9 59.9C67.7 59.9 68.3 59.3 68.3 58.5V41.5C68.3 40.8 67.7 40.1 66.9 40.1Z" fill="#093C3D"/>
<defs>
<radialGradient id="paint0_radial" cx="0" cy="0" r="1" gradientUnits="userSpaceOnUse" gradientTransform="translate(68 66.5) rotate(90) scale(66.5 68)">
<stop stop-color="#E6E88F"/>
<stop offset="0.15625" stop-color="#F2E747"/>
<stop offset="1" stop-color="#D9E409"/>
</radialGradient>
</defs>
</svg>
