<svg width="136" height="133" viewBox="0 0 136 133" fill="none" xmlns="http://www.w3.org/2000/svg">
<path d="M0 66.5C0 29.7731 29.7731 0 66.5 0H69.5C106.227 0 136 29.7731 136 66.5C136 103.227 106.227 133 69.5 133H66.5C29.7731 133 0 103.227 0 66.5Z" fill="#FFFEFE"/>
<path d="M0 66.5C0 29.7731 29.7731 0 66.5 0H69.5C106.227 0 136 29.7731 136 66.5C136 103.227 106.227 133 69.5 133H66.5C29.7731 133 0 103.227 0 66.5Z" fill="url(#paint0_radial)"/>
<path d="M89.9555 82.3L80.4555 78.7C78.8555 78.1 77.1555 78.6 75.8555 79.7L62.1555 93.4L38.2555 80.5C36.9555 79.8 35.3555 79.8 33.9555 80.6C32.6555 81.2 31.9555 82.6 31.9555 84.2V86.4C31.9555 88 32.8555 89.4 34.1555 90.2L66.5555 109C67.2555 109.4 67.9555 109.6 68.7555 109.6C69.1555 109.6 69.6555 109.5 70.1555 109.3L90.0555 102.5H102.755V82.3H89.9555ZM68.9555 106.6C68.5555 106.7 68.0555 106.7 67.7555 106.5L35.3555 87.7C34.9555 87.4 34.6555 87 34.6555 86.4V84.2C34.6555 83.5 35.0555 83 35.3555 82.9C35.4555 82.8 35.7555 82.8 36.0555 82.8C36.1555 82.8 36.4555 82.8 36.7555 82.9L68.1555 99.8L78.9555 92L77.2555 89.7L67.8555 96.3L64.6555 94.6L77.6555 81.6C78.0555 81.2 78.6555 81 79.2555 81.3L88.0555 84.6V99.9L68.9555 106.6ZM99.7555 99.7H91.0555V85.2H99.7555V99.7Z" fill="#007E8C"/>
<path d="M96.8555 88.1H93.9555V93.9H96.8555V88.1Z" fill="#093C3D"/>
<path d="M59.2555 66.4V65C59.2555 63.4 57.9555 62.1 56.3555 62.1V60.7H53.4555V62.1C51.8555 62.1 50.5555 63.4 50.5555 65V67.9C50.5555 69.5 51.8555 70.8 53.4555 70.8H56.3555V73.7H53.4555V72.3H50.5555V73.7C50.5555 75.3 51.8555 76.6 53.4555 76.6V78H56.3555V76.6C57.9555 76.6 59.2555 75.3 59.2555 73.7V70.8C59.2555 69.2 57.9555 67.9 56.3555 67.9H53.4555V65H56.3555V66.4H59.2555Z" fill="#093C3D"/>
<path d="M68.8555 60.9L59.5555 44.7L65.0555 36.5V33.2H44.8555V36.5L50.3555 44.7L41.0555 60.9C39.7555 63.4 39.0555 66 39.0555 68.9V69.3C39.0555 78.1 46.1555 85.2 54.9555 85.2C63.7555 85.2 70.8555 78.1 70.8555 69.3V68.9C70.8555 66 70.1555 63.4 68.8555 60.9ZM48.0555 36.1H61.9555L57.1555 43.3H52.9555L48.0555 36.1ZM67.9555 69.3C67.9555 76.5 62.1555 82.3 54.9555 82.3C47.7555 82.3 41.9555 76.5 41.9555 69.3V68.9C41.9555 66.6 42.5555 64.4 43.6555 62.4L52.9555 46.2H53.5555V56.3H56.4555V46.2H56.9555L66.2555 62.4C67.4555 64.4 67.9555 66.6 67.9555 68.9V69.3Z" fill="#093C3D"/>
<path d="M85.4555 64.8L78.2555 50.6L82.5555 45.3V41.8H66.5555V45.1L70.5555 50.6L68.0555 55.5L70.6555 56.8L73.1555 51.9H73.7555V60.6H76.6555V54L82.8555 66.1C83.5555 67.4 83.8555 68.8 83.8555 70.4V71.4C83.8555 73 83.4555 74.4 82.8555 75.7L85.4555 77C86.3555 75.3 86.8555 73.2 86.8555 71.2V70.2C86.7555 68.6 86.3555 66.6 85.4555 64.8ZM69.7555 44.7H79.1555L75.6555 49H72.9555L69.7555 44.7Z" fill="#093C3D"/>
<path d="M79.5555 72.2H76.6555V75.1H79.5555V72.2Z" fill="#093C3D"/>
<path d="M76.6555 67.9H73.7555V70.8H76.6555V67.9Z" fill="#093C3D"/>
<path d="M72.3555 23V25.9H77.5555L68.4555 35L70.4555 37.1L79.5555 28V33.2H82.4555V23H72.3555Z" fill="#093C3D"/>
<path d="M35.2831 68.1576L28 75.4407L30.0506 77.4913L37.3337 70.2082L35.2831 68.1576Z" fill="#093C3D"/>
<defs>
<radialGradient id="paint0_radial" cx="0" cy="0" r="1" gradientUnits="userSpaceOnUse" gradientTransform="translate(68 66.5) rotate(90) scale(66.5 68)">
<stop stop-color="#E6E88F"/>
<stop offset="0.15625" stop-color="#F2E747"/>
<stop offset="1" stop-color="#D9E409"/>
</radialGradient>
</defs>
</svg>
