<svg width="136" height="133" viewBox="0 0 136 133" fill="none" xmlns="http://www.w3.org/2000/svg">
<path d="M0 66.5C0 29.7731 29.7731 0 66.5 0H69.5C106.227 0 136 29.7731 136 66.5C136 103.227 106.227 133 69.5 133H66.5C29.7731 133 0 103.227 0 66.5Z" fill="#FFFEFE"/>
<path d="M0 66.5C0 29.7731 29.7731 0 66.5 0H69.5C106.227 0 136 29.7731 136 66.5C136 103.227 106.227 133 69.5 133H66.5C29.7731 133 0 103.227 0 66.5Z" fill="url(#paint0_radial)"/>
<path d="M106.3 71.45V74.45C106.3 77.35 104 79.65 101.1 79.65H100.7C100.8 78.95 100.8 78.25 100.8 77.55C100.8 74.15 99.8 70.95 97.9 67.95L95.6 69.45C97.2 72.05 98 74.85 98 77.65C98 84.45 93 90.95 84.7 94.95C84.1 95.25 83.8 95.95 84 96.65L87.7 107.15H78.3L75.5 99.15C75.3 98.55 74.6 98.15 74 98.25C69 99.05 63.9 99.05 58.9 98.25C58.2 98.15 57.6 98.55 57.4 99.15L54.6 107.15H45.2L48.9 96.65C49.1 95.95 48.8 95.25 48.2 94.95C44 92.95 40.6 90.25 38.3 87.15C38 86.85 37.6 86.55 37.2 86.55H34.4L29.5 77.65V72.85H34.9C35.5 72.85 36 72.55 36.2 72.05C37.4 69.15 39.4 66.55 42.3 64.15C42.7 63.85 42.9 63.35 42.8 62.85L42.3 59.65C41.8 56.65 42.7 53.55 44.8 51.35L53.2 57.85C53.5 58.15 54 58.25 54.4 58.05C58.3 56.95 62.4 56.35 66.7 56.35V53.65C62.4 53.65 58.3 54.15 54.3 55.25L45.6 48.45C45.1 48.05 44.4 48.05 43.9 48.45C40.6 51.25 39 55.75 39.7 60.05L40.1 62.45C37.5 64.75 35.5 67.25 34.2 70.05H28.4C27.6 70.05 27 70.65 27 71.45V77.95C27 78.15 27.1 78.45 27.2 78.65L32.7 88.55C32.9 88.95 33.4 89.25 33.9 89.25H36.8C39.1 92.15 42.4 94.75 46.2 96.85L41.9 108.05C41.8 108.45 41.8 108.95 42.1 109.25C42.4 109.65 42.8 109.85 43.2 109.85H55.5C56.1 109.85 56.6 109.45 56.8 108.95L59.6 101.15C64.1 101.75 68.8 101.75 73.3 101.15L76 108.95C76.2 109.45 76.7001 109.85 77.3 109.85H89.6C90 109.85 90.5 109.65 90.7 109.25C91 108.85 91 108.45 90.9 108.05L87 96.85C93.8 93.35 98.4 88.15 100 82.45H101C105.4 82.45 109 78.85 109 74.45V71.45H106.3Z" fill="#093C3D"/>
<path d="M57.9 83.85L55.8 85.55C58.4 88.75 62.3 90.55 66.4 90.55H66.5C70.2 90.55 73.6 89.05 76.1 86.55C78.7 83.95 80.1 80.55 80.1 76.95C80.1 69.45 73.9 63.45 66.4 63.45H66.3C62.6 63.45 59.2 64.95 56.7 67.45C54.1 70.05 52.7 73.45 52.7 77.05C52.7 79.15 53.2 81.05 54.1 82.95L56.6 81.75C55.9 80.25 55.5 78.75 55.5 77.05C55.5 74.15 56.6 71.45 58.7 69.35C60.8 67.25 63.5 66.15 66.4 66.15H66.5C72.5 66.15 77.4 70.95 77.4 76.95C77.4 79.85 76.3 82.55 74.2 84.65C72.1 86.75 69.4 87.85 66.5 87.85C63.2 87.85 60 86.45 57.9 83.85Z" fill="#093C3D"/>
<path d="M61.8 70.95C61.3 71.45 61 72.15 61 72.85V75.55C61 76.25 61.3 76.95 61.8 77.45C62.3 77.95 63 78.25 63.7 78.25H69.2V81.05H62.3V83.75H65V85.15H67.7V83.75H69.1C70.6 83.75 71.8 82.55 71.8 80.95V78.15C71.8 76.65 70.6 75.45 69.1 75.45H63.6V72.75H70.5V70.05H67.8V68.65H65.1V70.05H63.7C63 70.15 62.3 70.45 61.8 70.95Z" fill="#093C3D"/>
<path d="M43.2 72.85V74.25H45.9V72.85C45.9 72.05 46.5 71.45 47.3 71.45H48.7V68.75H47.3C45 68.75 43.2 70.55 43.2 72.85Z" fill="#093C3D"/>
<path d="M67 45.05C68.5 53.55 73.1 61.15 80 66.45L86.2 71.15C86.4 71.35 86.7 71.45 87 71.45C87.3 71.45 87.6 71.35 87.8 71.15L93.9 66.65C100.9 61.45 105.6 53.75 107.1 45.15L109 34.65C109.1 34.05 108.8 33.45 108.3 33.15L87.7 22.15C87.3 21.95 86.8 21.95 86.4 22.15L65.8 33.15C65.3 33.45 65 34.05 65.1 34.65L67 45.05ZM87.1 24.95L106.2 35.15L104.5 44.65C103.1 52.55 98.8 59.55 92.4 64.45L87.2 68.35L81.8 64.25C75.5 59.45 71.2 52.45 69.8 44.65L68.1 35.15L87.1 24.95Z" fill="#007E8C"/>
<path d="M72 45.45C73.1 51.75 76.6 57.45 81.7 61.35L86.3 64.85C86.5 65.05 86.8 65.15 87.1 65.15C87.4 65.15 87.7 65.05 87.9 64.85L92.3 61.55C97.5 57.65 101 51.95 102.1 45.55L103.5 37.85C103.6 37.25 103.3 36.65 102.8 36.35L95.9 32.65L94.6 35.05L100.6 38.25L99.4 44.95C98.4 50.65 95.3 55.75 90.6 59.25L87 61.95L83.3 59.15C78.7 55.65 75.6 50.65 74.6 44.95L73.4 38.25L79.4 35.05L78.1 32.65L71.2 36.35C70.7 36.65 70.4 37.25 70.5 37.85L72 45.45Z" fill="#007E8C"/>
<path d="M87.1 31.05L91.9 33.65L93.2 31.25L87.7 28.35C87.3 28.15 86.8 28.15 86.4 28.35L80.9 31.25L82.2 33.65L87.1 31.05Z" fill="#007E8C"/>
<path d="M85.6 52.25C85.7 52.25 85.7 52.25 85.6 52.25C86 52.25 86.4 52.05 86.7 51.75L96.3 40.75L94.2 38.95L85.7 48.65L82.6 44.55L80.4 46.15L84.5 51.65C84.8 52.05 85.2 52.25 85.6 52.25Z" fill="#007E8C"/>
<path d="M88.4 35.75H85.7V38.45H88.4V35.75Z" fill="#093C3D"/>
<path d="M88.4 54.95H85.7V57.65H88.4V54.95Z" fill="#093C3D"/>
<defs>
<radialGradient id="paint0_radial" cx="0" cy="0" r="1" gradientUnits="userSpaceOnUse" gradientTransform="translate(68 66.5) rotate(90) scale(66.5 68)">
<stop stop-color="#E6E88F"/>
<stop offset="0.15625" stop-color="#F2E747"/>
<stop offset="1" stop-color="#D9E409"/>
</radialGradient>
</defs>
</svg>
