<svg width="136" height="133" viewBox="0 0 136 133" fill="none" xmlns="http://www.w3.org/2000/svg">
<path d="M0 66.5C0 29.7731 29.7731 0 66.5 0H69.5C106.227 0 136 29.7731 136 66.5C136 103.227 106.227 133 69.5 133H66.5C29.7731 133 0 103.227 0 66.5Z" fill="#FFFEFE"/>
<path d="M0 66.5C0 29.7731 29.7731 0 66.5 0H69.5C106.227 0 136 29.7731 136 66.5C136 103.227 106.227 133 69.5 133H66.5C29.7731 133 0 103.227 0 66.5Z" fill="url(#paint0_radial)"/>
<path d="M110.9 103.8L101.7 94.6C105.2 89.9 104.3 83.2 99.5 79.7C94.8 76.2 88.0999 77.1 84.5999 81.9C81.0999 86.6 82 93.3 86.8 96.8C90.6 99.6 95.7999 99.6 99.5999 96.8L108.8 106C109.4 106.6 110.4 106.6 111 106C111.5 105.4 111.5 104.4 110.9 103.8ZM87.8 93.7C84.8 90.7 84.8 85.8 87.8 82.8C90.8 79.8 95.6999 79.8 98.6999 82.8C101.7 85.8 101.7 90.7 98.6999 93.7C95.7999 96.7 91 96.8 88 93.8C87.9 93.8 87.9 93.7 87.8 93.7Z" fill="#093C3D"/>
<path d="M28.5 61.3C29.3 61.3 30 60.6 30 59.8V42.6C30 40.6 31.6 39 33.6 39H96.5C98.4 39 100 40.5 100.1 42.5V76.9C100.1 77.7 100.8 78.4 101.6 78.4C102.4 78.4 103.1 77.7 103.1 76.9V42.6C103.1 39 100.2 36 96.5 36H33.6C30 36 27 38.9 27 42.6V59.8C27 60.6 27.7 61.3 28.5 61.3Z" fill="#093C3D"/>
<path d="M28.5 67.6C29.3 67.6 30 66.9 30 66.1V64.3C30 63.5 29.3 62.8 28.5 62.8C27.7 62.8 27 63.5 27 64.3V66.1C27 66.9 27.7 67.6 28.5 67.6Z" fill="#093C3D"/>
<path d="M73.3 94.9H33.6C31.7 94.9 30.1 93.4 30 91.4V70.5C30 69.7 29.3 69 28.5 69C27.7 69 27 69.7 27 70.5V91.4C27 95 29.9 98 33.6 98H73.3C74.2 98 74.8 97.3 74.8 96.5C74.8 95.6 74.1 94.9 73.3 94.9Z" fill="#093C3D"/>
<path d="M80.5 94.9H78.1C77.3 94.9 76.6 95.6 76.6 96.4C76.6 97.2 77.3 97.9 78.1 97.9H80.6C81.4 97.9 82.1 97.2 82.1 96.4C82.1 95.6 81.3 94.9 80.5 94.9Z" fill="#093C3D"/>
<path d="M93.1 74.6C93.9 74.6 94.6 73.9 94.6 73.1V52.5C94.6 51.7 93.9 51 93.1 51H78.1C77.3 51 76.6 51.7 76.6 52.5C76.6 53.3 77.3 54 78.1 54H91.6V73.1C91.6 73.9 92.2 74.6 93.1 74.6Z" fill="#093C3D"/>
<path d="M74.6 52.5C74.6 51.7 73.9 51 73.1 51H35.8C35 51 34.3 51.7 34.3 52.5V88.7C34.3 89.5 35 90.2 35.8 90.2H78.1C78.9 90.2 79.6 89.5 79.6 88.7C79.6 87.9 78.9 87.2 78.1 87.2H37.3V54.1H73.1C73.9 54.1 74.6 53.4 74.6 52.5Z" fill="#093C3D"/>
<path d="M40.8 47.6C42.1807 47.6 43.3 46.4807 43.3 45.1C43.3 43.7193 42.1807 42.6 40.8 42.6C39.4193 42.6 38.3 43.7193 38.3 45.1C38.3 46.4807 39.4193 47.6 40.8 47.6Z" fill="#093C3D"/>
<path d="M48.5 47.6C49.8807 47.6 51 46.4807 51 45.1C51 43.7193 49.8807 42.6 48.5 42.6C47.1193 42.6 46 43.7193 46 45.1C46 46.4807 47.1193 47.6 48.5 47.6Z" fill="#093C3D"/>
<path d="M56.2 47.6C57.5807 47.6 58.7 46.4807 58.7 45.1C58.7 43.7193 57.5807 42.6 56.2 42.6C54.8192 42.6 53.7 43.7193 53.7 45.1C53.7 46.4807 54.8192 47.6 56.2 47.6Z" fill="#093C3D"/>
<path d="M44.3 81.1L43.2 81.8C42.5 82.2 42.2 83.1 42.6 83.8C42.9 84.3 43.4 84.6 43.9 84.6L44.6 84.4L45.7 83.7C46.4 83.3 46.7 82.4 46.3 81.6C45.9 80.8 45 80.7 44.3 81.1Z" fill="#007E8C"/>
<path d="M86 66.8C86.2 66.5 86.1 66.1 85.8 65.9C85.7 65.8 85.6 65.8 85.5 65.8L79.8 65.4C79.4 65.4 79.1 65.6 79.1 66C79.1 66.1 79.1 66.2 79.2 66.3L79.9 67.6L65.8 75.6L65.1 71.3C65 70.5 64.2 69.9 63.4 70.1C63.2 70.1 63 70.2 62.9 70.3L47.5 79.3C46.8 79.7 46.5 80.6 46.9 81.3C47.2 81.8 47.7 82.1 48.2 82.1L48.9 81.9L62.3 74L63 78.3C63.1 79.1 63.9 79.7 64.7 79.5C64.9 79.5 65.1 79.4 65.2 79.3L81 70.3L81.6 71.4C81.8 71.7 82.2 71.9 82.5 71.7C82.6 71.7 82.7 71.6 82.7 71.5L86 66.8Z" fill="#007E8C"/>
<path d="M48.6 61.5C49.4 61.4 50.1 62 50.3 62.8C50.3 63.6 51 64.3 51.8 64.3C52.6 64.3 53.3 63.6 53.3 62.8C53.3 60.9 52 59.2 50.1 58.7V57.7C50.1 56.9 49.4 56.2 48.6 56.2C47.8 56.2 47.1 56.9 47.1 57.7V58.7C45.3 59.2 44 60.9 43.9 62.8C44 65.3 46.1 67.3 48.6 67.2C49.4 67 50.1 67.4 50.3 68.2C50.5 69 50.1 69.7 49.3 69.9C49.1 70 48.8 70 48.6 69.9C47.8 70 47.1 69.4 46.9 68.6C46.9 67.8 46.2 67.1 45.4 67.1C44.6 67.1 43.9 67.8 43.9 68.6C43.9 70.5 45.2 72.2 47.1 72.7V73.7C47.1 74.5 47.8 75.2 48.6 75.2C49.4 75.2 50.1 74.5 50.1 73.7V72.6C51.9 72.1 53.2 70.4 53.3 68.5C53.2 66 51.1 64 48.6 64.1C47.8 64.2 47.1 63.6 46.9 62.8C47 62 47.7 61.4 48.6 61.5Z" fill="#007E8C"/>
<defs>
<radialGradient id="paint0_radial" cx="0" cy="0" r="1" gradientUnits="userSpaceOnUse" gradientTransform="translate(68 66.5) rotate(90) scale(66.5 68)">
<stop stop-color="#E6E88F"/>
<stop offset="0.15625" stop-color="#F2E747"/>
<stop offset="1" stop-color="#D9E409"/>
</radialGradient>
</defs>
</svg>
