<svg width="75" height="75" viewBox="0 0 75 75" fill="none" xmlns="http://www.w3.org/2000/svg">
<path d="M36.8799 36.0824H30.0708V30.2495H36.8799L36.8799 36.0824ZM48.0095 30.2495H41.2004V36.0824H48.0095V30.2495ZM59.1391 36.0824V30.2495H52.33V36.0824H59.1391ZM14.6208 40.0876H7.81171V45.9205H14.6208V40.0876ZM25.7504 40.0876H18.9413V45.9205H25.7504V40.0876ZM36.8799 40.0876H30.0708V45.9205H36.8799L36.8799 40.0876ZM41.2001 45.9191H43.4584C44.7599 44.3641 46.2948 43.0205 48.0084 41.9362V40.0862H41.2001V45.9191ZM7.81168 55.7585H14.6208V49.9256H7.81171L7.81168 55.7585ZM18.9412 55.7585H25.7503V49.9256H18.9412V55.7585ZM30.0708 55.7585H36.8799V49.9256H30.0708V55.7585ZM75 58.5882C75 61.8341 74.0375 65.0071 72.234 67.706C70.4306 70.4049 67.8672 72.5085 64.8682 73.7506C61.8691 74.9928 58.569 75.3179 55.3852 74.6847C52.2014 74.0515 49.2768 72.4885 46.9814 70.1933C44.686 67.8981 43.1228 64.9738 42.4894 61.7903C41.8561 58.6068 42.1811 55.3069 43.4233 52.3081C44.6655 49.3092 46.7692 46.7461 49.4683 44.9427C52.1673 43.1393 55.3406 42.1768 58.5868 42.1767C62.9383 42.1816 67.1101 43.9122 70.1871 46.9889C73.2641 50.0656 74.995 54.2371 75 58.5882L75 58.5882ZM72.0003 58.5882C72.0003 55.9355 71.2135 53.3424 69.7397 51.1368C68.2658 48.9312 66.1709 47.2122 63.7199 46.1971C61.269 45.182 58.572 44.9164 55.9701 45.4339C53.3682 45.9514 50.9782 47.2288 49.1023 49.1045C47.2265 50.9803 45.949 53.3701 45.4314 55.9718C44.9139 58.5735 45.1795 61.2702 46.1947 63.7209C47.2099 66.1717 48.9291 68.2664 51.1349 69.7401C53.3406 71.2139 55.9339 72.0005 58.5868 72.0006C62.1431 71.9966 65.5525 70.5822 68.0672 68.0678C70.5818 65.5533 71.9963 62.1441 72.0003 58.5882L72.0003 58.5882ZM63.9511 39.5902V25.9046H2.99968V54.7247C3.0013 56.1507 3.56855 57.5179 4.57701 58.5263C5.58546 59.5346 6.95275 60.1018 8.37892 60.1035H38.9043C38.9811 61.1137 39.1359 62.1165 39.3673 63.1029H8.37894C6.15748 63.1004 4.02772 62.2169 2.4569 60.6462C0.88609 59.0755 0.00250562 56.9459 0 54.7247V17.0735C0.00249681 14.8522 0.886075 12.7227 2.45689 11.152C4.0277 9.5813 6.15746 8.6978 8.37892 8.69531H10.4102V4.66609C10.4094 4.05363 10.5293 3.44701 10.7631 2.88093C10.997 2.31485 11.3401 1.80041 11.7729 1.36705C12.2057 0.933677 12.7198 0.589877 13.2856 0.355307C13.8514 0.120738 14.4579 0 15.0704 0C15.6829 0 16.2894 0.120738 16.8553 0.355307C17.4211 0.589877 17.9351 0.933677 18.3679 1.36705C18.8007 1.80041 19.1439 2.31485 19.3777 2.88093C19.6115 3.44701 19.7315 4.05363 19.7307 4.66609V8.69531H47.2193V4.66609C47.2185 4.05363 47.3384 3.44701 47.5723 2.88093C47.8061 2.31485 48.1492 1.80041 48.5821 1.36705C49.0149 0.933677 49.5289 0.589877 50.0947 0.355307C50.6605 0.120738 51.267 0 51.8795 0C52.4921 0 53.0986 0.120738 53.6644 0.355307C54.2302 0.589877 54.7442 0.933677 55.177 1.36705C55.6099 1.80041 55.953 2.31485 56.1868 2.88093C56.4207 3.44701 56.5406 4.05363 56.5398 4.66609V8.69531H58.5718C60.7933 8.6978 62.9231 9.5813 64.4939 11.152C66.0647 12.7227 66.9483 14.8522 66.9508 17.0735V40.708C65.983 40.2542 64.9798 39.8804 63.9511 39.5902ZM50.219 14.5339C50.2185 14.7522 50.2611 14.9685 50.3443 15.1704C50.4276 15.3723 50.5498 15.5558 50.704 15.7104C50.8583 15.8649 51.0415 15.9876 51.2432 16.0713C51.4449 16.1549 51.6612 16.198 51.8795 16.198C52.0979 16.198 52.3142 16.1549 52.5159 16.0713C52.7176 15.9876 52.9008 15.8649 53.0551 15.7104C53.2093 15.5558 53.3315 15.3723 53.4148 15.1704C53.498 14.9685 53.5406 14.7522 53.5401 14.5339V4.66609C53.5406 4.44773 53.498 4.23141 53.4148 4.02953C53.3315 3.82765 53.2093 3.64417 53.0551 3.48959C52.9008 3.33501 52.7176 3.21237 52.5159 3.12869C52.3142 3.04501 52.0979 3.00194 51.8795 3.00194C51.6612 3.00194 51.4449 3.04501 51.2432 3.12869C51.0415 3.21237 50.8583 3.33501 50.704 3.48959C50.5498 3.64417 50.4276 3.82765 50.3443 4.02953C50.2611 4.23141 50.2185 4.44773 50.219 4.66609V14.5339ZM13.4099 14.5339C13.4094 14.7522 13.452 14.9685 13.5352 15.1704C13.6184 15.3723 13.7407 15.5558 13.8949 15.7104C14.0491 15.8649 14.2324 15.9876 14.4341 16.0713C14.6358 16.1549 14.852 16.198 15.0704 16.198C15.2888 16.198 15.505 16.1549 15.7067 16.0713C15.9085 15.9876 16.0917 15.8649 16.2459 15.7104C16.4002 15.5558 16.5224 15.3723 16.6056 15.1704C16.6889 14.9685 16.7315 14.7522 16.731 14.5339V4.66609C16.7315 4.44773 16.6889 4.23141 16.6056 4.02953C16.5224 3.82765 16.4002 3.64417 16.2459 3.48959C16.0917 3.33501 15.9085 3.21237 15.7067 3.12869C15.505 3.04501 15.2888 3.00194 15.0704 3.00194C14.852 3.00194 14.6358 3.04501 14.4341 3.12869C14.2324 3.21237 14.0491 3.33501 13.8949 3.48959C13.7407 3.64417 13.6184 3.82765 13.5352 4.02953C13.452 4.23141 13.4094 4.44773 13.4099 4.66609V14.5339ZM63.9511 22.9051V17.0735C63.9495 15.6475 63.3822 14.2803 62.3738 13.2719C61.3653 12.2636 59.998 11.6963 58.5718 11.6947H56.5398V14.5339C56.5406 15.1463 56.4207 15.7529 56.1868 16.319C55.953 16.8851 55.6099 17.3995 55.177 17.8329C54.7442 18.2663 54.2302 18.6101 53.6644 18.8446C53.0986 19.0792 52.4921 19.1999 51.8795 19.1999C51.267 19.1999 50.6605 19.0792 50.0947 18.8446C49.5289 18.6101 49.0149 18.2663 48.5821 17.8329C48.1492 17.3995 47.8061 16.8851 47.5723 16.319C47.3384 15.7529 47.2185 15.1463 47.2193 14.5339V11.6947H19.7307V14.5339C19.7315 15.1463 19.6115 15.7529 19.3777 16.319C19.1439 16.8851 18.8007 17.3995 18.3679 17.8329C17.9351 18.2663 17.4211 18.6101 16.8553 18.8446C16.2894 19.0792 15.6829 19.1999 15.0704 19.1999C14.4579 19.1999 13.8514 19.0792 13.2856 18.8446C12.7198 18.6101 12.2057 18.2663 11.7729 17.8329C11.3401 17.3995 10.997 16.8851 10.7631 16.319C10.5293 15.7529 10.4094 15.1463 10.4102 14.5339V11.6947H8.37892C6.95275 11.6963 5.58546 12.2636 4.57701 13.2719C3.56855 14.2803 3.0013 15.6475 2.99968 17.0735V22.9051H63.9511ZM65.0249 52.1889C64.8939 52.0341 64.7067 51.9375 64.5046 51.9206C64.3025 51.9037 64.1019 51.9678 63.947 52.0987L57.3622 57.666C57.2773 57.7378 57.2091 57.8272 57.1623 57.9281C57.1155 58.0289 57.0912 58.1388 57.0912 58.25V69.4841C57.0912 69.5845 57.111 69.684 57.1495 69.7768C57.1879 69.8696 57.2442 69.9539 57.3152 70.0249C57.3863 70.0959 57.4706 70.1522 57.5634 70.1907C57.6562 70.2291 57.7556 70.2489 57.8561 70.2489H59.3261C59.4265 70.2489 59.526 70.2291 59.6188 70.1907C59.7116 70.1522 59.7959 70.0959 59.8669 70.0249C59.9379 69.9539 59.9942 69.8696 60.0327 69.7768C60.0711 69.684 60.0909 69.5845 60.0909 69.4841V59.2874L65.8839 54.3894C66.0388 54.2584 66.1353 54.0713 66.1522 53.8692C66.1691 53.6671 66.105 53.4665 65.9741 53.3117L65.0249 52.1889Z" fill="#007E8C"/>
</svg>
