<svg width="48" height="76" viewBox="0 0 48 76" fill="none" xmlns="http://www.w3.org/2000/svg">
<path d="M23.5885 29.8731C23.5885 25.3217 19.8851 21.6171 15.3326 21.6171C10.78 21.6171 7.07666 25.3217 7.07666 29.8731C7.07666 34.4244 10.78 38.129 15.3326 38.129C19.8851 38.129 23.5885 34.4244 23.5885 29.8731ZM9.4355 29.8731C9.4355 26.6214 12.0809 23.976 15.3326 23.976C18.5842 23.976 21.2297 26.6214 21.2297 29.8731C21.2297 33.1247 18.5842 35.7701 15.3326 35.7701C12.0809 35.7701 9.4355 33.1247 9.4355 29.8731Z" fill="#007E8C"/>
<path d="M25.9473 8.64348C25.9473 7.99126 25.4189 7.46406 24.7679 7.46406H22.8973L20.8841 5.45079C20.6635 5.22906 20.3628 5.10522 20.0502 5.10522H10.6149C10.3023 5.10522 10.0016 5.22906 9.78101 5.45079L7.76775 7.46406H5.89719C5.24615 7.46406 4.71777 7.99126 4.71777 8.64348V25.1553H7.07661V9.8229H8.25603C8.56857 9.8229 8.86933 9.69906 9.08988 9.47733L11.1031 7.46406H19.5619L21.5752 9.47733C21.7957 9.69906 22.0965 9.8229 22.409 9.8229H23.5885V14.5406H25.9473V8.64348Z" fill="#007E8C"/>
<path d="M25.9472 16.8994H23.5884V25.1553H25.9472V16.8994Z" fill="#007E8C"/>
<path d="M25.9472 35.7701H23.5884V44.026H25.9472V35.7701Z" fill="#007E8C"/>
<path d="M4.71777 35.7701V51.1025C4.71777 51.7547 5.24615 52.2819 5.89719 52.2819H7.76775L9.78101 54.2952C10.0016 54.5169 10.3023 54.6408 10.6149 54.6408H12.9737V52.2819H11.1031L9.08988 50.2687C8.86933 50.0469 8.56857 49.9231 8.25603 49.9231H7.07661V35.7701H4.71777Z" fill="#007E8C"/>
<path d="M2.35884 2.74641H28.306V23.9759H30.6649V1.56699C30.6649 0.914773 30.1365 0.387573 29.4854 0.387573H1.17942C0.528379 0.387573 0 0.914773 0 1.56699V58.179C0 58.8313 0.528379 59.3585 1.17942 59.3585H16.5119V56.9996H2.35884V2.74641Z" fill="#007E8C"/>
<path d="M40.1 14.5406H37.7412V16.8994H40.1V14.5406Z" fill="#007E8C"/>
<path d="M40.1 19.2583H37.7412V21.6171H40.1V19.2583Z" fill="#007E8C"/>
<path d="M42.4589 16.8994H40.1001V19.2582H42.4589V16.8994Z" fill="#007E8C"/>
<path d="M47.1767 23.976H44.8179V26.3348H47.1767V23.976Z" fill="#007E8C"/>
<path d="M37.7412 16.8994H35.3823V19.2582H37.7412V16.8994Z" fill="#007E8C"/>
<path d="M42.1109 34.9339L33.8007 26.6779C33.579 26.4574 33.2806 26.3347 32.9692 26.3347H29.4852C28.8342 26.3347 28.3058 26.8619 28.3058 27.5141V42.5246L25.6533 47.0146L17.2158 40.7224C17.0129 40.5691 16.7652 40.4877 16.5117 40.4877H12.826C12.2846 40.4877 11.8129 40.8557 11.6819 41.3817L10.5025 46.0994C10.4141 46.4532 10.4943 46.8271 10.7195 47.1137L23.3995 63.2517L22.2672 74.5741C22.2342 74.9055 22.3427 75.2369 22.5668 75.4834C22.7897 75.7299 23.107 75.8703 23.4407 75.8703H41.132C41.4823 75.8703 41.8161 75.7134 42.0402 75.4445C42.2642 75.1756 42.3562 74.8194 42.2914 74.4738L40.1094 62.8389L42.4541 35.8738C42.4848 35.5236 42.3586 35.1804 42.1109 34.9339ZM37.7612 63.1149L39.7108 73.5114H24.744L25.5696 65.2555H33.0235V62.8967H25.7831C25.7819 62.6337 25.7111 62.3754 25.5472 62.1678L12.9309 46.1112L13.7471 42.8466H16.1201L25.2971 49.6895C25.5649 49.89 25.9069 49.9644 26.2336 49.9007C26.5615 49.8346 26.8469 49.6318 27.0167 49.344L30.5007 43.4469C30.6081 43.2641 30.6647 43.0577 30.6647 42.8466V28.6936H32.4833L40.0576 36.2182L37.7471 62.7941C37.7365 62.9014 37.7412 63.0087 37.7612 63.1149Z" fill="#007E8C"/>
</svg>
