<svg width="76" height="76" viewBox="0 0 76 76" fill="none" xmlns="http://www.w3.org/2000/svg">
<path d="M75.2783 21.6262L73.0479 18.2806V1.60504C73.0479 0.932997 72.5037 0.387573 71.8305 0.387573H53.5685C52.8953 0.387573 52.3511 0.932997 52.3511 1.60504V18.2806L45.2508 28.931C44.9854 29.3291 44.9769 29.8453 45.2313 30.2507L51.3187 39.9904C51.5414 40.3472 51.931 40.5639 52.3511 40.5639H53.5685V57.6084C53.5685 58.071 53.6635 58.5093 53.8218 58.9171L3.88627 49.1092C3.22762 48.9802 2.58724 49.4087 2.45697 50.0698C2.32792 50.7297 2.75768 51.3689 3.41755 51.4991L34.43 57.5913C33.898 58.0369 33.4512 58.5945 33.1273 59.2434L28.1296 69.24C28.1248 69.251 28.1272 69.2631 28.1223 69.2729C28.0493 69.4287 28.0018 69.5992 28.0018 69.783V74.6529C28.0018 75.3261 28.546 75.8703 29.2193 75.8703H46.2637C46.937 75.8703 47.4812 75.3261 47.4812 74.6529V69.783C47.4812 69.5943 47.4374 69.4068 47.3534 69.2388L42.3557 59.2422C42.3362 59.2045 42.3119 59.1716 42.2924 59.1338L71.5979 64.89C71.6746 64.9058 71.755 64.9131 71.8317 64.9131C72.4027 64.9131 72.9116 64.5114 73.0248 63.9294C73.1539 63.2696 72.7241 62.6304 72.0642 62.5001L59.8713 60.1054C60.4886 59.4516 60.8733 58.5762 60.8733 57.6084V47.6446C61.2556 47.781 61.6622 47.8687 62.0908 47.8687C63.0294 47.8687 63.878 47.5022 64.5257 46.919C65.1734 47.5034 66.022 47.8687 66.9606 47.8687C67.8993 47.8687 68.7479 47.5022 69.3956 46.919C70.0432 47.5034 70.8918 47.8687 71.8305 47.8687C73.8442 47.8687 75.4829 46.2299 75.4829 44.2163V38.1289V36.9115V22.3019C75.4829 22.0621 75.411 21.8259 75.2783 21.6262ZM45.0463 70.0703V73.4354H30.4367V71.0005H36.524C37.1973 71.0005 37.7415 70.4563 37.7415 69.783C37.7415 69.1097 37.1973 68.5655 36.524 68.5655H31.1891L35.3066 60.3306C35.7704 59.4029 36.703 58.8258 37.7415 58.8258C38.78 58.8258 39.7126 59.4029 40.1764 60.3306L45.0463 70.0703ZM47.7125 29.6286L54.5815 19.3252C54.7142 19.1256 54.786 18.8894 54.786 18.6495V7.69236H62.0908C62.764 7.69236 63.3082 7.14693 63.3082 6.47489C63.3082 5.80285 62.764 5.25743 62.0908 5.25743H54.786V2.8225H70.613V18.6495C70.613 18.8894 70.6848 19.1256 70.8176 19.3252L73.0479 22.6708V33.4843C72.6657 33.3467 72.259 33.2591 71.8305 33.2591C70.8918 33.2591 70.0432 33.6255 69.3956 34.2087C68.7479 33.6243 67.8993 33.2591 66.9606 33.2591C66.3239 33.2591 65.7334 33.4368 65.2123 33.7254C64.6304 32.6065 63.6089 31.7312 62.3428 31.3696L56.337 29.6542C55.6954 29.4691 55.0173 29.8429 54.8322 30.4906C54.6484 31.1371 55.0222 31.8115 55.6699 31.9954L61.6756 33.7108C62.6362 33.9859 63.3082 34.8759 63.3082 35.8766C63.3082 37.1185 62.2977 38.1289 61.0547 38.1289H53.0255L47.7125 29.6286ZM58.4384 40.5639V44.2163V57.6084C58.4384 58.2804 57.893 58.8258 57.2209 58.8258C56.5489 58.8258 56.0035 58.2804 56.0035 57.6084V40.5639H58.4384ZM62.0908 45.4337C61.4187 45.4337 60.8733 44.8883 60.8733 44.2163V40.5639H61.0547C61.8753 40.5639 62.6362 40.3338 63.3082 39.9612V44.2163C63.3082 44.8883 62.7628 45.4337 62.0908 45.4337ZM66.9606 45.4337C66.2886 45.4337 65.7432 44.8883 65.7432 44.2163V36.9115C65.7432 36.2407 66.2886 35.694 66.9606 35.694C67.6327 35.694 68.1781 36.2407 68.1781 36.9115V44.2163C68.1781 44.8883 67.6327 45.4337 66.9606 45.4337ZM73.0479 44.2163C73.0479 44.8883 72.5025 45.4337 71.8305 45.4337C71.1584 45.4337 70.613 44.8883 70.613 44.2163V36.9115C70.613 36.2407 71.1584 35.694 71.8305 35.694C72.5025 35.694 73.0479 36.2407 73.0479 36.9115V38.1289V44.2163Z" fill="#007E8C"/>
<path d="M66.9606 7.69237C67.633 7.69237 68.1781 7.1473 68.1781 6.47491C68.1781 5.80252 67.633 5.25745 66.9606 5.25745C66.2882 5.25745 65.7432 5.80252 65.7432 6.47491C65.7432 7.1473 66.2882 7.69237 66.9606 7.69237Z" fill="#007E8C"/>
<path d="M21.9147 17.4321C22.5871 17.4321 23.1322 16.887 23.1322 16.2147C23.1322 15.5423 22.5871 14.9972 21.9147 14.9972C21.2423 14.9972 20.6973 15.5423 20.6973 16.2147C20.6973 16.887 21.2423 17.4321 21.9147 17.4321Z" fill="#007E8C"/>
<path d="M4.86981 17.4321C5.54219 17.4321 6.08727 16.887 6.08727 16.2147C6.08727 15.5423 5.54219 14.9972 4.86981 14.9972C4.19742 14.9972 3.65234 15.5423 3.65234 16.2147C3.65234 16.887 4.19742 17.4321 4.86981 17.4321Z" fill="#007E8C"/>
<path d="M13.3921 29.6067C16.1813 29.6067 18.8622 28.7472 21.1449 27.1231C21.6928 26.7335 21.8206 25.9726 21.4298 25.4247C21.0402 24.8781 20.2817 24.7502 19.7314 25.1386C17.8651 26.4693 15.6724 27.1718 13.3921 27.1718C7.34983 27.1718 2.43493 22.2557 2.43493 16.2146C2.43493 10.1736 7.34983 5.25744 13.3921 5.25744C19.4344 5.25744 24.3493 10.1736 24.3493 16.2146C24.3493 18.4949 23.6468 20.6876 22.3161 22.5552C21.9265 23.103 22.0531 23.8627 22.601 24.2535C23.1476 24.6443 23.9073 24.5141 24.2994 23.9686C25.9247 21.6847 26.7842 19.0038 26.7842 16.2146C26.7842 8.83069 20.776 2.82251 13.3921 2.82251C6.00818 2.82251 0 8.83069 0 16.2146C0 23.5985 6.00818 29.6067 13.3921 29.6067Z" fill="#007E8C"/>
<path d="M12.1749 12.5622H14.6098C15.2818 12.5622 15.8272 13.1088 15.8272 13.7796C15.8272 14.4517 16.3714 14.9971 17.0447 14.9971C17.718 14.9971 18.2622 14.4517 18.2622 13.7796C18.2622 11.766 16.6235 10.1272 14.6098 10.1272V8.90979C14.6098 8.23775 14.0656 7.69232 13.3923 7.69232C12.7191 7.69232 12.1749 8.23775 12.1749 8.90979V10.1272C10.1612 10.1272 8.52246 11.766 8.52246 13.7796C8.52246 15.7933 10.1612 17.432 12.1749 17.432H14.6098C15.2818 17.432 15.8272 17.9787 15.8272 18.6495C15.8272 19.3203 15.2818 19.867 14.6098 19.867H12.1749C11.5028 19.867 10.9574 19.3203 10.9574 18.6495C10.9574 17.9775 10.4132 17.432 9.73992 17.432C9.06667 17.432 8.52246 17.9775 8.52246 18.6495C8.52246 20.6632 10.1612 22.3019 12.1749 22.3019V23.5193C12.1749 24.1914 12.7191 24.7368 13.3923 24.7368C14.0656 24.7368 14.6098 24.1914 14.6098 23.5193V22.3019C16.6235 22.3019 18.2622 20.6632 18.2622 18.6495C18.2622 16.6358 16.6235 14.9971 14.6098 14.9971H12.1749C11.5028 14.9971 10.9574 14.4505 10.9574 13.7796C10.9574 13.1088 11.5028 12.5622 12.1749 12.5622Z" fill="#007E8C"/>
<path d="M41.3937 71.0005C42.0661 71.0005 42.6112 70.4554 42.6112 69.783C42.6112 69.1106 42.0661 68.5656 41.3937 68.5656C40.7213 68.5656 40.1763 69.1106 40.1763 69.783C40.1763 70.4554 40.7213 71.0005 41.3937 71.0005Z" fill="#007E8C"/>
<path d="M14.6097 33.2591C14.6097 32.587 14.0655 32.0416 13.3923 32.0416C12.719 32.0416 12.1748 32.587 12.1748 33.2591V40.5639C12.1748 41.2371 12.719 41.7813 13.3923 41.7813C14.0655 41.7813 14.6097 41.2371 14.6097 40.5639V33.2591Z" fill="#007E8C"/>
<path d="M13.3923 46.6512C14.0647 46.6512 14.6097 46.1062 14.6097 45.4338C14.6097 44.7614 14.0647 44.2163 13.3923 44.2163C12.7199 44.2163 12.1748 44.7614 12.1748 45.4338C12.1748 46.1062 12.7199 46.6512 13.3923 46.6512Z" fill="#007E8C"/>
<path d="M21.9144 33.2591C21.9144 32.587 21.3702 32.0416 20.697 32.0416C20.0237 32.0416 19.4795 32.587 19.4795 33.2591V38.1289C19.4795 38.801 20.0237 39.3464 20.697 39.3464C21.3702 39.3464 21.9144 38.801 21.9144 38.1289V33.2591Z" fill="#007E8C"/>
<path d="M20.697 44.2162C21.3693 44.2162 21.9144 43.6712 21.9144 42.9988C21.9144 42.3264 21.3693 41.7813 20.697 41.7813C20.0246 41.7813 19.4795 42.3264 19.4795 42.9988C19.4795 43.6712 20.0246 44.2162 20.697 44.2162Z" fill="#007E8C"/>
<path d="M7.30456 33.2591C7.30456 32.587 6.76035 32.0416 6.08709 32.0416C5.41384 32.0416 4.86963 32.587 4.86963 33.2591V38.1289C4.86963 38.801 5.41384 39.3464 6.08709 39.3464C6.76035 39.3464 7.30456 38.801 7.30456 38.1289V33.2591Z" fill="#007E8C"/>
<path d="M6.08709 44.2162C6.75948 44.2162 7.30456 43.6712 7.30456 42.9988C7.30456 42.3264 6.75948 41.7813 6.08709 41.7813C5.41471 41.7813 4.86963 42.3264 4.86963 42.9988C4.86963 43.6712 5.41471 44.2162 6.08709 44.2162Z" fill="#007E8C"/>
</svg>
