<?xml version="1.0" encoding="utf-8"?>
<!-- Generator: Adobe Illustrator 24.0.1, SVG Export Plug-In . SVG Version: 6.00 Build 0)  -->
<svg version="1.1" id="Layer_1" xmlns="http://www.w3.org/2000/svg" xmlns:xlink="http://www.w3.org/1999/xlink" x="0px" y="0px"
	 viewBox="0 0 180 80" style="enable-background:new 0 0 180 80;" xml:space="preserve">
<style type="text/css">
	.st0{fill-rule:evenodd;clip-rule:evenodd;fill:#FFFFFF;filter:url(#Adobe_OpacityMaskFilter);}
	.st1{mask:url(#mask0_1_);}
	.st2{fill-rule:evenodd;clip-rule:evenodd;fill:#979797;fill-opacity:0.3;}
</style>
<defs>
	<filter id="Adobe_OpacityMaskFilter" filterUnits="userSpaceOnUse" x="67" y="7" width="46" height="67">
		<feColorMatrix  type="matrix" values="1 0 0 0 0  0 1 0 0 0  0 0 1 0 0  0 0 0 1 0"/>
	</filter>
</defs>
<mask maskUnits="userSpaceOnUse" x="67" y="7" width="46" height="67" id="mask0_1_">
	<path class="st0" d="M67,7h46v67H67V7z"/>
</mask>
<g class="st1">
	<path class="st2" d="M107.8,71.7v-5.4h1.9v-1.1h-5.2v1.1h1.9v5.4H107.8z M97,71.3c0.4,0.4,1.1,0.6,1.9,0.6c0.6,0,1-0.1,1.4-0.2
		c0.4-0.2,0.7-0.4,0.9-0.7c0.2-0.3,0.3-0.7,0.3-1.1c0-0.4-0.1-0.8-0.3-1c-0.2-0.3-0.4-0.5-0.7-0.7c-0.3-0.2-0.8-0.3-1.4-0.5
		c-0.6-0.2-1-0.3-1.2-0.4c-0.1-0.1-0.2-0.2-0.2-0.4c0-0.2,0.1-0.3,0.2-0.4c0.2-0.2,0.5-0.2,0.9-0.2c0.4,0,0.6,0.1,0.8,0.2
		c0.2,0.1,0.3,0.4,0.4,0.7l1.3-0.1c0-0.6-0.2-1.1-0.7-1.4c-0.4-0.4-1-0.5-1.8-0.5c-0.5,0-0.9,0.1-1.3,0.2c-0.4,0.2-0.6,0.4-0.8,0.7
		c-0.2,0.3-0.3,0.6-0.3,0.9c0,0.5,0.2,1,0.6,1.3c0.3,0.3,0.8,0.5,1.5,0.6c0.5,0.1,0.9,0.2,1.1,0.3c0.2,0.1,0.4,0.2,0.5,0.3
		c0.1,0.1,0.1,0.2,0.1,0.4c0,0.2-0.1,0.5-0.3,0.6c-0.2,0.2-0.5,0.3-1,0.3c-0.4,0-0.7-0.1-1-0.3c-0.2-0.2-0.4-0.5-0.5-0.9l-1.3,0.1
		C96.3,70.3,96.6,70.9,97,71.3z M87.6,68.7c0,0.7,0,1.3,0.1,1.7c0.1,0.3,0.2,0.5,0.4,0.7c0.2,0.2,0.4,0.4,0.8,0.6
		c0.3,0.1,0.8,0.2,1.4,0.2c0.5,0,0.9-0.1,1.3-0.2c0.3-0.1,0.6-0.3,0.8-0.5c0.2-0.2,0.3-0.5,0.4-0.8c0.1-0.3,0.1-0.9,0.1-1.7v-3.4
		h-1.3v3.6c0,0.5,0,0.9-0.1,1.1c0,0.2-0.2,0.4-0.3,0.6c-0.2,0.2-0.5,0.2-0.8,0.2c-0.4,0-0.7-0.1-0.9-0.2c-0.2-0.2-0.3-0.4-0.4-0.6
		c0-0.2,0-0.5,0-1.1v-3.5h-1.3V68.7z M80,66.3h1c0.5,0,0.9,0,1,0c0.2,0,0.4,0.1,0.5,0.3c0.1,0.1,0.2,0.3,0.2,0.5
		c0,0.2,0,0.4-0.1,0.5c-0.1,0.1-0.2,0.2-0.4,0.3c-0.2,0.1-0.6,0.1-1.2,0.1h-1V66.3z M80,71.7V69h0.3c0.3,0,0.5,0,0.7,0.1
		c0.1,0,0.3,0.1,0.4,0.3c0.1,0.1,0.4,0.5,0.7,1l1,1.4h1.6l-0.8-1.3c-0.3-0.5-0.6-0.9-0.7-1.1c-0.2-0.2-0.4-0.4-0.7-0.5
		c0.6-0.1,1-0.3,1.3-0.6c0.3-0.3,0.4-0.7,0.4-1.2c0-0.4-0.1-0.7-0.3-1c-0.2-0.3-0.4-0.5-0.8-0.6c-0.3-0.1-0.8-0.2-1.5-0.2h-2.8v6.5
		H80z M73.5,71.7v-5.4h1.9v-1.1h-5.2v1.1h1.9v5.4H73.5z M105.4,63.5c0.5,0.4,1.2,0.6,2.1,0.6c0.6,0,1.1-0.1,1.5-0.3
		c0.4-0.2,0.7-0.4,1-0.8c0.2-0.4,0.3-0.7,0.3-1.1c0-0.4-0.1-0.8-0.3-1.1c-0.2-0.3-0.5-0.5-0.8-0.7c-0.3-0.2-0.9-0.3-1.5-0.5
		c-0.7-0.2-1.1-0.3-1.3-0.5c-0.1-0.1-0.2-0.3-0.2-0.4c0-0.2,0.1-0.3,0.2-0.4c0.2-0.2,0.6-0.3,1-0.3c0.4,0,0.7,0.1,0.9,0.2
		c0.2,0.2,0.3,0.4,0.4,0.8l1.4-0.1c0-0.7-0.3-1.2-0.7-1.6c-0.4-0.4-1.1-0.6-2-0.6c-0.5,0-1,0.1-1.4,0.2c-0.4,0.2-0.7,0.4-0.9,0.7
		c-0.2,0.3-0.3,0.7-0.3,1c0,0.6,0.2,1,0.7,1.4c0.3,0.3,0.8,0.5,1.6,0.7c0.6,0.1,1,0.3,1.1,0.3c0.2,0.1,0.4,0.2,0.5,0.3
		c0.1,0.1,0.1,0.3,0.1,0.4c0,0.3-0.1,0.5-0.4,0.7c-0.2,0.2-0.6,0.3-1,0.3c-0.4,0-0.8-0.1-1-0.3c-0.3-0.2-0.4-0.6-0.5-1l-1.4,0.1
		C104.6,62.5,104.9,63.1,105.4,63.5z M103.4,64v-1.2h-4v-1.9h3.6v-1.2h-3.6v-1.6h3.8v-1.2H98V64H103.4z M93.3,60.9
		c0.7,0,1.1,0,1.3,0.1c0.2,0.1,0.3,0.2,0.4,0.3c0.1,0.1,0.2,0.3,0.2,0.5c0,0.3-0.1,0.5-0.2,0.6c-0.1,0.2-0.3,0.2-0.5,0.3
		c-0.1,0-0.5,0-1,0h-1.3v-1.9H93.3z M92.9,58.1c0.7,0,1.1,0,1.2,0c0.2,0,0.4,0.1,0.5,0.2c0.1,0.1,0.2,0.3,0.2,0.5
		c0,0.2-0.1,0.4-0.2,0.6c-0.1,0.1-0.3,0.2-0.6,0.3c-0.1,0-0.5,0-1,0h-0.9v-1.6H92.9z M90.7,64h2.4c0.9,0,1.5,0,1.7,0
		c0.4,0,0.7-0.2,1-0.3c0.3-0.2,0.5-0.4,0.6-0.7c0.2-0.3,0.2-0.6,0.2-0.9c0-0.4-0.1-0.8-0.3-1.1c-0.2-0.3-0.6-0.5-1-0.6
		c0.3-0.1,0.6-0.3,0.7-0.6c0.2-0.3,0.3-0.6,0.3-0.9c0-0.3-0.1-0.6-0.2-0.8c-0.1-0.2-0.3-0.4-0.5-0.6c-0.2-0.1-0.5-0.2-0.7-0.3
		c-0.3,0-0.7-0.1-1.3-0.1h-2.8V64z M85.9,60.9c0.7,0,1.1,0,1.3,0.1c0.2,0.1,0.3,0.2,0.4,0.3c0.1,0.1,0.2,0.3,0.2,0.5
		c0,0.3-0.1,0.5-0.2,0.6c-0.1,0.2-0.3,0.2-0.5,0.3c-0.1,0-0.5,0-1,0h-1.3v-1.9H85.9z M85.6,58.1c0.7,0,1.1,0,1.2,0
		c0.2,0,0.4,0.1,0.5,0.2c0.1,0.1,0.2,0.3,0.2,0.5c0,0.2-0.1,0.4-0.2,0.6c-0.1,0.1-0.3,0.2-0.6,0.3c-0.1,0-0.5,0-1,0h-0.9v-1.6H85.6z
		 M83.3,64h2.4c0.9,0,1.5,0,1.7,0c0.4,0,0.7-0.2,1-0.3c0.3-0.2,0.5-0.4,0.6-0.7c0.2-0.3,0.2-0.6,0.2-0.9c0-0.4-0.1-0.8-0.3-1.1
		c-0.2-0.3-0.6-0.5-1-0.6c0.3-0.1,0.6-0.3,0.7-0.6c0.2-0.3,0.3-0.6,0.3-0.9c0-0.3-0.1-0.6-0.2-0.8c-0.1-0.2-0.3-0.4-0.5-0.6
		c-0.2-0.1-0.5-0.2-0.7-0.3c-0.3,0-0.7-0.1-1.3-0.1h-2.8V64z M75.9,60.7c0,0.8,0,1.4,0.1,1.8c0.1,0.3,0.2,0.5,0.4,0.8
		c0.2,0.3,0.5,0.5,0.8,0.6c0.4,0.2,0.9,0.2,1.5,0.2c0.6,0,1-0.1,1.4-0.2c0.3-0.1,0.6-0.3,0.8-0.6c0.2-0.2,0.4-0.5,0.4-0.9
		c0.1-0.4,0.1-1,0.1-1.8v-3.7h-1.4v3.9c0,0.6,0,1-0.1,1.2c0,0.2-0.2,0.4-0.4,0.6c-0.2,0.2-0.5,0.2-0.9,0.2c-0.4,0-0.7-0.1-0.9-0.3
		c-0.2-0.2-0.4-0.4-0.4-0.7c0-0.2-0.1-0.6-0.1-1.2v-3.8h-1.4V60.7z M74.7,64v-1.2h-3.6v-5.8h-1.4v7H74.7z M69.7,74h40.6v-0.8H69.7
		V74z M69.7,74h40.6v-0.8H69.7V74z M69.7,55.7h40.6v-0.8H69.7V55.7z M103.2,24.2v24.7c5.9-4.2,9.8-11.1,9.8-18.9c0-2-0.3-4-0.7-5.8
		H103.2z M93.7,52.7C92.5,52.9,91.2,53,90,53c-12.7,0-23-10.3-23-23c0-5.7,2.1-10.9,5.5-14.9v27.3h1.2h8.8h10v-7.5h-10V8.2
		C84.9,7.4,87.4,7,90,7c7.8,0,14.7,3.9,18.8,9.8H84.5v7.4h9.2V52.7z"/>
</g>
</svg>
