<?xml version="1.0" encoding="utf-8"?>
<!-- Generator: Adobe Illustrator 24.0.1, SVG Export Plug-In . SVG Version: 6.00 Build 0)  -->
<svg version="1.1" id="Layer_1" xmlns="http://www.w3.org/2000/svg" xmlns:xlink="http://www.w3.org/1999/xlink" x="0px" y="0px"
	 viewBox="0 0 179 80" style="enable-background:new 0 0 179 80;" xml:space="preserve">
<style type="text/css">
	.st0{fill-rule:evenodd;clip-rule:evenodd;fill:#FFFFFF;filter:url(#Adobe_OpacityMaskFilter);}
	.st1{mask:url(#mask0_1_);}
	.st2{fill-rule:evenodd;clip-rule:evenodd;fill:#979797;fill-opacity:0.3;}
</style>
<defs>
	<filter id="Adobe_OpacityMaskFilter" filterUnits="userSpaceOnUse" x="32" y="23.7" width="114" height="32.6">
		<feColorMatrix  type="matrix" values="1 0 0 0 0  0 1 0 0 0  0 0 1 0 0  0 0 0 1 0"/>
	</filter>
</defs>
<mask maskUnits="userSpaceOnUse" x="32" y="23.7" width="114" height="32.6" id="mask0_1_">
	<path class="st0" d="M32,23.7h114v32.6H32V23.7z"/>
</mask>
<g class="st1">
	<path class="st2" d="M133.8,56h12.1v-3.3h-7.7v-2.9h6.9v-3h-6.9v-2.3h7.4v-3.1h-11.9V56z M118.3,45.1h4.5V56h4.4V45.1h4.5v-3.6
		h-13.5V45.1z M109.8,50.5l1.6-5.2l1.6,5.2H109.8z M114.6,56h4.6l-5.4-14.5H109L103.6,56h4.5l0.7-2.4h5L114.6,56z M98.5,50.8v1.4
		c-0.6,0.3-1.1,0.6-1.5,0.7c-0.5,0.1-0.9,0.2-1.4,0.2c-1,0-1.9-0.3-2.4-1c-0.6-0.7-0.9-1.8-0.9-3.4c0-1.5,0.3-2.6,0.9-3.2
		c0.6-0.7,1.4-1,2.3-1c0.7,0,1.2,0.1,1.6,0.4c0.4,0.3,0.7,0.7,0.9,1.3l4.3-0.8c-0.3-0.9-0.7-1.7-1.2-2.3c-0.5-0.6-1.2-1.1-2-1.3
		c-0.8-0.3-2-0.4-3.6-0.4c-1.6,0-3,0.2-3.9,0.7c-1.2,0.6-2.2,1.5-2.8,2.7c-0.6,1.2-1,2.5-1,4.1c0,1.5,0.3,2.8,0.9,4
		c0.6,1.2,1.4,2,2.5,2.6c1.1,0.6,2.5,0.9,4.2,0.9c1.4,0,2.6-0.2,3.6-0.5c1-0.3,2.2-0.9,3.5-1.8v-6.2h-6.9v3H98.5z M133.9,38.7H146
		v-3.3h-7.7v-2.9h6.9v-3h-6.9v-2.3h7.4v-3.1h-11.9V38.7z M123.9,27.1h1.3c0.8,0,1.4,0.2,1.7,0.5c0.3,0.3,0.4,0.7,0.4,1.2
		c0,0.5-0.2,0.9-0.5,1.2c-0.3,0.3-0.9,0.4-1.8,0.4h-1.1V27.1z M119.4,38.7h4.5v-5.4h2.4c1.8,0,3.1-0.4,4-1.2c0.9-0.8,1.3-2,1.3-3.4
		c0-1.4-0.4-2.5-1.2-3.3c-0.8-0.8-2-1.2-3.6-1.2h-7.4V38.7z M108.6,33.2l1.6-5.2l1.6,5.2H108.6z M113.4,38.7h4.6l-5.4-14.5h-4.8
		l-5.4,14.5h4.5l0.7-2.4h5L113.4,38.7z M96.8,34.9c-0.4,0.5-1.1,0.7-1.9,0.7c-0.9,0-1.6-0.3-2-0.9c-0.5-0.6-0.7-1.7-0.7-3.3
		c0-1.3,0.2-2.2,0.6-2.9c0.5-0.8,1.3-1.2,2.3-1.2c0.4,0,0.8,0.1,1.2,0.3c0.4,0.2,0.7,0.4,0.9,0.8c0.1,0.2,0.3,0.5,0.4,1l3.9-0.9
		c-0.5-1.5-1.3-2.7-2.3-3.4c-1-0.7-2.5-1.1-4.3-1.1c-2.3,0-4.1,0.6-5.4,1.9c-1.3,1.3-1.9,3.1-1.9,5.5c0,1.8,0.4,3.3,1.1,4.4
		c0.7,1.2,1.6,2,2.6,2.4c1,0.5,2.3,0.7,3.8,0.7c1.3,0,2.3-0.2,3.2-0.6c0.8-0.4,1.5-0.9,2.1-1.7c0.6-0.7,1-1.7,1.2-2.8l-3.9-1.2
		C97.6,33.7,97.3,34.4,96.8,34.9L96.8,34.9z M75.1,42.3c-0.2,0-0.4,0.2-0.4,0.4v9.6c0,0.2-0.2,0.4-0.4,0.4h-0.5H69h-3.5h-1
		c-0.1,0-0.2-0.1-0.3-0.2l-9.6-12.3c-0.1-0.1-0.1-0.4,0-0.5l8.9-11.4c0.1-0.1,0.2-0.2,0.3-0.2h5.7c0.3,0,0.5,0.4,0.3,0.7l-8.5,10.9
		c-0.1,0.1-0.1,0.4,0,0.5l6.4,8.2c0.1,0.1,0.2,0.2,0.3,0.2h0.6c0.2,0,0.4-0.2,0.4-0.4v-5.8V39v-1.5c0-0.2,0.2-0.4,0.4-0.4H81V26.6
		c0-1.6-1.3-2.9-2.8-2.9H62.5c-0.1,0-0.2,0.1-0.3,0.1L49.8,39.7c-0.1,0.1-0.1,0.3,0,0.5l12.4,15.9c0.1,0.1,0.2,0.1,0.3,0.1h15.7
		c1.6,0,2.8-1.3,2.8-2.9V42.3H75.1z M43.1,40.2l12.1,15.4c0.2,0.2,0,0.6-0.3,0.6h-20c-1.6,0-2.8-1.3-2.8-2.9V26.6
		c0-1.6,1.3-2.9,2.8-2.9h20c0.3,0,0.5,0.4,0.3,0.6L43.1,39.7C43,39.9,43,40.1,43.1,40.2L43.1,40.2z"/>
</g>
</svg>
