<?xml version="1.0" encoding="utf-8"?>
<!-- Generator: Adobe Illustrator 24.0.1, SVG Export Plug-In . SVG Version: 6.00 Build 0)  -->
<svg version="1.1" id="Layer_1" xmlns="http://www.w3.org/2000/svg" xmlns:xlink="http://www.w3.org/1999/xlink" x="0px" y="0px"
	 viewBox="0 0 180 80" style="enable-background:new 0 0 180 80;" xml:space="preserve">
<style type="text/css">
	.st0{fill-rule:evenodd;clip-rule:evenodd;fill:#FFFFFF;filter:url(#Adobe_OpacityMaskFilter);}
	.st1{mask:url(#mask0_1_);}
	.st2{fill-rule:evenodd;clip-rule:evenodd;fill:#979797;fill-opacity:0.3;}
</style>
<defs>
	<filter id="Adobe_OpacityMaskFilter" filterUnits="userSpaceOnUse" x="51" y="15" width="79" height="50">
		<feColorMatrix  type="matrix" values="1 0 0 0 0  0 1 0 0 0  0 0 1 0 0  0 0 0 1 0"/>
	</filter>
</defs>
<mask maskUnits="userSpaceOnUse" x="51" y="15" width="79" height="50" id="mask0_1_">
	<path class="st0" d="M51,15h79v50H51V15z"/>
</mask>
<g class="st1">
	<path class="st2" d="M129.9,64.1c-0.1,0.2-0.2,0.4-0.4,0.5c-0.2,0.1-0.4,0.2-0.6,0.3c-0.2,0.1-0.5,0.1-0.7,0.1
		c-0.4,0-0.8-0.1-1.1-0.2c-0.4-0.1-0.7-0.3-1-0.6l0.6-0.8c0.2,0.2,0.5,0.3,0.7,0.4c0.2,0.1,0.5,0.2,0.8,0.2c0.2,0,0.4,0,0.5-0.1
		c0.1-0.1,0.2-0.2,0.2-0.3v0c0-0.1,0-0.1,0-0.2c0-0.1-0.1-0.1-0.1-0.2c-0.1,0-0.2-0.1-0.3-0.1s-0.3-0.1-0.5-0.1
		c-0.3-0.1-0.5-0.1-0.7-0.2c-0.2-0.1-0.4-0.2-0.5-0.3c-0.1-0.1-0.3-0.3-0.3-0.4c-0.1-0.2-0.1-0.4-0.1-0.6v0c0-0.2,0-0.4,0.1-0.6
		c0.1-0.2,0.2-0.3,0.4-0.5c0.2-0.1,0.3-0.2,0.5-0.3s0.4-0.1,0.7-0.1c0.4,0,0.7,0.1,1,0.2c0.3,0.1,0.6,0.3,0.8,0.5l-0.6,0.8
		c-0.2-0.2-0.4-0.3-0.7-0.4c-0.2-0.1-0.4-0.1-0.6-0.1s-0.4,0-0.5,0.1c-0.1,0.1-0.2,0.2-0.2,0.3v0c0,0.1,0,0.2,0,0.2
		c0,0.1,0.1,0.1,0.2,0.2s0.2,0.1,0.3,0.1c0.1,0,0.3,0.1,0.5,0.1c0.3,0.1,0.5,0.1,0.7,0.2c0.2,0.1,0.4,0.2,0.5,0.3
		c0.1,0.1,0.2,0.3,0.3,0.4c0.1,0.2,0.1,0.3,0.1,0.6v0C130,63.7,130,63.9,129.9,64.1L129.9,64.1z M124.2,61.6c0-0.2-0.1-0.4-0.2-0.5
		c-0.2-0.1-0.4-0.2-0.6-0.2h-1.1v1.4h1.1c0.3,0,0.5-0.1,0.6-0.2C124.1,62,124.2,61.9,124.2,61.6L124.2,61.6z M124.1,64.9l-1.1-1.6
		h-0.9v1.6h-1.1v-5h2.3c0.6,0,1.1,0.1,1.4,0.4c0.3,0.3,0.5,0.7,0.5,1.2v0c0,0.4-0.1,0.7-0.3,1c-0.2,0.3-0.5,0.4-0.8,0.6l1.2,1.8
		H124.1z M118.6,64.9h1.1v-5h-1.1V64.9z M115,61.2l-0.7,1.6h1.3L115,61.2z M116.5,64.9l-0.5-1.1H114l-0.5,1.1h-1.1l2.1-5h1l2.1,5
		H116.5z M109.1,60.9V62h2.4v1h-2.4v1.9H108v-5h3.8v1H109.1z M104.3,60.9V62h2.4v1h-2.4v1.9h-1.1v-5h3.8v1H104.3z M99.6,61.2
		L99,62.8h1.3L99.6,61.2z M101.1,64.9l-0.5-1.1h-2.1l-0.5,1.1H97l2.1-5h1l2.1,5H101.1z M93.7,64.5c-0.1,0.1-0.3,0.2-0.5,0.3
		c-0.2,0.1-0.3,0.1-0.5,0.2c-0.2,0-0.4,0.1-0.7,0.1c-0.4,0-0.7-0.1-1-0.2c-0.3-0.1-0.6-0.3-0.8-0.5c-0.2-0.2-0.4-0.5-0.5-0.8
		c-0.1-0.3-0.2-0.6-0.2-1v0c0-0.4,0.1-0.7,0.2-1c0.1-0.3,0.3-0.6,0.5-0.8c0.2-0.2,0.5-0.4,0.8-0.6c0.3-0.1,0.7-0.2,1.1-0.2
		c0.2,0,0.4,0,0.6,0.1c0.2,0,0.4,0.1,0.5,0.2c0.2,0.1,0.3,0.1,0.4,0.2c0.1,0.1,0.3,0.2,0.4,0.3l-0.7,0.8c-0.2-0.2-0.4-0.3-0.6-0.4
		c-0.2-0.1-0.4-0.1-0.7-0.1c-0.2,0-0.4,0-0.6,0.1c-0.2,0.1-0.3,0.2-0.5,0.3c-0.1,0.1-0.2,0.3-0.3,0.5c-0.1,0.2-0.1,0.4-0.1,0.6v0
		c0,0.2,0,0.4,0.1,0.6c0.1,0.2,0.2,0.4,0.3,0.5c0.1,0.1,0.3,0.3,0.5,0.3c0.2,0.1,0.4,0.1,0.6,0.1c0.3,0,0.5-0.1,0.7-0.2
		c0.2-0.1,0.4-0.2,0.6-0.4l0.7,0.7C94,64.2,93.9,64.4,93.7,64.5L93.7,64.5z M87.3,64.9h1.1v-5h-1.1V64.9z M85.1,64.8
		c-0.4,0.2-0.8,0.2-1.2,0.2c-0.4,0-0.7-0.1-1.1-0.2c-0.3-0.1-0.6-0.3-0.8-0.5c-0.2-0.2-0.4-0.5-0.5-0.8c-0.1-0.3-0.2-0.7-0.2-1v0
		c0-0.4,0.1-0.7,0.2-1c0.1-0.3,0.3-0.6,0.5-0.8c0.2-0.2,0.5-0.4,0.8-0.6c0.3-0.1,0.7-0.2,1-0.2c0.2,0,0.4,0,0.6,0
		c0.2,0,0.4,0.1,0.5,0.1c0.2,0.1,0.3,0.1,0.4,0.2c0.1,0.1,0.3,0.2,0.4,0.3l-0.7,0.8c-0.1-0.1-0.2-0.2-0.3-0.2
		c-0.1-0.1-0.2-0.1-0.3-0.2c-0.1,0-0.2-0.1-0.3-0.1s-0.2,0-0.4,0c-0.2,0-0.4,0-0.6,0.1c-0.2,0.1-0.3,0.2-0.5,0.3
		c-0.1,0.1-0.2,0.3-0.3,0.5c-0.1,0.2-0.1,0.4-0.1,0.6v0c0,0.2,0,0.4,0.1,0.6c0.1,0.2,0.2,0.4,0.3,0.5c0.1,0.1,0.3,0.3,0.5,0.3
		c0.2,0.1,0.4,0.1,0.6,0.1c0.4,0,0.8-0.1,1-0.3V63h-1.1V62H86v2.2C85.8,64.4,85.5,64.6,85.1,64.8L85.1,64.8z M76.6,64.9v-5h3.8v1
		h-2.7v1H80v1h-2.3v1h2.7v1H76.6z M74.1,60.9v4H73v-4h-1.5v-1h4.1v1H74.1z M68.3,61.2l-0.7,1.6h1.3L68.3,61.2z M69.8,64.9l-0.5-1.1
		h-2.1l-0.5,1.1h-1.1l2.1-5h1l2.1,5H69.8z M63.8,61.6c0-0.2-0.1-0.4-0.2-0.5c-0.2-0.1-0.4-0.2-0.6-0.2h-1.1v1.4H63
		c0.3,0,0.5-0.1,0.6-0.2C63.8,62,63.8,61.9,63.8,61.6L63.8,61.6z M63.8,64.9l-1.1-1.6h-0.9v1.6h-1.1v-5h2.3c0.6,0,1.1,0.1,1.4,0.4
		c0.3,0.3,0.5,0.7,0.5,1.2v0c0,0.4-0.1,0.7-0.3,1c-0.2,0.3-0.5,0.4-0.8,0.6l1.2,1.8H63.8z M58.3,60.9v4h-1.1v-4h-1.5v-1h4.1v1H58.3z
		 M54.8,64.1c-0.1,0.2-0.2,0.4-0.4,0.5c-0.2,0.1-0.4,0.2-0.6,0.3C53.6,65,53.4,65,53.1,65c-0.4,0-0.8-0.1-1.1-0.2
		c-0.4-0.1-0.7-0.3-1-0.6l0.6-0.8c0.2,0.2,0.5,0.3,0.7,0.4c0.2,0.1,0.5,0.2,0.8,0.2c0.2,0,0.4,0,0.5-0.1c0.1-0.1,0.2-0.2,0.2-0.3v0
		c0-0.1,0-0.1,0-0.2c0-0.1-0.1-0.1-0.1-0.2c-0.1,0-0.2-0.1-0.3-0.1c-0.1,0-0.3-0.1-0.5-0.1c-0.3-0.1-0.5-0.1-0.7-0.2
		c-0.2-0.1-0.4-0.2-0.5-0.3c-0.1-0.1-0.3-0.3-0.3-0.4c-0.1-0.2-0.1-0.4-0.1-0.6v0c0-0.2,0-0.4,0.1-0.6c0.1-0.2,0.2-0.3,0.4-0.5
		c0.2-0.1,0.3-0.2,0.5-0.3c0.2-0.1,0.4-0.1,0.7-0.1c0.4,0,0.7,0.1,1,0.2c0.3,0.1,0.6,0.3,0.8,0.5l-0.6,0.8C54,61.2,53.8,61,53.6,61
		c-0.2-0.1-0.4-0.1-0.6-0.1c-0.2,0-0.4,0-0.5,0.1c-0.1,0.1-0.2,0.2-0.2,0.3v0c0,0.1,0,0.2,0,0.2c0,0.1,0.1,0.1,0.2,0.2
		c0.1,0,0.2,0.1,0.3,0.1c0.1,0,0.3,0.1,0.5,0.1c0.3,0.1,0.5,0.1,0.7,0.2c0.2,0.1,0.4,0.2,0.5,0.3c0.1,0.1,0.2,0.3,0.3,0.4
		c0.1,0.2,0.1,0.3,0.1,0.6v0C54.9,63.7,54.9,63.9,54.8,64.1L54.8,64.1z M118.4,54.3c0-0.2-0.1-0.4-0.2-0.5c-0.2-0.1-0.4-0.2-0.6-0.2
		h-1.1V55h1.1c0.3,0,0.5-0.1,0.6-0.2C118.3,54.7,118.4,54.5,118.4,54.3L118.4,54.3z M118.3,57.6l-1.1-1.6h-0.9v1.6h-1.1v-5h2.3
		c0.6,0,1.1,0.1,1.4,0.4c0.3,0.3,0.5,0.7,0.5,1.2v0c0,0.4-0.1,0.7-0.3,1c-0.2,0.3-0.5,0.4-0.8,0.6l1.2,1.8H118.3z M113.1,55.1
		c0-0.2,0-0.4-0.1-0.6c-0.1-0.2-0.2-0.4-0.3-0.5s-0.3-0.3-0.5-0.3c-0.2-0.1-0.4-0.1-0.6-0.1c-0.2,0-0.4,0-0.6,0.1
		c-0.2,0.1-0.3,0.2-0.5,0.3c-0.1,0.1-0.2,0.3-0.3,0.5c-0.1,0.2-0.1,0.4-0.1,0.6v0c0,0.2,0,0.4,0.1,0.6c0.1,0.2,0.2,0.4,0.3,0.5
		c0.1,0.1,0.3,0.3,0.5,0.3c0.2,0.1,0.4,0.1,0.6,0.1c0.2,0,0.4,0,0.6-0.1c0.2-0.1,0.3-0.2,0.5-0.3c0.1-0.1,0.2-0.3,0.3-0.5
		C113,55.5,113.1,55.3,113.1,55.1L113.1,55.1z M114,56.1c-0.1,0.3-0.3,0.6-0.6,0.8c-0.2,0.2-0.5,0.4-0.8,0.6
		c-0.3,0.1-0.7,0.2-1.1,0.2c-0.4,0-0.7-0.1-1.1-0.2c-0.3-0.1-0.6-0.3-0.8-0.5c-0.2-0.2-0.4-0.5-0.5-0.8c-0.1-0.3-0.2-0.6-0.2-1v0
		c0-0.4,0.1-0.7,0.2-1c0.1-0.3,0.3-0.6,0.6-0.8c0.2-0.2,0.5-0.4,0.8-0.6c0.3-0.1,0.7-0.2,1.1-0.2c0.4,0,0.7,0.1,1.1,0.2
		c0.3,0.1,0.6,0.3,0.8,0.5c0.2,0.2,0.4,0.5,0.5,0.8c0.1,0.3,0.2,0.6,0.2,1v0C114.2,55.5,114.1,55.8,114,56.1L114,56.1z M105.4,53.6
		v1.1h2.4v1h-2.4v1.9h-1.1v-5h3.8v1H105.4z M97.1,57.6v-5h3.8v1h-2.7v1h2.3v1h-2.3v1h2.7v1H97.1z M94.6,53.6v4h-1.1v-4H92v-1h4.1v1
		H94.6z M91,56.4c-0.1,0.3-0.2,0.5-0.4,0.7c-0.2,0.2-0.4,0.3-0.7,0.4c-0.3,0.1-0.6,0.1-0.9,0.1c-0.7,0-1.2-0.2-1.6-0.6
		c-0.4-0.4-0.6-0.9-0.6-1.7v-2.9h1.1v2.8c0,0.4,0.1,0.7,0.3,0.9c0.2,0.2,0.5,0.3,0.8,0.3c0.3,0,0.6-0.1,0.8-0.3
		c0.2-0.2,0.3-0.5,0.3-0.9v-2.9h1.1v2.8C91.1,55.8,91.1,56.1,91,56.4L91,56.4z M84.4,53.6v4h-1.1v-4h-1.5v-1h4.1v1H84.4z M79.6,57.6
		h1.1v-5h-1.1V57.6z M77.1,53.6v4H76v-4h-1.5v-1h4.1v1H77.1z M73.6,56.8c-0.1,0.2-0.2,0.4-0.4,0.5c-0.2,0.1-0.4,0.2-0.6,0.3
		c-0.2,0.1-0.5,0.1-0.7,0.1c-0.4,0-0.8-0.1-1.1-0.2c-0.4-0.1-0.7-0.3-1-0.6l0.6-0.8c0.2,0.2,0.5,0.3,0.7,0.4
		c0.2,0.1,0.5,0.2,0.8,0.2c0.2,0,0.4,0,0.5-0.1c0.1-0.1,0.2-0.2,0.2-0.3v0c0-0.1,0-0.1,0-0.2c0-0.1-0.1-0.1-0.1-0.2
		s-0.2-0.1-0.3-0.1c-0.1,0-0.3-0.1-0.5-0.1c-0.3-0.1-0.5-0.1-0.7-0.2c-0.2-0.1-0.4-0.2-0.5-0.3c-0.1-0.1-0.3-0.3-0.3-0.4
		C70,54.5,70,54.3,70,54.1v0c0-0.2,0-0.4,0.1-0.6c0.1-0.2,0.2-0.3,0.4-0.5c0.2-0.1,0.3-0.2,0.5-0.3c0.2-0.1,0.4-0.1,0.7-0.1
		c0.4,0,0.7,0.1,1,0.2c0.3,0.1,0.6,0.3,0.8,0.5L73,54c-0.2-0.2-0.4-0.3-0.7-0.4c-0.2-0.1-0.4-0.1-0.6-0.1c-0.2,0-0.4,0-0.5,0.1
		c-0.1,0.1-0.2,0.2-0.2,0.3v0c0,0.1,0,0.2,0,0.2c0,0.1,0.1,0.1,0.2,0.2c0.1,0,0.2,0.1,0.3,0.1c0.1,0,0.3,0.1,0.5,0.1
		c0.3,0.1,0.5,0.1,0.7,0.2c0.2,0.1,0.4,0.2,0.5,0.3c0.1,0.1,0.2,0.3,0.3,0.4c0.1,0.2,0.1,0.3,0.1,0.6v0
		C73.7,56.4,73.7,56.6,73.6,56.8L73.6,56.8z M67.8,57.6l-2.4-3.2v3.2h-1.1v-5h1l2.3,3.1v-3.1h1.1v5H67.8z M61.9,57.6H63v-5h-1.1
		V57.6z M116.2,18.5c-0.5,1.5-1.9,2.6-3.6,2.6c-2.1,0-3.8-1.7-3.8-3.8c0-0.9,0.3-1.7,0.8-2.4h-4.1l-2.1,5.1c1.2,4,4.8,6.9,9.2,6.9
		c2.4,0,4.5-0.9,6.2-2.3L116.2,18.5z M112.7,38.6c-5.6,0-10.7-2.2-14.5-5.8l-6.8,16.3h9.8l2.4-6.3h13l2.3,6H129l-5.6-13.2
		C120.3,37.5,116.6,38.6,112.7,38.6L112.7,38.6z M112.7,34.3c3.4,0,6.5-1,9.1-2.7l-1.3-3c-2.2,1.6-4.9,2.5-7.9,2.5
		c-4.7,0-8.8-2.4-11.3-6l-1.4,3.4C103,32.1,107.6,34.3,112.7,34.3L112.7,34.3z M86.7,25.9l4.7-6.7c0,0-4.4-4.1-13.4-4.1
		s-13.5,4.3-13.5,10.9s5.9,9,11.7,10.1c5.8,1.1,6.6,2.4,6.6,3.8s-0.8,2.3-4.9,2.3c-4.1,0-8.8-2.8-9.7-4.1l-5.4,6.2
		c0,0,5.4,5.6,15,5.6s14.5-4.1,14.5-10.9s-5.4-8.6-8.4-9.5c-3-0.9-10.1-1.6-10.1-4.5C73.6,22.1,80.6,21.6,86.7,25.9L86.7,25.9z
		 M51.4,49.1h9.5V15h-9.5V49.1z"/>
</g>
</svg>
