<?xml version="1.0" encoding="utf-8"?>
<!-- Generator: Adobe Illustrator 24.0.1, SVG Export Plug-In . SVG Version: 6.00 Build 0)  -->
<svg version="1.1" id="Layer_1" xmlns="http://www.w3.org/2000/svg" xmlns:xlink="http://www.w3.org/1999/xlink" x="0px" y="0px"
	 viewBox="0 0 180 80" style="enable-background:new 0 0 180 80;" xml:space="preserve">
<style type="text/css">
	.st0{fill-rule:evenodd;clip-rule:evenodd;fill:#979797;fill-opacity:0.3;}
</style>
<path class="st0" d="M83.3,33.5c-1-1.4-1.6-3.1-1.6-4.9c0-2.1,0.8-4.1,2.1-5.5c1.3,0.2,3.1,0.8,3.6,2l2-1.7c0,0-0.6-1.8-2.7-2.5
	c1-0.4,2.2-0.7,3.3-0.7c1.8,0,3.5,0.6,4.9,1.6l2.3-2.3c-2-1.6-4.5-2.5-7.2-2.5c-6.4,0-11.6,5.2-11.6,11.6c0,2.7,0.9,5.2,2.5,7.2
	L83.3,33.5z"/>
<path class="st0" d="M101.6,28.3c0-2.8-1-5.3-2.5-7.3l-2.3,2.3c1,1.4,1.6,3.1,1.6,5c0,2.3-0.9,4.4-2.4,5.9c-1-0.2-2.3-0.8-3.6-2.5
	l-1.8,2.2c0,0,0.9,1.4,2.5,2.3c-1,0.4-2,0.6-3.1,0.6c-1.9,0-3.6-0.6-5-1.6l-2.3,2.3c2,1.6,4.5,2.5,7.3,2.5
	C96.4,40,101.6,34.8,101.6,28.3"/>
<path class="st0" d="M29.1,47.4h-1.3v14.8h2.6v-7h6.9v-2h-6.9V49h6.9v-1.7h-6.9H29.1z"/>
<path class="st0" d="M41.5,62.1h2.1V47.4h-2.1V62.1z"/>
<path class="st0" d="M62.5,58.6L48.9,46.3v2.6v13.4h2V50.7l13.8,12.4v-2.6V47.2h-2.2V58.6z"/>
<path class="st0" d="M133.1,58.6l-13.6-12.3v2.6v13.4h2V50.7l13.8,12.4v-2.6V47.2h-2.2V58.6z"/>
<path class="st0" d="M75.8,52.8c-5-1.3-4-4.8-0.1-4.8c0,0,2.3,0,3.4,1.8l1.9-1c0,0-1.2-2.5-5.4-2.5c-4.2,0-5.5,2.2-5.5,3.8
	s0.9,3.1,5.2,4.3c4.4,1.2,4,3.1,4,3.1s0,2.9-4,2.9c-4,0-3.9-2.9-3.9-2.9l-2.4,0.6c0,0,1.1,4,6.2,4c5,0,6.5-3.1,6.5-4.8
	C81.6,55.7,80.8,54.1,75.8,52.8"/>
<path class="st0" d="M83.7,48.9h4.6v13.2h2.2V48.9h4.8v-1.6H83.7V48.9z"/>
<path class="st0" d="M105.8,60.3c-3.6,0-6.4-2.7-6.4-6c0-3.3,2.9-6,6.4-6c3.6,0,6.4,2.7,6.4,6C112.2,57.6,109.4,60.3,105.8,60.3
	 M105.8,46.3c-4.7,0-8.4,3.5-8.4,7.9c0,4.4,3.8,7.9,8.4,7.9c4.7,0,8.4-3.5,8.4-7.9C114.2,49.9,110.5,46.3,105.8,46.3"/>
<path class="st0" d="M152.2,48.9v-1.5H144h-1.2h-1.2v14.8h0.4h2h8.1v-1.5H144v-5.8h8v-1.5h-8v-4.4H152.2z"/>
</svg>
