<?xml version="1.0" encoding="utf-8"?>
<!-- Generator: Adobe Illustrator 24.0.1, SVG Export Plug-In . SVG Version: 6.00 Build 0)  -->
<svg version="1.1" id="Layer_1" xmlns="http://www.w3.org/2000/svg" xmlns:xlink="http://www.w3.org/1999/xlink" x="0px" y="0px"
	 viewBox="0 0 179 80" style="enable-background:new 0 0 179 80;" xml:space="preserve">
<style type="text/css">
	.st0{fill-rule:evenodd;clip-rule:evenodd;fill:#979797;fill-opacity:0.3;}
</style>
<path class="st0" d="M127.1,43.8c-1.1,3.6-4,6.4-7.7,7.5c-8.8,2.7-16.8-4.2-15.9-12.6c0.6-5.5,5.1-10,10.7-10.5
	C122.8,27.3,129.8,35.2,127.1,43.8z M115.6,24.1c-0.6,0-1.2,0-1.8,0.1c-7.6,0.8-13.6,6.7-14.4,14.1c-0.5,4.5,1,9,4.1,12.4
	c3.1,3.4,7.5,5.3,12.1,5.3c1.7,0,3.4-0.3,5.1-0.8c5-1.5,8.8-5.3,10.4-10.2c1.6-5,0.7-10.3-2.4-14.4
	C125.6,26.5,120.7,24.1,115.6,24.1z"/>
<path class="st0" d="M22.7,39.5h7.1c0.3,0,0.6,0.2,0.6,0.5c0,0.3-0.2,0.5-0.6,0.5h-7.1c-0.3,0-0.6,0.2-0.6,0.5v8.4
	c0,0.8,0.6,1.4,1.4,1.4h8.6c0.3,0,0.6,0.2,0.6,0.5c0,0.3-0.2,0.5-0.6,0.5h-8.6c-1.4,0-2.5-1.1-2.5-2.5V30.6c0-1.4,1.1-2.5,2.5-2.5
	h8.6c0.3,0,0.6,0.2,0.6,0.5c0,0.3-0.2,0.5-0.6,0.5h-8.6c-0.8,0-1.4,0.6-1.4,1.4V39C22.2,39.3,22.4,39.5,22.7,39.5z M32.2,33.2
	c2.6,0,4.6-2,4.6-4.5c0-2.5-2.1-4.5-4.6-4.5h-8.6C20,24.1,17,27,17,30.6v18.9c0,3.6,3,6.5,6.6,6.5h8.6c2.6,0,4.6-2,4.6-4.5
	c0-2.5-2.1-4.5-4.6-4.5h-5.9v-2.3h3.6c2.6,0,4.6-2,4.6-4.5c0-2.5-2.1-4.5-4.6-4.5h-3.6v-2.3H32.2z"/>
<path class="st0" d="M120.3,44.9c-1.3,1.4-3,2.1-4.8,2.1h0c-0.2,0-0.4,0-0.5,0c-3.2-0.3-5.7-2.8-6-6c-0.1-1.9,0.5-3.6,1.7-5
	c1.3-1.4,3-2.1,4.8-2.1c0.2,0,0.4,0,0.5,0c3.2,0.3,5.7,2.8,6,6C122.2,41.8,121.6,43.6,120.3,44.9z M116.4,30
	c-6.5-0.5-11.8,4.9-11.3,11.3c0.4,5.1,4.5,9.2,9.6,9.6c6.5,0.5,11.8-4.9,11.3-11.3C125.6,34.6,121.4,30.4,116.4,30z"/>
<path class="st0" d="M91.8,48c-1.4,1.6-3.2,2.8-5.2,3.4c-9.7,3-18.4-6.2-14.8-15.9c1.1-3,3.5-5.3,6.4-6.5c5.2-2,10.3-0.4,13.4,3.1
	c0.2,0.2,0.2,0.6-0.1,0.8c-0.2,0.2-0.5,0.1-0.7-0.1c-1.8-2-4.3-3.4-7.1-3.6c-6.7-0.5-12.2,5.1-11.6,11.8c0.5,5.1,4.5,9.2,9.5,9.8
	c3.7,0.4,7-1.1,9.2-3.6c0.2-0.2,0.5-0.3,0.8-0.1C92,47.3,92.1,47.7,91.8,48z M94.1,43.8c-0.8-0.6-1.7-0.9-2.7-0.9
	c-1.3,0-2.6,0.6-3.5,1.6c-1.3,1.5-3.1,2.3-5,2.3c-0.2,0-0.5,0-0.7,0c-3.1-0.3-5.7-2.9-6-6.1c-0.2-1.9,0.4-3.8,1.7-5.2
	c1.3-1.4,3.1-2.2,5-2.2c0.2,0,0.4,0,0.6,0c1.7,0.1,3.3,0.9,4.5,2.3c0.9,1,2.1,1.5,3.4,1.5c1,0,2-0.3,2.7-0.9c1-0.8,1.7-2,1.8-3.2
	c0.1-1.3-0.3-2.6-1.1-3.5c-3-3.4-7.3-5.3-11.8-5.3c-2,0-4.1,0.4-6,1.1c-4,1.5-7.2,4.8-8.7,8.8c-1.9,5.2-1.3,10.7,1.7,15.1
	c3,4.3,7.9,6.9,13.1,6.9h0c1.7,0,3.3-0.3,5-0.8c2.7-0.8,5.1-2.4,7-4.6c0.9-1,1.3-2.3,1.1-3.6C95.8,45.7,95.1,44.5,94.1,43.8z"/>
<path class="st0" d="M61.8,28.9l-7.4,10.3c-0.1,0.2-0.1,0.4,0,0.6l7.4,10.3c0.2,0.2,0.1,0.6-0.1,0.8c-0.3,0.2-0.6,0.1-0.8-0.1
	l-7.9-11c-0.1-0.2-0.1-0.4,0-0.6l7.9-11c0.2-0.2,0.5-0.3,0.8-0.1h0C61.9,28.3,62,28.6,61.8,28.9z M46.2,50.4c0,0.3-0.3,0.5-0.6,0.5
	c-0.3,0-0.6-0.2-0.6-0.5V28.6c0-0.3,0.3-0.5,0.6-0.5c0.3,0,0.6,0.2,0.6,0.5V50.4z M64,24.8c-0.8-0.5-1.7-0.8-2.7-0.8
	c-1.5,0-3,0.7-3.8,1.9l-7.1,9.9v-7.2c0-2.5-2.1-4.5-4.7-4.5c-2.6,0-4.7,2-4.7,4.5v21.7c0,2.5,2.1,4.5,4.7,4.5c2.6,0,4.7-2,4.7-4.5
	v-7.2l7.1,9.9c0.9,1.2,2.3,1.9,3.8,1.9h0c1,0,1.9-0.3,2.7-0.8c2.1-1.4,2.6-4.3,1.2-6.3l-6-8.4l6-8.4C66.6,29.1,66.1,26.2,64,24.8z"
	/>
<path class="st0" d="M158,50.3c0,0.7-0.9,1-1.4,0.5l-15.6-20.2v19.9c0,0.3-0.2,0.5-0.5,0.5c-0.3,0-0.5-0.2-0.5-0.5v-22
	c0-0.3,0.4-0.5,0.7-0.2l16.3,21.1V29c0-0.3,0.2-0.5,0.5-0.5c0.3,0,0.5,0.2,0.5,0.5V50.3z M157.5,24.5c-2.5,0-4.5,2-4.5,4.5v8.5
	l-9.1-11.9c-0.8-1.1-2.1-1.7-3.4-1.7c-2.4,0-4.4,2-4.4,4.4v22c0,2.5,2,4.5,4.5,4.5c2.5,0,4.5-2,4.5-4.5v-8.1l8.4,10.9
	c0.9,1.2,2.3,1.9,3.8,1.9c2.6,0,4.8-2.1,4.8-4.7V29C162,26.5,160,24.5,157.5,24.5z"/>
</svg>
