<svg width="48" height="48" viewBox="0 0 48 48" fill="none" xmlns="http://www.w3.org/2000/svg">
<g id="closing-quote-mark">
<g id="Group 3">
<mask id="mask0" mask-type="alpha" maskUnits="userSpaceOnUse" x="25" y="0" width="23" height="49">
<path id="Clip 2" fill-rule="evenodd" clip-rule="evenodd" d="M47.335 48.001L25.8636 48.001L25.8636 -2.47653e-05L47.335 -2.28882e-05L47.335 48.001Z" fill="white"/>
</mask>
<g mask="url(#mask0)">
<path id="Fill 1" fill-rule="evenodd" clip-rule="evenodd" d="M36.7756 21.448L36.7756 30.763L36.7826 30.763C36.6526 34.483 33.6036 37.461 29.8526 37.461L29.8526 48.001C39.5076 48.001 47.3356 40.174 47.3356 30.518C47.3356 30.362 47.3196 30.208 47.3116 30.054L47.3116 21.448L47.3116 7.92198L47.3116 -2.28903e-05L25.8636 -2.47653e-05L25.8636 21.448L36.7756 21.448Z" fill="#DEDD00"/>
</g>
</g>
<g id="Group 6">
<mask id="mask1" mask-type="alpha" maskUnits="userSpaceOnUse" x="0" y="0" width="22" height="49">
<path id="Clip 5" fill-rule="evenodd" clip-rule="evenodd" d="M21.4714 48.001L-2.47955e-05 48.001L-2.05992e-05 -2.47653e-05L21.4714 -2.28882e-05L21.4714 48.001Z" fill="white"/>
</mask>
<g mask="url(#mask1)">
<path id="Fill 4" fill-rule="evenodd" clip-rule="evenodd" d="M10.9114 21.448L10.9114 30.763L10.9194 30.763C10.7884 34.483 7.74038 37.461 3.98838 37.461L3.98837 48.001C13.6434 48.001 21.4714 40.174 21.4714 30.518C21.4714 30.362 21.4554 30.208 21.4474 30.054L21.4474 21.448L21.4474 7.92198L21.4474 -2.28903e-05L-0.000621414 -2.47653e-05L-0.000623289 21.448L10.9114 21.448Z" fill="#DEDD00"/>
</g>
</g>
</g>
</svg>
