<svg width="11" height="22" viewBox="0 0 11 22" fill="none" xmlns="http://www.w3.org/2000/svg">
<path fill-rule="evenodd" clip-rule="evenodd" d="M2.42418 11.0867V21.723C2.42418 21.8763 2.55806 22 2.72232 22H6.97296C7.13795 22 7.2711 21.8763 7.2711 21.723V10.9133H10.3523C10.5079 10.9133 10.6367 10.8037 10.6498 10.6598L10.9457 7.40259C10.9609 7.24121 10.8234 7.1027 10.649 7.1027H7.2711V4.79161C7.2711 4.25032 7.74363 3.81124 8.32616 3.81124H10.7011C10.8661 3.81124 11 3.68684 11 3.5342V0.277034C11 0.124396 10.8661 0 10.7011 0H6.68857C4.33314 0 2.42418 1.77382 2.42418 3.96253V7.1027H0.298138C0.133873 7.1027 0 7.22642 0 7.37973V10.6369C0 10.7895 0.133873 10.9133 0.298138 10.9133H2.42418V11.0867Z" fill="white"/>
</svg>
