<svg width="23" height="23" viewBox="0 0 23 23" fill="none" xmlns="http://www.w3.org/2000/svg">
<path fill-rule="evenodd" clip-rule="evenodd" d="M20.8299 16.0722C20.8299 18.6998 18.6996 20.83 16.0713 20.83H6.92804C4.30037 20.83 2.17007 18.6998 2.17007 16.0722V6.92783C2.17007 4.30024 4.30037 2.17 6.92804 2.17H16.0713C18.6996 2.17 20.8299 4.30024 20.8299 6.92783V16.0722ZM23 6.92783C23 3.10135 19.8979 0 16.0713 0H6.92804C3.10144 0 0 3.10135 0 6.92783V16.0722C0 19.898 3.10144 23 6.92804 23H16.0713C19.8979 23 23 19.898 23 16.0722V6.92783ZM11.5391 15.2864C9.53211 15.2864 7.89985 13.6548 7.89985 11.6486C7.89985 9.64168 9.53211 8.01014 11.5391 8.01014C13.5447 8.01014 15.177 9.64168 15.177 11.6486C15.177 13.6548 13.5447 15.2864 11.5391 15.2864ZM11.5391 5.96818C8.40665 5.96818 5.8585 8.51625 5.8585 11.6486C5.8585 14.7803 8.40665 17.3283 11.5391 17.3283C14.6709 17.3283 17.219 14.7803 17.219 11.6486C17.219 8.51625 14.6709 5.96818 11.5391 5.96818ZM17.5506 4.23487C16.8032 4.23487 16.198 4.84005 16.198 5.58674C16.198 6.33344 16.8032 6.93862 17.5506 6.93862C18.2973 6.93862 18.9025 6.33344 18.9025 5.58674C18.9025 4.84005 18.2973 4.23487 17.5506 4.23487Z" fill="white"/>
</svg>
