<svg width="21" height="20" viewBox="0 0 21 20" fill="none" xmlns="http://www.w3.org/2000/svg">
<path fill-rule="evenodd" clip-rule="evenodd" d="M2.40711 0C1.07769 0 0 1.07461 0 2.40023C0 3.72585 1.07769 4.79974 2.40711 4.79974C3.7358 4.79974 4.81349 3.72585 4.81349 2.40023C4.81349 1.07461 3.7358 0 2.40711 0ZM0.626038 20H4.45742C4.64056 20 4.78941 19.8516 4.78941 19.669V6.84637C4.78941 6.66376 4.64056 6.51533 4.45742 6.51533H0.626038C0.442896 6.51533 0.294048 6.66376 0.294048 6.84637V19.669C0.294048 19.8516 0.442896 20 0.626038 20ZM21 12.2667V19.669C21 19.8516 20.8512 20 20.668 20H16.8359C16.652 20 16.5039 19.8516 16.5039 19.669V12.7847C16.5039 10.9738 15.8545 9.73626 14.2267 9.73626C12.9841 9.73626 12.2457 10.5693 11.9203 11.3755C11.8021 11.6643 11.7714 12.0645 11.7714 12.4683V19.6682C11.7714 19.8516 11.6226 19.9993 11.4394 19.9993H7.60877C7.4249 19.9993 7.27605 19.8516 7.27678 19.6682C7.28554 17.8355 7.32348 8.94103 7.28481 6.85074C7.28116 6.66521 7.43074 6.51533 7.6168 6.51533H11.4402C11.6233 6.51533 11.7721 6.66376 11.7721 6.84637V8.42592C11.7627 8.44119 11.7503 8.45575 11.7422 8.4703H11.7721V8.42592C12.369 7.50919 13.435 6.19884 15.8246 6.19884C18.7819 6.19884 21 8.12543 21 12.2667Z" fill="white"/>
</svg>
