<svg width="24" height="20" viewBox="0 0 24 20" fill="none" xmlns="http://www.w3.org/2000/svg">
<path fill-rule="evenodd" clip-rule="evenodd" d="M23.91 2.39707C23.148 2.74666 22.3091 2.9581 21.4859 3.09778C21.8767 3.03137 22.4517 2.31615 22.6825 2.02686C23.0333 1.58567 23.3261 1.08265 23.4898 0.539172C23.5109 0.49719 23.5268 0.443759 23.4853 0.4117C23.4317 0.390327 23.3978 0.401013 23.3563 0.422386C22.4381 0.920063 21.4874 1.28187 20.4764 1.53758C20.3927 1.55819 20.3308 1.53758 20.278 1.48415C20.1943 1.38873 20.1158 1.29866 20.0268 1.22386C19.6013 0.857472 19.1456 0.570468 18.631 0.359031C17.9558 0.0804238 17.2186 -0.0371258 16.4921 0.0101994C15.7844 0.0567612 15.0903 0.258275 14.4626 0.590314C13.8333 0.923117 13.2712 1.38568 12.8246 1.94366C12.3614 2.52072 12.0211 3.20236 11.8468 3.92521C11.6778 4.62287 11.6921 5.31214 11.794 6.01744C11.8098 6.13422 11.8 6.15025 11.6952 6.13422C7.73947 5.53884 4.46129 4.10688 1.79952 1.03838C1.68408 0.904797 1.62146 0.904797 1.5264 1.0483C0.362251 2.8146 0.92735 5.65258 2.38197 7.04714C2.57587 7.23263 2.77505 7.41887 2.99007 7.58833C2.91161 7.60436 1.94362 7.49826 1.08051 7.04714C0.965073 6.9731 0.906979 7.01508 0.897171 7.1479C0.885854 7.33873 0.902452 7.51429 0.928104 7.72191C1.15143 9.51187 2.37744 11.1682 4.05614 11.814C4.25457 11.8987 4.47487 11.9735 4.6899 12.0102C4.30813 12.0949 3.91355 12.156 2.8173 12.0689C2.68074 12.0422 2.62868 12.1117 2.68074 12.2437C3.50462 14.5161 5.28367 15.1924 6.61531 15.5779C6.79412 15.6092 6.97293 15.6092 7.15098 15.6519C7.14042 15.6679 7.12986 15.668 7.11929 15.684C6.67793 16.3649 5.1456 16.8725 4.43262 17.1243C3.13493 17.5839 1.72256 17.7899 0.350934 17.6533C0.131383 17.6205 0.08536 17.6228 0.0265112 17.6533C-0.0338464 17.6907 0.0182121 17.7434 0.0891323 17.8014C0.367532 17.9876 0.650459 18.1525 0.939421 18.3113C1.81008 18.7784 2.71771 19.1502 3.66683 19.415C8.57014 20.7852 14.0929 19.7784 17.7739 16.0778C20.6651 13.1719 21.6783 9.16456 21.6783 5.15185C21.6783 4.99461 21.8617 4.90835 21.9711 4.82515C22.7233 4.25343 23.3208 3.56951 23.8821 2.80544C24.0081 2.63369 23.9998 2.48103 23.9998 2.41844V2.39707C23.9998 2.33295 24.0081 2.35203 23.91 2.39707Z" fill="white"/>
</svg>
