<svg width="22" height="18" viewBox="0 0 22 18" fill="none" xmlns="http://www.w3.org/2000/svg">
<path fill-rule="evenodd" clip-rule="evenodd" d="M20.5889 7H1.41114C0.631714 7 0 7.59959 0 8.3374V8.66362C0 9.40142 0.631714 10 1.41114 10H20.5889C21.3683 10 22 9.40142 22 8.66362V8.3374C22 7.59959 21.3683 7 20.5889 7ZM20.5889 0H1.41114C0.631714 0 0 0.598577 0 1.33943V1.66159C0 2.40142 0.631714 3 1.41114 3H20.5889C21.3683 3 22 2.40142 22 1.66159V1.33943C22 0.598577 21.3683 0 20.5889 0ZM20.5889 15H1.41114C0.631714 15 0 15.5994 0 16.34V16.6631C0 17.4026 0.631714 18 1.41114 18H20.5889C21.3683 18 22 17.4026 22 16.6631V16.34C22 15.5994 21.3683 15 20.5889 15Z" fill="#007E8C"/>
</svg>
