<?xml version="1.0" encoding="utf-8"?>
<!-- Generator: Adobe Illustrator 24.0.1, SVG Export Plug-In . SVG Version: 6.00 Build 0)  -->
<svg version="1.1" id="Layer_1" xmlns="http://www.w3.org/2000/svg" xmlns:xlink="http://www.w3.org/1999/xlink" x="0px" y="0px"
	 viewBox="0 0 500 153.5" style="enable-background:new 0 0 500 153.5;" xml:space="preserve">
<style type="text/css">
	.st0{fill:#FFFFFF;}
</style>
<g>
	<path class="st0" d="M313.7,49.3c10.8-3,18.4-10.6,18.4-23.4c0-15.2-10.9-24.4-28.7-24.4H269v77.2h13.5V13.9h19.8
		c10,0,16,4.4,16,12.9c0,7.9-6.1,13-15.9,13h-11.3l8.5,12l18.9,26.9h16L313.7,49.3z"/>
	<path class="st0" d="M159.4,66.1h26.7l-6.9,12.4h-33.3V1.4h13.5V66.1z"/>
	<path class="st0" d="M0,78.5h13.5V47.1h39V34.7h-39v-21h44V1.4H0V78.5z"/>
	<path class="st0" d="M116.9,45.7c0,14.3-7.4,21.5-19.4,21.5c-12.1,0-19.5-7.8-19.5-22V1.4H64.4v44.5c0,22.4,12.8,33.9,32.8,33.9
		c20.2,0,33.2-11.5,33.2-34.6V1.4h-13.5V45.7z"/>
	<path class="st0" d="M395.9,45.7c0,14.3-7.4,21.5-19.4,21.5c-12.1,0-19.5-7.8-19.5-22V1.4h-13.5v44.5c0,22.4,12.8,33.9,32.8,33.9
		c20.2,0,33.2-11.5,33.2-34.6V1.4h-13.5V45.7z"/>
	<path class="st0" d="M485.5,1.4L462,37.8L438.5,1.4h-14.4v77.2h13.4V23.4l24,36.1h3.1l21.7-36.3v55.4H500V1.4H485.5z"/>
	<path class="st0" d="M222.6,0.1l-8,14.4c3-1.4,6.5-2.1,10.1-2.1c8.8,0,15.4,3.9,21.5,9.6l8.8-10c-7.4-7-16-12-30.2-12
		C224.1,0,223.3,0.1,222.6,0.1z"/>
	<path class="st0" d="M246.9,57.4c-6.6,6.1-12.7,10-22.2,10c-14,0-24.3-11.1-25.3-25.2l-9.5,17.3c6.5,12.3,19.2,20.4,34.4,20.4
		c14.4,0,23.3-5.3,31.3-13.7L246.9,57.4z"/>
	<path class="st0" d="M41.5,112.1h-4v-2.5h17.4c7.5,0,13,4.8,13,12.5c0,7.8-5.5,12.7-13,12.7H44v17.8h-2.6v-40.5H41.5z M54.7,132.2
		c6.3,0,10.4-3.8,10.4-10.1c0-6.4-4.1-10-10.4-10H44v20.2H54.7z"/>
	<path class="st0" d="M74,125.6c0-0.9-0.5-1.4-1.4-1.4H70v-2.4h3c2.5,0,3.5,1,3.5,3.4v2.1c0,1.4-0.1,2.5-0.1,2.5h0.1
		c1.5-4.8,4.9-8.3,9.6-8.3c0.9,0,1.8,0.1,1.8,0.1v2.6c0,0-0.8-0.1-1.4-0.1c-4.8,0-7.8,4-9.1,8.5c-0.6,2.1-0.9,4.4-0.9,6.4v13.3h-2.6
		v-26.8H74z"/>
	<path class="st0" d="M104.7,121.1c8.3,0,12.5,6.5,12.5,13.9c0,0.6-0.1,1.6-0.1,1.6H92.6c0,8.9,6,13.9,13.2,13.9
		c5.9,0,9.5-3.9,9.5-3.9l1.4,2.1c0,0-4.3,4.3-10.9,4.3c-8.6,0-15.8-6.3-15.8-16C89.8,126.8,96.8,121.1,104.7,121.1z M114.5,134.3
		c-0.3-7.5-4.8-10.9-9.9-10.9c-5.6,0-10.9,3.6-11.9,10.9H114.5z"/>
	<path class="st0" d="M125,125.6c0-0.9-0.5-1.4-1.4-1.4H121v-2.4h3c2.5,0,3.5,1,3.5,3.4v1.8c0,1.4-0.1,2.5-0.1,2.5h0.1
		c1.5-4.6,6.9-8.3,11.6-8.3c6.1,0,9,2.9,9.6,8.3h0.1c1.8-4.6,6.4-8.3,11.6-8.3c7.9,0,10.3,4.6,10.3,11.9v15.8c0,0.9,0.5,1.4,1.4,1.4
		h2.6v2.4h-3c-2.5,0-3.5-1-3.5-3.5v-14.9c0-5.8-1.1-10.5-7.6-10.5c-5.1,0-9.4,4.5-10.8,9.3c-0.4,1.4-0.6,2.9-0.6,4.8v14.9h-2.6
		v-18.5c0-5.3-0.8-10.5-7.5-10.5c-5.5,0-9.8,4.8-11.1,9.9c-0.4,1.3-0.5,2.8-0.5,4.1v14.9h-2.6v-26.9H125z"/>
	<path class="st0" d="M181.1,125.6c0-0.9-0.5-1.4-1.4-1.4h-2.6v-2.4h3c2.5,0,3.5,1,3.5,3.5v23.4c0,0.9,0.5,1.4,1.4,1.4h2.6v2.4h-3
		c-2.5,0-3.5-1-3.5-3.5V125.6z M180.7,109.5h2.8v4.5h-2.8V109.5z"/>
	<path class="st0" d="M193.8,125.6c0-0.9-0.5-1.4-1.4-1.4h-2.6v-2.4h3c2.5,0,3.5,1,3.5,3.4v15.2c0,5.4,0.6,10.4,7.5,10.4
		c7.6,0,12.5-6.8,12.5-13.9v-14.9h2.6v26.9c0,0.9,0.5,1.4,1.4,1.4h2.6v2.4h-3c-2.5,0-3.5-1-3.5-3.4v-1.8c0-1.4,0.1-2.5,0.1-2.5h-0.1
		c-1,2.9-5.1,8.3-12.5,8.3c-7.5,0-10.1-4.1-10.1-11.9V125.6z"/>
	<path class="st0" d="M229,125.6c0-0.9-0.5-1.4-1.4-1.4H225v-2.4h3c2.5,0,3.5,1,3.5,3.4v1.8c0,1.4-0.1,2.5-0.1,2.5h0.1
		c1.5-4.6,6.9-8.3,11.6-8.3c6.1,0,9,2.9,9.6,8.3h0.1c1.8-4.6,6.4-8.3,11.6-8.3c7.9,0,10.3,4.6,10.3,11.9v15.8c0,0.9,0.5,1.4,1.4,1.4
		h2.6v2.4h-3c-2.5,0-3.5-1-3.5-3.5v-14.9c0-5.8-1.1-10.5-7.6-10.5c-5.1,0-9.4,4.5-10.8,9.3c-0.4,1.4-0.6,2.9-0.6,4.8v14.9h-2.6
		v-18.5c0-5.3-0.8-10.5-7.5-10.5c-5.5,0-9.8,4.8-11.1,9.9c-0.4,1.3-0.5,2.8-0.5,4.1v14.9h-2.6v-26.9H229z"/>
	<path class="st0" d="M301.9,112h-4v-2.5h22c2.5,0,3.5,1,3.5,3.5v3.3h-2.6v-3c0-0.9-0.5-1.4-1.4-1.4h-15v17.9h16.4v2.5h-16.4v20
		h-2.5V112z"/>
	<path class="st0" d="M329.8,125.6c0-0.9-0.5-1.4-1.4-1.4h-2.6v-2.4h3c2.5,0,3.5,1,3.5,3.5v23.4c0,0.9,0.5,1.4,1.4,1.4h2.6v2.4h-3
		c-2.5,0-3.5-1-3.5-3.5V125.6z M329.4,109.5h2.8v4.5h-2.8V109.5z"/>
	<path class="st0" d="M342.6,125.6c0-0.9-0.5-1.4-1.4-1.4h-2.6v-2.4h3c2.5,0,3.5,1,3.5,3.4v1.8c0,1.4-0.1,2.5-0.1,2.5h0.1
		c1-2.9,5.3-8.3,12.9-8.3c8,0,10.1,4.8,10.1,11.9v15.8c0,0.9,0.5,1.4,1.4,1.4h2.6v2.4h-3c-2.5,0-3.5-1-3.5-3.5v-14.9
		c0-5.4-0.6-10.4-7.5-10.4c-5.8,0-10.9,4-12.4,9.8c-0.4,1.3-0.5,2.8-0.5,4.1v14.9h-2.6V125.6z"/>
	<path class="st0" d="M394.2,133.8h2v-0.4c0-7.3-2.5-9.9-8.9-9.9c-1.6,0-6.8,0.4-6.8,3v2.1h-2.6V126c0-3.6,6.9-4.6,9.4-4.6
		c9.4,0,11.4,5.1,11.4,11.5V149c0,0.9,0.5,1.4,1.4,1.4h2.6v2.4h-3c-2.5,0-3.5-1-3.5-3.8c0-1.6,0.1-2.8,0.1-2.8h-0.1
		c0,0-2.6,7.3-10.6,7.3c-5,0-10.4-2.8-10.4-8.9C375.2,134,388.8,133.8,394.2,133.8z M385.8,150.8c6.6,0,10.5-6.9,10.5-13v-1.6h-2
		c-5.3,0-16.4,0-16.4,8C377.9,147.4,380.5,150.8,385.8,150.8z"/>
	<path class="st0" d="M408.6,125.6c0-0.9-0.5-1.4-1.4-1.4h-2.6v-2.4h3c2.5,0,3.5,1,3.5,3.4v1.8c0,1.4-0.1,2.5-0.1,2.5h0.1
		c1-2.9,5.3-8.3,12.9-8.3c8,0,10.1,4.8,10.1,11.9v15.8c0,0.9,0.5,1.4,1.4,1.4h2.6v2.4h-3c-2.5,0-3.5-1-3.5-3.5v-14.9
		c0-5.4-0.6-10.4-7.5-10.4c-5.8,0-10.9,4-12.4,9.8c-0.4,1.3-0.5,2.8-0.5,4.1v14.9h-2.6V125.6z"/>
	<path class="st0" d="M457,121.1c3.3,0,10.8,1.4,10.8,6.4v2.4h-2.6v-1.8c0-3-5.3-4.4-8.3-4.4c-7.1,0-13.2,5.4-13.2,13.7
		c0,8.1,5.9,13.5,13.2,13.5c6.8,0,10.3-4.4,10.3-4.4l1.4,2.1c0,0-4,4.8-11.5,4.8c-8.6,0-15.8-6.3-15.8-16S448.5,121.1,457,121.1z"/>
	<path class="st0" d="M487.2,121.1c8.3,0,12.5,6.5,12.5,13.9c0,0.6-0.1,1.6-0.1,1.6h-24.5c0,8.9,6,13.9,13.2,13.9
		c5.9,0,9.5-3.9,9.5-3.9l1.4,2.1c0,0-4.3,4.3-10.9,4.3c-8.6,0-15.8-6.3-15.8-16C472.4,126.8,479.5,121.1,487.2,121.1z M497.1,134.3
		c-0.3-7.5-4.8-10.9-9.9-10.9c-5.6,0-10.9,3.6-11.9,10.9H497.1z"/>
</g>
</svg>
