<svg width="136" height="133" viewBox="0 0 136 133" fill="none" xmlns="http://www.w3.org/2000/svg">
<path d="M0 66.5C0 29.7731 29.7731 0 66.5 0H69.5C106.227 0 136 29.7731 136 66.5C136 103.227 106.227 133 69.5 133H66.5C29.7731 133 0 103.227 0 66.5Z" fill="#FFFEFE"/>
<path d="M0 66.5C0 29.7731 29.7731 0 66.5 0H69.5C106.227 0 136 29.7731 136 66.5C136 103.227 106.227 133 69.5 133H66.5C29.7731 133 0 103.227 0 66.5Z" fill="url(#paint0_radial)"/>
<path d="M34.2 75.6H54C54.7 75.6 55.2 75 55.2 74.4V37.3C55.2 36.6 54.6 36.1 54 36.1H34.2C33.5 36.1 33 36.7 33 37.3V74.4C33 75 33.6 75.6 34.2 75.6ZM35.5 38.4999H52.8V73.1H35.5V38.4999Z" fill="#093C3D"/>
<path d="M72.5001 50.9C76.6001 50.9 79.9001 47.5999 79.9001 43.4999C79.9001 39.3999 76.6001 36.1 72.5001 36.1C68.4001 36.1 65.1001 39.3999 65.1001 43.4999C65.1001 47.4999 68.4001 50.9 72.5001 50.9ZM72.5001 38.4999C75.2001 38.4999 77.4001 40.7 77.4001 43.4C77.4001 46.1 75.2001 48.3 72.5001 48.3C69.8001 48.3 67.6001 46.1 67.6001 43.4C67.6001 40.7 69.8001 38.4999 72.5001 38.4999Z" fill="#093C3D"/>
<path d="M86.1002 53.3C80.7002 53.3 76.2002 57.7 76.2002 63.2C76.2002 68.6 80.6002 73.1 86.1002 73.1C91.6002 73.1 96.0002 68.7 96.0002 63.2C96.0002 57.8 91.6002 53.3 86.1002 53.3ZM86.1002 70.6C82.0002 70.6 78.7002 67.3 78.7002 63.2C78.7002 59.1 82.0002 55.8 86.1002 55.8C90.2002 55.8 93.5002 59.1 93.5002 63.2C93.5002 67.3 90.2002 70.6 86.1002 70.6Z" fill="#007E8C"/>
<path d="M94.8 92.4001L92.3 98.6001C92 99.2001 92.4 100 93 100.2L99.2 102.7L100.1 100.4L96.8 99.1001C101.1 96.9001 104.1 92.7001 104.5 88.1001C105 82.4001 101.5 78.4001 100.4 77.2001L98.6 78.9001C99.5 79.8001 102.4 83.2001 102 87.8001C101.7 91.6001 99.2 95.0001 95.6 96.8001L97 93.3001L94.8 92.4001Z" fill="#093C3D"/>
<path d="M99.7001 36C95.6001 36 92.3 39.3 92.3 43.4C92.3 47.5 95.6001 50.8 99.7001 50.8C103.8 50.8 107.1 47.5 107.1 43.4C107.1 39.4 103.8 36 99.7001 36ZM99.7001 48.4C97.0001 48.4 94.8 46.2 94.8 43.5C94.8 40.8 97.0001 38.6 99.7001 38.6C102.4 38.6 104.6 40.8 104.6 43.5C104.6 46.2 102.4 48.4 99.7001 48.4Z" fill="#093C3D"/>
<path d="M39.6002 77.2001C38.5002 78.3001 35.0002 82.4001 35.5002 88.1001C35.9002 92.7001 38.9002 96.9001 43.2002 99.1001L39.9002 100.4L40.8002 102.7L47.0002 100.2C47.6002 99.9001 47.9002 99.2001 47.7002 98.6001L45.2002 92.4001L42.9002 93.3001L44.3002 96.8001C40.7002 94.9001 38.3002 91.6001 37.9002 87.8001C37.5002 83.2001 40.4002 79.8001 41.3002 78.9001L39.6002 77.2001Z" fill="#093C3D"/>
<path d="M52.7999 79.3V91.7H51.5999C50.8999 91.7 50.3999 92.3 50.3999 92.9V108.9C50.3999 109.6 50.9999 110.1 51.5999 110.1H88.6999C89.3999 110.1 89.8999 109.5 89.8999 108.9V92.8C89.8999 92.1 89.2999 91.6 88.6999 91.6H87.4999V79.2C87.4999 78.5 86.8999 78 86.2999 78H75.6999C75.9999 77.2 76.1999 76.4 76.1999 75.5C76.1999 72.1 73.3999 69.3 69.9999 69.3C66.5999 69.3 63.7999 72.1 63.7999 75.5C63.7999 76.4 63.9999 77.2 64.2999 78H53.9999C53.2999 78 52.7999 78.6 52.7999 79.3ZM87.2999 107.7H52.7999V94.1H53.9999H58.8999C59.5999 94.1 60.0999 93.5 60.0999 92.9V86.7H79.8999V92.9C79.8999 93.6 80.4999 94.1 81.0999 94.1H85.9999H87.1999V107.7H87.2999ZM66.3999 75.6C66.3999 73.6 68.0999 71.9 70.0999 71.9C72.0999 71.9 73.7999 73.6 73.7999 75.6C73.7999 76.5 73.4999 77.4 72.7999 78.1H67.2999C66.6999 77.3 66.3999 76.5 66.3999 75.6ZM55.1999 80.5H66.7999H73.2999H84.8999V91.6H82.3999V85.4C82.3999 84.7 81.7999 84.2 81.1999 84.2H58.8999C58.1999 84.2 57.6999 84.8 57.6999 85.4V91.6H55.1999V80.5Z" fill="#093C3D"/>
<path d="M86.1 60.7C86.8 60.7 87.3 61.3 87.3 61.9H89.8C89.8 60.3 88.8 58.9 87.3 58.4V56.9H84.8V58.4C83.4 58.9 82.3 60.3 82.3 61.9C82.3 62.4 82.6 62.8 83 63L87.1 65C86.9 65.3 86.5 65.6 86.1 65.6C85.4 65.6 84.9 65 84.9 64.4H82.4C82.4 66 83.4 67.4 84.9 67.9V69.4H87.4V67.9C88.8 67.4 89.9 66 89.9 64.4C89.9 63.9 89.6001 63.5 89.2001 63.3L85.1 61.3C85.3 61 85.7 60.7 86.1 60.7Z" fill="#007E8C"/>
<path d="M44.0999 49.6C40.6999 49.6 37.8999 52.4 37.8999 55.8C37.8999 59.2 40.6999 61.9999 44.0999 61.9999C47.4999 61.9999 50.2999 59.2 50.2999 55.8C50.2999 52.4 47.4999 49.6 44.0999 49.6ZM44.0999 59.4999C42.0999 59.4999 40.3999 57.8 40.3999 55.8C40.3999 53.8 42.0999 52.1 44.0999 52.1C46.0999 52.1 47.7999 53.8 47.7999 55.8C47.7999 57.8 46.1999 59.4999 44.0999 59.4999Z" fill="#093C3D"/>
<path d="M76.2002 94.1H63.9002C63.2002 94.1 62.7002 94.7 62.7002 95.3V102.7C62.7002 103.4 63.3002 103.9 63.9002 103.9H76.3002C77.0002 103.9 77.5002 103.3 77.5002 102.7V95.3C77.5002 94.6 76.9002 94.1 76.2002 94.1ZM75.0002 101.5H65.1002V96.6H75.0002V101.5Z" fill="#093C3D"/>
<defs>
<radialGradient id="paint0_radial" cx="0" cy="0" r="1" gradientUnits="userSpaceOnUse" gradientTransform="translate(68 66.5) rotate(90) scale(66.5 68)">
<stop stop-color="#E6E88F"/>
<stop offset="0.15625" stop-color="#F2E747"/>
<stop offset="1" stop-color="#D9E409"/>
</radialGradient>
</defs>
</svg>
