<svg width="136" height="133" viewBox="0 0 136 133" fill="none" xmlns="http://www.w3.org/2000/svg">
<path d="M0 66.5C0 29.7731 29.7731 0 66.5 0H69.5C106.227 0 136 29.7731 136 66.5C136 103.227 106.227 133 69.5 133H66.5C29.7731 133 0 103.227 0 66.5Z" fill="#FFFEFE"/>
<path d="M0 66.5C0 29.7731 29.7731 0 66.5 0H69.5C106.227 0 136 29.7731 136 66.5C136 103.227 106.227 133 69.5 133H66.5C29.7731 133 0 103.227 0 66.5Z" fill="url(#paint0_radial)"/>
<path d="M109 84.3C109 80.3 106.5 76.8 102.7 75.5L89.2 71V68.3C92.1 66.4 94.3 63.5 95.3 60C98.6 59.6 101.1 56.8 101.1 53.5V41.6C101.1 31.4 92.8 23 82.5 23C76.3 23 70.6 26 67.1 31.1C63.7 32.2 61.3 35.4 61.3 39V53.4C61.3 56.8 63.9 59.5 67.1 59.9C68.1 63.3 70.2 66.3 73.2 68.2V70.9L61.3 74.9V62.6H58.7V57.3H29.6V62.6H27V105H61.4V99.7H109V84.3ZM95.7 84.7L92.9 87.5L94.2 91.4L88.3 96.3L92.8 75L94.6 75.6L95.7 84.7ZM66.7 84.7L67.8 75.6L69.6 75L74.1 96.3L68.2 91.4L69.5 87.5L66.7 84.7ZM81.2 79.1L84.9 82.8L83 86.5H79.3L77.4 82.8L81.2 79.1ZM86.9 84.7L87.9 85.7L86.1 94.3L85.3 88L86.9 84.7ZM75.6 84.7L77.2 88L76.4 94.3L74.6 85.7L75.6 84.7ZM79.7 89.1H82.7L83.7 97H78.8L79.7 89.1ZM90.3 74.1L88.5 82.6L83.2 77.3L88.1 73.4L90.3 74.1ZM95.7 57.1C95.7 56.7 95.8 56.4 95.8 56V49.6C97.3 50.1 98.4 51.6 98.4 53.3C98.4 55.1 97.3 56.6 95.7 57.1ZM68.3 33.5L68.8 33.4L69.3 32.7C72.3 28.3 77.2 25.6 82.5 25.6C91.3 25.6 98.4 32.7 98.4 41.5V48.1C97.6 47.5 96.7 47.1 95.8 46.9V44.1H94.2C92.6 44.1 91.2 43 90.9 41.5C90.5 39.9 89.1 38.8 87.5 38.8C86.6 38.8 85.7 39.2 85 39.8L83.5 41.3C81.8 43 79.4 44 77 44H66.7V46.8C65.7 47 64.8 47.4 64.1 48V38.9C64 36.4 65.8 34.1 68.3 33.5ZM64 53.4C64 51.7 65.1 50.2 66.6 49.7V56.1C66.6 56.5 66.6 56.8 66.7 57.2C65.1 56.6 64 55.1 64 53.4ZM69.3 56V46.7H76.8C80 46.7 83 45.5 85.2 43.2L86.7 41.7C87.2 41.2 88 41.5 88.2 42.1C88.8 44.5 90.7 46.2 93 46.6V56C93 62.6 87.7 67.9 81.1 67.9C74.5 67.9 69.3 62.6 69.3 56ZM81.2 70.6C83.1 70.6 84.9 70.2 86.5 69.6V71.3L81.2 75.5L75.9 71.3V69.6C77.6 70.2 79.3 70.6 81.2 70.6ZM74.3 73.4L79.2 77.3L73.9 82.6L72.1 74.1L74.3 73.4ZM32.2 60H56V62.6H32.2V60ZM48.1 102.4H40.2V91.8H48.1V102.4ZM58.7 102.4H50.8V89.2H37.5V102.4H29.6V65.3H58.7V102.4ZM61.4 77.7L65.1 76.5L64 85.6L66.5 88.1L65.1 92.2L70.9 97.1H61.3V77.7H61.4ZM106.4 97.1H91.5L97.3 92.2L95.9 88.1L98.4 85.6L97.3 76.5L101.8 78C104.5 78.9 106.3 81.4 106.3 84.3V97.1H106.4Z" fill="#093C3D"/>
<path d="M74.6001 52C75.318 52 75.9 51.418 75.9 50.7C75.9 49.982 75.318 49.4 74.6001 49.4C73.8821 49.4 73.3 49.982 73.3 50.7C73.3 51.418 73.8821 52 74.6001 52Z" fill="#093C3D"/>
<path d="M87.8 52C88.518 52 89.1 51.418 89.1 50.7C89.1 49.982 88.518 49.4 87.8 49.4C87.082 49.4 86.5 49.982 86.5 50.7C86.5 51.418 87.082 52 87.8 52Z" fill="#093C3D"/>
<path d="M86.5 58.7H83.9C83.9 60.2 82.7 61.3 81.3 61.3C79.8 61.3 78.7 60.1 78.7 58.7H76.1C76.1 61.6 78.5 64 81.4 64C84.3 64 86.5 61.6 86.5 58.7Z" fill="#093C3D"/>
<path d="M56.1 67.9H32.2V75.8H56V67.9H56.1ZM45.5 70.6H48.1V73.2H45.5V70.6ZM42.8 73.2H40.2V70.6H42.8V73.2ZM34.9 70.6H37.5V73.2H34.9V70.6ZM53.4 73.2H50.8V70.6H53.4V73.2Z" fill="#007E8C"/>
<path d="M56.1 78.5H32.2V86.4H56V78.5H56.1ZM45.5 81.2H48.1V83.8H45.5V81.2ZM42.8 83.8H40.2V81.2H42.8V83.8ZM34.9 81.2H37.5V83.8H34.9V81.2ZM53.4 83.8H50.8V81.2H53.4V83.8Z" fill="#007E8C"/>
<defs>
<radialGradient id="paint0_radial" cx="0" cy="0" r="1" gradientUnits="userSpaceOnUse" gradientTransform="translate(68 66.5) rotate(90) scale(66.5 68)">
<stop stop-color="#E6E88F"/>
<stop offset="0.15625" stop-color="#F2E747"/>
<stop offset="1" stop-color="#D9E409"/>
</radialGradient>
</defs>
</svg>
