<svg width="136" height="133" viewBox="0 0 136 133" fill="none" xmlns="http://www.w3.org/2000/svg">
<path d="M0 66.5C0 29.7731 29.7731 0 66.5 0H69.5C106.227 0 136 29.7731 136 66.5C136 103.227 106.227 133 69.5 133H66.5C29.7731 133 0 103.227 0 66.5Z" fill="#FFFEFE"/>
<path d="M0 66.5C0 29.7731 29.7731 0 66.5 0H69.5C106.227 0 136 29.7731 136 66.5C136 103.227 106.227 133 69.5 133H66.5C29.7731 133 0 103.227 0 66.5Z" fill="url(#paint0_radial)"/>
<path d="M108.5 83.5V72.2L103.8 71.4C103.6 70.9 103.4 70.5 103.2 70L106 66.2L98 58.2L94.2 61C93.7 60.8 93.3 60.6 92.8 60.4L92.2 56.8V40L82.2 30H54.7V39.4H39.5V65.1H38.3C37 65.1 36 66.1 36 67.4V100.2C36 101.5 37 102.5 38.3 102.5H80.4C81.7 102.5 82.7 101.5 82.7 100.2H91.9L92.7 95.5C93.2 95.3 93.6 95.1 94.1 94.9L97.9 97.7L105.9 89.7L103.1 85.9C103.3 85.4 103.5 85 103.7 84.5L108.5 83.5ZM82.8 33.9L88.2 39.3H82.8V33.9ZM57 32.2H80.4V41.6H89.8V55.6H80.6L79.8 60.3C79.3 60.5 78.9 60.7 78.4 60.9L76.9 59.8V50.9H87.4V48.6H76.9V46.3H87.4V44H76.9V39.3H57V32.2ZM41.8 41.6H74.6V58.1L73.6 59.1C73 58.4 72.1 58 71.1 58H47.7C45.8 58 44.2 59.6 44.2 61.5V65H41.8V41.6ZM46.5 65V61.5C46.5 60.9 47 60.3 47.7 60.3H71.1C71.7 60.3 72.3 60.8 72.3 61.5V65H46.5ZM80.4 67.3V72.5L65.2 81.6V81.3C65.2 80 64.2 79 62.9 79H55.9C54.6 79 53.6 80 53.6 81.3V81.6L38.4 72.5V67.3H80.4ZM82.8 71.8C83.9 71.2 85.1 70.8 86.3 70.8C90.2 70.8 93.3 73.9 93.3 77.8C93.3 81.7 90.2 84.8 86.3 84.8C85.1 84.8 83.9 84.5 82.8 83.8V71.8ZM82.8 86.5C83.9 87 85.1 87.2 86.3 87.2C91.5 87.2 95.7 83 95.7 77.8C95.7 72.6 91.5 68.4 86.3 68.4C85.1 68.4 83.9 68.7 82.8 69.1V67.2C82.8 67 82.8 66.8 82.7 66.6C83.9 66.2 85.1 66 86.3 66C92.8 66 98 71.2 98 77.7C98 84.2 92.8 89.4 86.3 89.4C85.1 89.4 83.9 89.2 82.8 88.9V86.5ZM62.9 86H55.9V81.3H62.9V86ZM38.3 100.1V97.8H73.4V95.4H38.3V75.2L53.5 84.3V86C53.5 87.3 54.5 88.3 55.8 88.3H62.8C64.1 88.3 65.1 87.3 65.1 86V84.3L80.3 75.2V95.4H75.8V97.7H80.5V100H38.3V100.1ZM103 89.3L97.8 94.5L94.4 92.1L93.8 92.4C93 92.8 92.2 93.1 91.4 93.4L90.7 93.6L90 97.7H82.8V91.4C83.9 91.7 85.1 91.9 86.3 91.9C94 91.9 100.3 85.6 100.3 77.9C100.3 70.2 94 63.9 86.3 63.9C84.3 63.9 82.4 64.3 80.7 65.1C80.6 65.1 80.6 65.1 80.5 65.1H74.7V61.6L74.9 61.4L78.3 63.8L78.9 63.5C79.7 63.1 80.5 62.8 81.3 62.5L82 62.3L82.7 58.2H90.1L90.8 62.3L91.5 62.5C92.3 62.8 93.1 63.1 93.9 63.5L94.5 63.8L97.9 61.4L103.1 66.6L100.7 70L101 70.6C101.4 71.4 101.7 72.2 102 73L102.2 73.7L106.3 74.4V81.8L102.2 82.5L102 83.2C101.7 84 101.4 84.8 101 85.6L100.7 86.2L103 89.3Z" fill="#093C3D"/>
<path d="M87.4 59.1H85.1V61.4H87.4V59.1Z" fill="#093C3D"/>
<path d="M98.6716 63.8433L97.0453 65.4696L98.6716 67.0959L100.298 65.4696L98.6716 63.8433Z" fill="#093C3D"/>
<path d="M105 76.7H102.7V79H105V76.7Z" fill="#093C3D"/>
<path d="M98.661 88.6474L97.0347 90.2737L98.661 91.9L100.287 90.2737L98.661 88.6474Z" fill="#093C3D"/>
<path d="M87.4 94.2H85.1V96.5H87.4V94.2Z" fill="#093C3D"/>
<path d="M72.2999 43.9H44.2V46.2H72.2999V43.9Z" fill="#007E8C"/>
<path d="M46.5 48.6H44.2V50.9H46.5V48.6Z" fill="#093C3D"/>
<path d="M51.1 48.6H48.8V50.9H51.1V48.6Z" fill="#093C3D"/>
<path d="M72.2 48.6H53.5V50.9H72.2V48.6Z" fill="#007E8C"/>
<path d="M72.2999 53.3H44.2V55.6H72.2999V53.3Z" fill="#007E8C"/>
<path d="M61.7 34.6H59.4V36.9H61.7V34.6Z" fill="#093C3D"/>
<path d="M73.5 34.6H64.1V36.9H73.5V34.6Z" fill="#093C3D"/>
<path d="M78.1001 34.6H75.8V36.9H78.1001V34.6Z" fill="#093C3D"/>
<defs>
<radialGradient id="paint0_radial" cx="0" cy="0" r="1" gradientUnits="userSpaceOnUse" gradientTransform="translate(68 66.5) rotate(90) scale(66.5 68)">
<stop stop-color="#E6E88F"/>
<stop offset="0.15625" stop-color="#F2E747"/>
<stop offset="1" stop-color="#D9E409"/>
</radialGradient>
</defs>
</svg>
