<svg width="134" height="131" viewBox="0 0 134 131" fill="none" xmlns="http://www.w3.org/2000/svg">
<path d="M0 65.5C0 29.3253 29.3254 0 65.5 0H68.5C104.675 0 134 29.3253 134 65.5C134 101.675 104.675 131 68.5 131H65.5C29.3253 131 0 101.675 0 65.5Z" fill="#FFFEFE"/>
<path d="M0 65.5C0 29.3253 29.3254 0 65.5 0H68.5C104.675 0 134 29.3253 134 65.5C134 101.675 104.675 131 68.5 131H65.5C29.3253 131 0 101.675 0 65.5Z" fill="url(#paint0_radial)"/>
<path d="M39.1665 93.4206H45.4169V87.1702H39.1665V93.4206ZM41.25 89.2536H43.3334V91.3371H41.25V89.2536Z" fill="#0C3A39"/>
<path d="M47.501 93.4206H53.7514V87.1702H47.501V93.4206ZM49.5844 89.2536H51.6679V91.3371H49.5844V89.2536Z" fill="#0C3A39"/>
<path d="M55.835 93.4206H62.0854V87.1702H55.835V93.4206ZM57.9184 89.2536H60.0019V91.3371H57.9184V89.2536Z" fill="#0C3A39"/>
<path d="M39.1665 85.0867H45.4169V78.8363H39.1665V85.0867ZM41.25 80.9197H43.3334V83.0032H41.25V80.9197Z" fill="#0C3A39"/>
<path d="M47.501 85.0867H53.7514V78.8363H47.501V85.0867ZM49.5844 80.9197H51.6679V83.0032H49.5844V80.9197Z" fill="#0C3A39"/>
<path d="M55.835 85.0867H62.0854V78.8363H55.835V85.0867ZM57.9184 80.9197H60.0019V83.0032H57.9184V80.9197Z" fill="#0C3A39"/>
<path d="M39.1665 76.7528H45.4169V70.5024H39.1665V76.7528ZM41.25 72.5858H43.3334V74.6693H41.25V72.5858Z" fill="#0C3A39"/>
<path d="M47.501 76.7528H53.7514V70.5024H47.501V76.7528ZM49.5844 72.5858H51.6679V74.6693H49.5844V72.5858Z" fill="#0C3A39"/>
<path d="M55.835 76.7528H62.0854V70.5024H55.835V76.7528ZM57.9184 72.5858H60.0019V74.6693H57.9184V72.5858Z" fill="#0C3A39"/>
<path d="M50.6262 55.9181C50.0185 55.9181 49.5844 55.4841 49.5844 54.8764H47.501C47.501 56.2654 48.3691 57.3939 49.5844 57.828V60.0851H51.6679V58.0016H53.7514V54.8764C53.7514 53.1402 52.3624 51.7512 50.6262 51.7512C50.0185 51.7512 49.5844 51.3171 49.5844 50.7095V49.6677H50.6262C51.2339 49.6677 51.6679 50.1018 51.6679 50.7095H53.7514C53.7514 49.3205 52.8833 48.1919 51.6679 47.7579V45.5008H49.5844V47.5843H47.501V50.7095C47.501 52.4457 48.89 53.8347 50.6262 53.8347C51.2339 53.8347 51.6679 54.2687 51.6679 54.8764V55.9181H50.6262Z" fill="#007E8C"/>
<path d="M44.3757 53.8347C44.9511 53.8347 45.4175 53.3683 45.4175 52.793C45.4175 52.2176 44.9511 51.7512 44.3757 51.7512C43.8004 51.7512 43.334 52.2176 43.334 52.793C43.334 53.3683 43.8004 53.8347 44.3757 53.8347Z" fill="#007E8C"/>
<path d="M56.8767 53.8347C57.452 53.8347 57.9184 53.3683 57.9184 52.793C57.9184 52.2176 57.452 51.7512 56.8767 51.7512C56.3014 51.7512 55.835 52.2176 55.835 52.793C55.835 53.3683 56.3014 53.8347 56.8767 53.8347Z" fill="#007E8C"/>
<path d="M98.7194 80.7461L95.9414 77.9681C95.8546 77.8813 95.7678 77.7077 95.681 77.6209C94.8129 76.7528 93.4239 76.5792 91.6877 77.0132C90.8196 74.8429 89.0834 72.499 87.1735 70.5024C83.267 66.5959 77.8847 63.8179 75.5408 66.1618C75.454 66.2486 75.3672 66.4223 75.2804 66.5091L72.4156 69.287C70.419 71.2837 72.0684 75.277 74.9331 78.8363C71.6343 78.9231 68.4223 79.6176 66.3388 80.9197V56.9598C66.3388 54.4423 64.5158 52.3589 62.0851 51.838C61.5642 45.9348 56.7028 41.3338 50.7128 41.3338C44.7228 41.3338 39.6878 45.9348 39.2537 51.838C36.823 52.272 35 54.4423 35 56.9598V92.3788C35 95.2436 37.3439 97.5875 40.2087 97.5875H61.0434C62.9532 97.5875 64.6894 96.5457 65.5575 94.9831C67.641 96.7194 71.7211 97.5875 75.6276 97.5875C78.1452 97.5875 80.6627 97.2402 82.5725 96.5457L82.7461 96.7194C83.3538 97.327 84.1351 97.5875 85.0032 97.5875C87.6944 97.5875 91.4273 95.2436 94.292 92.3788C98.1985 88.4723 101.063 83.09 98.7194 80.7461ZM96.6359 85.868L95.0733 84.3054C95.681 83.2636 96.1151 82.2219 96.2887 81.267L97.2436 82.2219C97.6777 82.6559 97.504 84.0449 96.6359 85.868ZM90.4723 89.9481L92.1218 91.5975C91.2536 92.3788 90.4723 92.9865 89.691 93.5073L88.0416 91.8579C88.9097 91.2503 89.691 90.6426 90.4723 89.9481ZM91.9481 88.4723C92.6426 87.691 93.3371 86.9097 93.858 86.0416L95.5074 87.691C94.9865 88.4723 94.3788 89.2536 93.5975 90.1217L91.9481 88.4723ZM94.1184 79.0967C94.9865 79.9648 93.7712 83.7845 89.7779 87.7778C85.7845 91.7711 81.9648 92.9865 81.0967 92.1184C80.4022 91.4239 81.0099 88.9064 83.5274 85.6075C84.3956 85.9548 85.2637 86.1284 85.9582 86.1284C86.9131 86.1284 87.6944 85.868 88.3021 85.2603L90.7328 82.6559C90.9932 82.5691 91.1668 82.3955 91.3405 82.2219C92.1218 81.4406 92.2954 80.312 92.1218 79.0967C93.0767 78.7494 93.7712 78.7494 94.1184 79.0967ZM78.7528 91.0766C78.0583 91.1634 77.3639 91.2503 76.6694 91.2503V89.1668C77.5375 89.1668 78.4056 89.08 79.1869 88.9064C78.9265 89.7745 78.7528 90.469 78.7528 91.0766ZM66.252 87.0833C66.8597 87.4306 67.5542 87.7778 68.3355 88.0382V89.9481C67.0333 89.3404 66.252 88.6459 66.252 88.1251V87.0833ZM70.419 88.6459C71.7211 88.9064 73.1969 89.08 74.5859 89.1668V91.2503C73.0233 91.1634 71.6343 90.9898 70.419 90.6426V88.6459ZM74.5859 93.3337V95.4172C73.0233 95.3304 71.6343 95.1568 70.419 94.8095V92.726C71.7211 93.1601 73.1101 93.3337 74.5859 93.3337ZM79.1001 77.0132L77.4507 78.6626C76.6694 77.7945 76.0617 77.0132 75.5408 76.2319L77.1902 74.5825C77.7111 75.4506 78.4056 76.2319 79.1001 77.0132ZM80.5759 78.489C81.3572 79.1835 82.1385 79.878 82.9198 80.3989L81.2704 82.0483C80.4891 81.5274 79.7078 80.9197 78.8396 80.1384L80.5759 78.489ZM83.1802 83.1768L84.7428 81.5274C85.7845 82.1351 86.8263 82.4823 87.7812 82.7428L86.8263 83.6977C86.3054 84.2186 84.9164 84.0449 83.1802 83.1768ZM76.9298 67.6376C77.1034 67.464 77.3639 67.3772 77.7979 67.3772C79.3605 67.3772 82.3989 68.853 85.6109 71.9782C89.6042 75.9715 90.8196 79.7912 89.9515 80.6593C89.0834 81.5274 85.2637 80.312 81.2704 76.3187C77.277 72.3254 76.0617 68.5057 76.9298 67.6376ZM73.8046 70.7628L74.7595 69.8079C75.02 70.7628 75.454 71.8046 75.9749 72.8463L74.4123 74.4089C73.4573 72.5858 73.2837 71.1969 73.8046 70.7628ZM75.6276 80.9197C75.9749 80.9197 76.3221 80.9197 76.7562 80.9197C78.232 82.3955 79.9682 83.6977 81.6176 84.6526C81.0967 85.3471 80.6627 86.0416 80.2286 86.6493C78.8396 86.9097 77.1902 87.0833 75.6276 87.0833C69.8981 87.0833 66.252 85.2603 66.252 83.9581C66.252 82.6559 69.8981 80.9197 75.6276 80.9197ZM41.2504 59.3906C43.3339 62.3421 46.7195 64.252 50.626 64.252C54.5325 64.252 57.9181 62.3421 60.0016 59.3906V66.3354H41.2504V59.3906ZM50.626 43.4173C55.8347 43.4173 60.0016 47.5842 60.0016 52.7929C60.0016 58.0016 55.8347 62.1685 50.626 62.1685C45.4173 62.1685 41.2504 58.0016 41.2504 52.7929C41.2504 47.5842 45.4173 43.4173 50.626 43.4173ZM61.0434 95.504H40.2087C38.4724 95.504 37.0835 94.115 37.0835 92.3788V56.9598C37.0835 55.5709 37.9516 54.4423 39.1669 54.0083V68.4189H62.0851V54.0083C63.3004 54.4423 64.1686 55.5709 64.1686 56.9598V84.0449V88.2119V92.3788C64.1686 94.0282 62.7796 95.504 61.0434 95.504ZM66.252 92.3788V91.3371C66.8597 91.6843 67.5542 92.0316 68.3355 92.292V94.2018C67.0333 93.5942 66.252 92.8997 66.252 92.3788ZM76.6694 95.4172V93.3337C77.5375 93.3337 78.4056 93.2469 79.2737 93.0733C79.3605 93.2469 79.5341 93.4205 79.6209 93.5073C79.7946 93.681 80.055 93.8546 80.2286 93.9414L81.0099 94.7227C79.7078 95.1568 78.232 95.3304 76.6694 95.4172ZM84.2219 95.2436L83.267 94.2018C84.2219 93.9414 85.2637 93.5942 86.3054 92.9865L87.868 94.6359C86.045 95.504 84.656 95.6776 84.2219 95.2436Z" fill="#0C3A39"/>
<path d="M96.4624 39.2504H94.3789V41.3338H96.4624V39.2504Z" fill="#0C3A39"/>
<path d="M99.3265 55.9181H96.4617V43.4173H94.3783V58.0016H95.5936L92.2948 63.2971L88.9092 58.0016H90.2113V33H88.1279V55.9181H85.1763L92.2948 67.2036L99.3265 55.9181Z" fill="#0C3A39"/>
<path d="M96.4624 35.0835H94.3789V37.1669H96.4624V35.0835Z" fill="#0C3A39"/>
<path d="M75.6279 55.9182H73.5444V58.0017H75.6279V55.9182Z" fill="#0C3A39"/>
<path d="M73.5444 53.8347H75.6278V43.4174H74.4125L77.7113 38.1219L81.0101 43.4174H79.7948V64.2521H81.8782V45.5009H84.743L77.7113 34.1286L70.5928 45.5009H73.5444V53.8347Z" fill="#0C3A39"/>
<path d="M75.6279 60.0851H73.5444V62.1685H75.6279V60.0851Z" fill="#0C3A39"/>
<defs>
<radialGradient id="paint0_radial" cx="0" cy="0" r="1" gradientUnits="userSpaceOnUse" gradientTransform="translate(67 65.5) rotate(90) scale(65.5 67)">
<stop stop-color="#E6E88F"/>
<stop offset="0.15625" stop-color="#F2E747"/>
<stop offset="1" stop-color="#D9E409"/>
</radialGradient>
</defs>
</svg>
