<svg width="135" height="131" viewBox="0 0 135 131" fill="none" xmlns="http://www.w3.org/2000/svg">
<path d="M0 65.5C0 29.3253 29.3253 0 65.5 0H69.5C105.675 0 135 29.3253 135 65.5C135 101.675 105.675 131 69.5 131H65.5C29.3254 131 0 101.675 0 65.5Z" fill="#FFFEFE"/>
<path d="M0 65.5C0 29.3253 29.3253 0 65.5 0H69.5C105.675 0 135 29.3253 135 65.5C135 101.675 105.675 131 69.5 131H65.5C29.3254 131 0 101.675 0 65.5Z" fill="url(#paint0_radial)"/>
<path d="M103.969 82.2357C103.969 78.7633 101.799 75.7249 98.5001 74.5964L86.7806 70.6899V68.346C89.2981 66.6965 91.208 64.179 92.0761 61.1406C94.9409 60.7934 97.1112 58.3627 97.1112 55.4979V45.1674C97.1112 36.3127 89.9058 29.0205 80.9643 29.0205C75.582 29.0205 70.6337 31.6248 67.5954 36.0522C64.6438 37.0071 62.5603 39.7851 62.5603 42.9103V55.4979C62.5603 58.4495 64.8174 60.7934 67.5954 61.1406C68.4635 64.0922 70.2865 66.6965 72.8908 68.346V70.6899L62.5603 74.1623V63.4846H60.3032V58.8835H34.9544V63.4846H32.6973V100.292H62.5603V95.6915H103.882V82.2357H103.969ZM92.4234 82.6698L89.9926 85.0137L91.1212 88.3993L85.9993 92.6531L89.9058 74.1623L91.4684 74.6832L92.4234 82.6698ZM67.2481 82.6698L68.203 74.77L69.7656 74.2491L73.6721 92.7399L68.5503 88.4862L69.6788 85.1005L67.2481 82.6698ZM79.8357 77.8084L83.0477 81.0204L81.3983 84.2324H78.1863L76.5369 81.0204L79.8357 77.8084ZM84.6972 82.6698L85.5653 83.5379L84.0027 91.0037L83.3082 85.5346L84.6972 82.6698ZM74.8875 82.6698L76.2765 85.5346L75.582 91.0037L74.0194 83.5379L74.8875 82.6698ZM78.5336 86.4895H81.1379L82.006 93.3476H77.7523L78.5336 86.4895ZM87.6487 73.4678L86.0861 80.8468L81.4851 76.2458L85.7389 72.8601L87.6487 73.4678ZM92.4234 58.7099C92.4234 58.3627 92.5102 58.1023 92.5102 57.755V52.1991C93.8123 52.6332 94.7673 53.9353 94.7673 55.4111C94.7673 56.9737 93.7255 58.2759 92.4234 58.7099ZM68.6371 38.2225L69.0711 38.1357L69.5052 37.528C72.1095 33.7083 76.3633 31.3644 80.9643 31.3644C88.6037 31.3644 94.7673 37.528 94.7673 45.1674V50.8969C94.0728 50.3761 93.2915 50.0288 92.5102 49.8552V47.4245H91.1212C89.7322 47.4245 88.5168 46.4696 88.2564 45.1674C87.9092 43.7784 86.6938 42.8235 85.3048 42.8235C84.5235 42.8235 83.7422 43.1707 83.1346 43.6916L81.8324 44.9938C80.3566 46.4695 78.2731 47.3377 76.1897 47.3377H67.1613V49.7684C66.2932 49.942 65.5119 50.2893 64.9042 50.8101V42.9103C64.9042 40.74 66.38 38.7434 68.6371 38.2225ZM64.9042 55.4979C64.9042 54.0221 65.8591 52.7199 67.1613 52.2859V57.8418C67.1613 58.1891 67.1613 58.4495 67.2481 58.7967C65.8591 58.2759 64.9042 56.9737 64.9042 55.4979ZM69.5052 57.755V49.6816H76.016C78.794 49.6816 81.3983 48.6398 83.3082 46.6432L84.6103 45.341C85.0444 44.9069 85.7389 45.1674 85.9125 45.6883C86.4334 47.7717 88.0828 49.2475 90.0794 49.5948V57.755C90.0794 63.4846 85.4785 68.0855 79.7489 68.0855C74.0194 68.0855 69.5052 63.4846 69.5052 57.755ZM79.8357 70.4294C81.4851 70.4294 83.0477 70.0822 84.4367 69.5613V71.0371L79.8357 74.6832L75.2347 71.0371V69.5613C76.6237 70.0822 78.1863 70.4294 79.8357 70.4294ZM73.8458 72.8601L78.0995 76.2458L73.4985 80.8468L71.9359 73.4678L73.8458 72.8601ZM37.2983 61.2275H57.9593V63.4846H37.2983V61.2275ZM51.1012 97.9486H44.2432V88.7466H51.1012V97.9486ZM60.3032 97.9486H53.4451V86.4895H41.8993V97.9486H34.9544V65.7416H60.2164V97.9486H60.3032ZM62.5603 76.593L65.7723 75.5513L64.8174 83.4511L66.9877 85.6214L65.7723 89.1806L70.8074 93.4344H62.4735V76.593H62.5603ZM101.625 93.4344H88.6905L93.7255 89.1806L92.5102 85.6214L94.6804 83.4511L93.7255 75.5513L97.632 76.8535C99.9759 77.6348 101.539 79.805 101.539 82.3226V93.4344H101.625Z" fill="#0C3A39"/>
<path d="M74.0197 54.2826C74.6429 54.2826 75.1482 53.7773 75.1482 53.154C75.1482 52.5308 74.6429 52.0255 74.0197 52.0255C73.3964 52.0255 72.8911 52.5308 72.8911 53.154C72.8911 53.7773 73.3964 54.2826 74.0197 54.2826Z" fill="#0C3A39"/>
<path d="M85.5651 54.2826C86.1883 54.2826 86.6936 53.7773 86.6936 53.154C86.6936 52.5308 86.1883 52.0255 85.5651 52.0255C84.9418 52.0255 84.4365 52.5308 84.4365 53.154C84.4365 53.7773 84.9418 54.2826 85.5651 54.2826Z" fill="#0C3A39"/>
<path d="M84.4364 60.0988H82.1793C82.1793 61.401 81.1375 62.3559 79.9222 62.3559C78.7068 62.3559 77.6651 61.3142 77.6651 60.0988H75.2344C75.2344 62.6164 77.3178 64.6999 79.8354 64.6999C82.3529 64.6999 84.4364 62.6164 84.4364 60.0988Z" fill="#0C3A39"/>
<path d="M57.9594 68.0855H37.2983V74.9436H57.9594V68.0855ZM48.7574 70.4294H51.0145V72.6865H48.7574V70.4294ZM46.5003 72.6865H44.2432V70.4294H46.5003V72.6865ZM39.5554 70.4294H41.8125V72.6865H39.5554V70.4294ZM55.7023 72.6865H53.4452V70.4294H55.7023V72.6865Z" fill="#007E8C"/>
<path d="M57.9594 77.2875H37.2983V84.1456H57.9594V77.2875ZM48.7574 79.6314H51.0145V81.8885H48.7574V79.6314ZM46.5003 81.8885H44.2432V79.6314H46.5003V81.8885ZM39.5554 79.6314H41.8125V81.8885H39.5554V79.6314ZM55.7023 81.8885H53.4452V79.6314H55.7023V81.8885Z" fill="#007E8C"/>
<defs>
<radialGradient id="paint0_radial" cx="0" cy="0" r="1" gradientUnits="userSpaceOnUse" gradientTransform="translate(67.5 65.5) rotate(90) scale(65.5 67.5)">
<stop stop-color="#E6E88F"/>
<stop offset="0.15625" stop-color="#F2E747"/>
<stop offset="1" stop-color="#D9E409"/>
</radialGradient>
</defs>
</svg>
