<svg width="134" height="131" viewBox="0 0 134 131" fill="none" xmlns="http://www.w3.org/2000/svg">
<path d="M0 65.5C0 29.3253 29.3254 0 65.5 0H68.5C104.675 0 134 29.3253 134 65.5C134 101.675 104.675 131 68.5 131H65.5C29.3253 131 0 101.675 0 65.5Z" fill="#FFFEFE"/>
<path d="M0 65.5C0 29.3253 29.3254 0 65.5 0H68.5C104.675 0 134 29.3253 134 65.5C134 101.675 104.675 131 68.5 131H65.5C29.3253 131 0 101.675 0 65.5Z" fill="url(#paint0_radial)"/>
<path d="M98.9381 80.444V70.6343L94.858 69.9398C94.6844 69.5058 94.5107 69.1585 94.3371 68.7245L96.7678 65.4257L89.8229 58.4808L86.5241 60.9115C86.09 60.7378 85.7428 60.5642 85.3087 60.3906L84.7879 57.2654V42.6811L76.1068 34H52.2337V42.1603H38.9516V64.4707H37.9967C36.8681 64.4707 36 65.3389 36 66.4674V94.9414C36 96.07 36.8681 96.9381 37.9967 96.9381H74.5442C75.6727 96.9381 76.5408 96.07 76.5408 94.9414H84.5274L85.2219 90.8613C85.656 90.6877 86.0032 90.5141 86.4373 90.3405L89.7361 92.7712L96.681 85.8263L94.2503 82.5275C94.4239 82.0934 94.5975 81.7461 94.7712 81.3121L98.9381 80.444ZM76.5408 37.3857L81.2286 42.0734H76.5408V37.3857ZM54.2303 35.9099H74.5442V44.0701H82.7044V56.2236H74.7178L74.0233 60.3038C73.5892 60.4774 73.242 60.651 72.8079 60.8247L71.5058 59.8697V52.1436H80.6209V50.1469H71.5058V48.1502H80.6209V46.1536H71.5058V42.0734H54.2303V35.9099ZM41.035 44.0701H69.5091V58.3939L68.641 59.262C68.1201 58.6544 67.3388 58.3071 66.4707 58.3071H46.0701C44.4207 58.3071 43.0317 59.6961 43.0317 61.3455V64.3839H41.035V44.0701ZM45.1152 64.3839V61.3455C45.1152 60.8246 45.5492 60.3038 46.1569 60.3038H66.4707C66.9916 60.3038 67.5125 60.7378 67.5125 61.3455V64.3839H45.1152ZM74.5442 66.3806V70.8947L61.3489 78.7945V78.5341C61.3489 77.4056 60.4807 76.5375 59.3522 76.5375H53.2754C52.1469 76.5375 51.2788 77.4056 51.2788 78.5341V78.7945L37.9967 70.8947V66.3806H74.5442ZM76.5408 70.2871C77.4957 69.7662 78.5375 69.4189 79.5792 69.4189C82.9648 69.4189 85.656 72.1101 85.656 75.4957C85.656 78.8814 82.9648 81.5725 79.5792 81.5725C78.5375 81.5725 77.4957 81.3121 76.5408 80.7044V70.2871ZM76.5408 83.0483C77.4957 83.4824 78.5375 83.656 79.5792 83.656C84.0934 83.656 87.7395 80.0099 87.7395 75.4957C87.7395 70.9815 84.0934 67.4223 79.5792 67.4223C78.5375 67.4223 77.4957 67.6827 76.5408 68.03V66.3806C76.5408 66.2069 76.5408 66.0333 76.454 65.8597C77.4957 65.5125 78.5375 65.3388 79.5792 65.3388C85.2219 65.3388 89.7361 69.853 89.7361 75.4957C89.7361 81.1385 85.2219 85.6526 79.5792 85.6526C78.5375 85.6526 77.4957 85.479 76.5408 85.2186V83.0483ZM59.2654 82.6143H53.1886V78.5341H59.2654V82.6143ZM37.9967 94.8546V92.858H68.4674V90.8613H37.9967V73.3254L51.192 81.2253V82.701C51.192 83.8296 52.0601 84.6977 53.1886 84.6977H59.2654C60.3939 84.6977 61.2621 83.8296 61.2621 82.701V81.2253L74.4573 73.3254V90.8613H70.3772V92.858H74.5442V94.8546H37.9967ZM94.0767 85.479L89.5625 89.9932L86.6109 87.9097L86.09 88.1702C85.3956 88.5174 84.7011 88.7779 84.0066 89.0383L83.3989 89.2119L82.7912 92.7712H76.5408V87.3021C77.4957 87.5625 78.5375 87.7361 79.5792 87.7361C86.2637 87.7361 91.7328 82.267 91.7328 75.5826C91.7328 68.8981 86.2637 63.429 79.5792 63.429C77.843 63.429 76.1936 63.7762 74.7178 64.4707C74.631 64.4707 74.631 64.4707 74.5442 64.4707H69.5091V61.3455L69.6827 61.1719L72.6343 63.2554L73.1552 62.995C73.8497 62.6477 74.5442 62.3873 75.2386 62.1268L75.8463 61.9532L76.454 58.3939H82.878L83.4857 61.9532L84.0934 62.1268C84.7879 62.3873 85.4824 62.6477 86.1769 62.995L86.6977 63.2554L89.6493 61.1719L94.1635 65.6861L92.08 68.6377L92.3405 69.1585C92.6877 69.853 92.9481 70.5475 93.2086 71.242L93.3822 71.8496L96.9414 72.4573V78.8814L93.3822 79.4891L93.2086 80.0967C92.9481 80.7912 92.6877 81.4857 92.3405 82.1802L92.08 82.701L94.0767 85.479Z" fill="#0C3A39"/>
<path d="M80.6207 59.262H78.624V61.2587H80.6207V59.262Z" fill="#0C3A39"/>
<path d="M90.4001 63.3485L88.9883 64.7603L90.4001 66.1721L91.8119 64.7603L90.4001 63.3485Z" fill="#0C3A39"/>
<path d="M95.8131 74.5408H93.8164V76.5374H95.8131V74.5408Z" fill="#0C3A39"/>
<path d="M90.3904 84.8813L88.9785 86.2932L90.3904 87.705L91.8022 86.2932L90.3904 84.8813Z" fill="#0C3A39"/>
<path d="M80.6207 89.7327H78.624V91.7294H80.6207V89.7327Z" fill="#0C3A39"/>
<path d="M67.4257 46.0668H43.0317V48.0635H67.4257V46.0668Z" fill="#007E8C"/>
<path d="M45.0284 50.1468H43.0317V52.1435H45.0284V50.1468Z" fill="#007E8C"/>
<path d="M49.1085 50.1468H47.1118V52.1435H49.1085V50.1468Z" fill="#007E8C"/>
<path d="M67.4256 50.1468H51.1919V52.1435H67.4256V50.1468Z" fill="#007E8C"/>
<path d="M67.4257 54.227H43.0317V56.2237H67.4257V54.227Z" fill="#007E8C"/>
<path d="M58.2237 37.9065H56.2271V39.9032H58.2237V37.9065Z" fill="#0C3A39"/>
<path d="M68.4674 37.9065H60.3071V39.9032H68.4674V37.9065Z" fill="#0C3A39"/>
<path d="M72.4605 37.9065H70.4639V39.9032H72.4605V37.9065Z" fill="#0C3A39"/>
<defs>
<radialGradient id="paint0_radial" cx="0" cy="0" r="1" gradientUnits="userSpaceOnUse" gradientTransform="translate(67 65.5) rotate(90) scale(65.5 67)">
<stop stop-color="#E6E88F"/>
<stop offset="0.15625" stop-color="#F2E747"/>
<stop offset="1" stop-color="#D9E409"/>
</radialGradient>
</defs>
</svg>
