<svg width="179" height="80" viewBox="0 0 179 80" fill="none" xmlns="http://www.w3.org/2000/svg">
<mask id="mask0" mask-type="alpha" maskUnits="userSpaceOnUse" x="32" y="23" width="114" height="34">
<path fill-rule="evenodd" clip-rule="evenodd" d="M32 23.7141H146V56.2855H32V23.7141Z" fill="white"/>
</mask>
<g mask="url(#mask0)">
<path fill-rule="evenodd" clip-rule="evenodd" d="M133.758 56.0387H145.864V52.7583H138.205V49.9028H145.109V46.9486H138.205V44.6466H145.648V41.5544H133.758V56.0387ZM118.274 45.1308H122.799V56.0387H127.236V45.1308H131.761V41.5544H118.274V45.1308ZM109.817 50.5155L111.384 45.309L112.97 50.5155H109.817ZM114.608 56.0387H119.254L113.859 41.5544H109.02L103.623 56.0387H108.153L108.854 53.648H113.89L114.608 56.0387ZM98.54 50.7926V52.1557C97.9596 52.5052 97.4434 52.752 96.9934 52.8968C96.5428 53.0416 96.0691 53.114 95.5729 53.114C94.5288 53.114 93.7137 52.7785 93.1295 52.1066C92.5453 51.4348 92.2532 50.3147 92.2532 48.7468C92.2532 47.2716 92.5422 46.193 93.1201 45.5111C93.6974 44.8298 94.4732 44.4886 95.4456 44.4886C96.0984 44.4886 96.6358 44.6334 97.0565 44.9237C97.4777 45.2133 97.7767 45.6314 97.9527 46.1779L102.232 45.4078C101.971 44.4722 101.581 43.7003 101.062 43.0908C100.543 42.4813 99.89 42.0317 99.1036 41.7421C98.3166 41.4524 97.1301 41.307 95.5442 41.307C93.8984 41.307 92.589 41.5412 91.6166 42.009C90.369 42.6148 89.4228 43.5025 88.7763 44.6718C88.1303 45.841 87.8064 47.2156 87.8064 48.7966C87.8064 50.2983 88.1022 51.6287 88.6932 52.7879C89.2837 53.9477 90.1162 54.8204 91.1904 55.4066C92.2645 55.9928 93.6531 56.2856 95.3576 56.2856C96.7413 56.2856 97.9377 56.1225 98.9469 55.797C99.9555 55.4708 101.116 54.8563 102.429 53.954V47.7791H95.5729V50.7926H98.54ZM133.895 38.6845H146V35.4047H138.341V32.5493H145.246V29.595H138.341V27.293H145.785V24.2002H133.895V38.6845ZM123.857 27.1444H125.12C125.949 27.1444 126.514 27.3024 126.815 27.6192C127.115 27.9352 127.265 28.3206 127.265 28.7752C127.265 29.2424 127.092 29.6265 126.746 29.9262C126.4 30.2259 125.799 30.3757 124.944 30.3757H123.857V27.1444ZM119.401 38.6845H123.857V33.3099H126.285C128.075 33.3099 129.405 32.8981 130.277 32.0752C131.148 31.2516 131.584 30.1088 131.584 28.6461C131.584 27.2238 131.184 26.1269 130.384 25.3562C129.585 24.5856 128.382 24.2002 126.776 24.2002H119.401V38.6845ZM108.573 33.1619L110.141 27.9548L111.726 33.1619H108.573ZM113.364 38.6845H118.01L112.615 24.2002H107.776L102.38 38.6845H106.909L107.61 36.2938H112.646L113.364 38.6845ZM96.8311 34.8513C96.3974 35.3323 95.7552 35.5722 94.907 35.5722C94.032 35.5722 93.3529 35.275 92.8698 34.6794C92.3868 34.0844 92.1452 32.9838 92.1452 31.3782C92.1452 30.0824 92.3475 29.1316 92.7525 28.5265C93.2874 27.7111 94.0582 27.3025 95.0636 27.3025C95.5074 27.3025 95.9087 27.395 96.2688 27.5795C96.6277 27.764 96.931 28.0272 97.1794 28.3697C97.3292 28.5737 97.4727 28.8967 97.61 29.3381L101.527 28.4585C101.025 26.931 100.256 25.7976 99.2209 25.0597C98.1861 24.3224 96.765 23.9534 94.9557 23.9534C92.6445 23.9534 90.8577 24.5969 89.5938 25.8839C88.3306 27.1709 87.699 29.012 87.699 31.4078C87.699 33.2054 88.0579 34.6794 88.7762 35.8316C89.494 36.9839 90.3478 37.7879 91.337 38.2457C92.3262 38.7028 93.6007 38.932 95.1616 38.932C96.4479 38.932 97.5071 38.7444 98.3396 38.3685C99.1722 37.9932 99.8687 37.4366 100.431 36.6986C100.992 35.9613 101.403 35.0427 101.664 33.9421L97.7767 32.7565C97.5807 33.6726 97.2655 34.3709 96.8311 34.8513V34.8513ZM75.1167 42.2798C74.8902 42.2798 74.7073 42.4649 74.7073 42.6928V52.2596C74.7073 52.4882 74.5245 52.6727 74.2979 52.6727H73.788H69.006H65.5084H64.5235C64.3987 52.6727 64.2801 52.6147 64.2027 52.5159L54.585 40.2152C54.4671 40.0653 54.4671 39.8537 54.585 39.7039L63.4925 28.3105C63.5705 28.2117 63.6885 28.1537 63.8139 28.1537H69.4728C69.8142 28.1537 70.0058 28.5517 69.7942 28.8224L61.2862 39.7039C61.1683 39.8537 61.1683 40.0653 61.2862 40.2152L67.6685 48.3785C67.7465 48.478 67.8651 48.5359 67.9905 48.5359H68.5972C68.8231 48.5359 69.006 48.3508 69.006 48.1229V42.2798V38.9502V37.446C69.006 37.2181 69.1895 37.0329 69.4154 37.0329H81.0078V26.5784C81.0078 24.9967 79.7371 23.7141 78.1693 23.7141H62.4833C62.371 23.7141 62.2642 23.7664 62.1949 23.8552L49.7824 39.7297C49.677 39.8645 49.677 40.0546 49.7824 40.1893L62.1949 56.0633C62.2642 56.1527 62.371 56.2043 62.4833 56.2043H78.1693C79.7371 56.2043 81.0078 54.9217 81.0078 53.3401V42.2798H75.1167ZM43.0813 40.1888L55.1349 55.6044C55.3246 55.8474 55.1536 56.2044 54.8459 56.2044H34.8391C33.2713 56.2044 32 54.9218 32 53.3402V26.5785C32 24.9968 33.2713 23.7142 34.8391 23.7142H54.8459C55.1536 23.7142 55.3246 24.0712 55.1349 24.3143L43.0813 39.7298C42.9764 39.8645 42.9764 40.0547 43.0813 40.1888V40.1888Z" fill="white" fill-opacity="0.3"/>
</g>
</svg>
