<svg width="180" height="80" viewBox="0 0 180 80" fill="none" xmlns="http://www.w3.org/2000/svg">
<mask id="mask0" mask-type="alpha" maskUnits="userSpaceOnUse" x="12" y="26" width="156" height="28">
<path fill-rule="evenodd" clip-rule="evenodd" d="M12 26.2856H168V53.7142H12V26.2856Z" fill="white"/>
</mask>
<g mask="url(#mask0)">
<path fill-rule="evenodd" clip-rule="evenodd" d="M121.159 43.605V43.8145C121.159 47.0454 118.782 49.6643 115.593 49.6643H114.803C108.739 49.6643 107.442 44.5476 107.442 41.3169V39.0287C107.442 35.7978 109.073 30.342 114.29 30.342H115.593C118.626 30.342 120.923 32.7118 121.141 35.7235H127.72C127.743 34.5615 127.475 26.2856 115.083 26.2856C101.755 26.2856 100.86 36.3958 100.86 39.9323C100.86 43.4688 101.307 53.6982 114.785 53.6982C114.785 53.6982 127.721 54.5548 127.721 43.721V43.605H121.159ZM91.1721 43.2674L86.7612 31.2892L82.3504 43.2674H91.1721ZM90.6652 26.7651L101.904 53.0998H94.7929L92.7122 47.4497H80.8101L78.7297 53.0998H71.6181L82.8574 26.7651H85.0954H88.4272H90.6652ZM150.419 37.456H137.484V26.7651H131.125V53.0998H137.484V41.5453H150.419V53.0998H156.778V26.7651H150.419V37.456ZM161.641 53.0998H168V26.7651H161.641V53.0998ZM77.1127 31.3746V26.7651H51.2612V31.3746H60.9382V53.0998H67.2976V31.3746H77.1127ZM42.6902 53.0998H48.911V26.7651H42.6902V53.0998ZM31.2156 26.7651H37.4366V53.0998H31.2156V41.5389H18.2208V53.0998H12V26.7651H18.2208V37.3699H31.2156V26.7651Z" fill="white" fill-opacity="0.3"/>
</g>
</svg>
