<svg width="213" height="63" viewBox="0 0 213 63" fill="none" xmlns="http://www.w3.org/2000/svg">
<path d="M133.402 20.9824C137.982 19.7043 141.231 16.4557 141.231 11.0238C141.231 4.57999 136.598 0.63916 129.036 0.63916H114.391V33.4439H120.142V5.91135H128.556C132.817 5.91135 135.373 7.77526 135.373 11.3966C135.373 14.7516 132.763 16.935 128.61 16.935H123.817L127.438 22.0475L135.479 33.4972H142.296L133.402 20.9824Z" fill="#3E4545"/>
<path d="M67.793 28.1184H79.1362L76.2072 33.3906H62.0415V0.585815H67.793V28.1184Z" fill="#3E4545"/>
<path d="M0 33.3906H5.75149V20.0237H22.3136V14.7515H5.75149V5.80476H24.4438V0.585815H0V33.3906Z" fill="#3E4545"/>
<path d="M49.6862 19.4379C49.6862 25.5089 46.5442 28.5977 41.4317 28.5977C36.2661 28.5977 33.124 25.2959 33.124 19.2249V0.585815H27.3726V19.4912C27.3726 29.0237 32.8045 33.9231 41.3252 33.9231C49.8992 33.9231 55.4377 29.0237 55.4377 19.2249V0.585815H49.6862V19.4379Z" fill="#3E4545"/>
<path d="M168.338 19.4379C168.338 25.5089 165.196 28.5977 160.083 28.5977C154.917 28.5977 151.775 25.2959 151.775 19.2249V0.585815H146.024V19.4912C146.024 29.0237 151.456 33.9231 159.977 33.9231C168.551 33.9231 174.089 29.0237 174.089 19.2249V0.585815H168.338V19.4379Z" fill="#3E4545"/>
<path d="M206.415 0.585815L196.456 16.0829L186.444 0.585815H180.32V33.3906H186.018V9.95861L196.243 25.2959H197.574L206.787 9.85209V33.3906H212.592V0.585815H206.415Z" fill="#3E4545"/>
<path d="M94.6329 0.0532577L91.2246 6.17752C92.5027 5.59172 93.9938 5.2722 95.5382 5.2722C99.266 5.2722 102.089 6.92309 104.698 9.37279L108.426 5.11243C105.284 2.13018 101.609 0 95.5915 0C95.2719 0 94.9524 0.0532577 94.6329 0.0532577Z" fill="#3E4545"/>
<path d="M104.965 24.3905C102.142 26.9999 99.586 28.6508 95.5386 28.6508C89.5741 28.6508 85.2073 23.9112 84.7812 17.9467L80.7339 25.2958C83.5031 30.5147 88.8818 33.9763 95.3789 33.9763C101.503 33.9763 105.284 31.7396 108.692 28.1715L104.965 24.3905Z" fill="#3E4545"/>
<path d="M17.6275 45.373H15.9233V44.3079H23.3257C26.521 44.3079 28.8642 46.3315 28.8642 49.6333C28.8642 52.9351 26.521 55.012 23.3257 55.012H18.6926V62.5741H17.5742V45.373H17.6275ZM23.2725 53.9469C25.9352 53.9469 27.6926 52.3493 27.6926 49.6333C27.6926 46.9173 25.9352 45.373 23.2725 45.373H18.6926V53.9469H23.2725Z" fill="#078187"/>
<path d="M31.4742 51.1243C31.4742 50.7515 31.2611 50.5385 30.8884 50.5385H29.77V49.5267H31.0481C32.1132 49.5267 32.5393 49.9527 32.5393 50.9645V51.8699C32.5393 52.4557 32.486 52.9349 32.486 52.9349H32.5393C33.1783 50.9113 34.6162 49.4202 36.6399 49.4202C37.0126 49.4202 37.3854 49.4734 37.3854 49.4734V50.5918C37.3854 50.5918 37.0659 50.5385 36.7996 50.5385C34.7759 50.5385 33.4978 52.2427 32.912 54.1598C32.6458 55.0651 32.5393 56.0237 32.5393 56.8758V62.5208H31.4209V51.1243H31.4742Z" fill="#078187"/>
<path d="M44.5211 49.207C48.0359 49.207 49.8465 51.9763 49.8465 55.1183C49.8465 55.3846 49.7933 55.8106 49.7933 55.8106H39.3554C39.3554 59.5917 41.9116 61.7218 44.9471 61.7218C47.4501 61.7218 48.9944 60.071 48.9944 60.071L49.5802 60.9763C49.5802 60.9763 47.7696 62.7869 44.9471 62.7869C41.2725 62.7869 38.237 60.1242 38.237 55.9704C38.1838 51.6567 41.166 49.207 44.5211 49.207ZM48.6749 54.852C48.5684 51.6567 46.6512 50.2189 44.4678 50.2189C42.0714 50.2189 39.8347 51.7632 39.4086 54.852H48.6749Z" fill="#078187"/>
<path d="M53.148 51.1242C53.148 50.7514 52.935 50.5384 52.5622 50.5384H51.4438V49.5265H52.722C53.787 49.5265 54.2131 49.9526 54.2131 50.9644V51.71C54.2131 52.2958 54.1598 52.7751 54.1598 52.7751H54.2131C54.8521 50.8046 57.1421 49.2603 59.1657 49.2603C61.7752 49.2603 63.0001 50.4851 63.2663 52.7751H63.3196C64.0652 50.8046 66.0356 49.2603 68.2723 49.2603C71.6273 49.2603 72.6391 51.2307 72.6391 54.3194V61.0295C72.6391 61.4023 72.8521 61.6153 73.2249 61.6153H74.3433V62.6271H73.0652C72.0001 62.6271 71.574 62.2011 71.574 61.136V54.7987C71.574 52.349 71.0948 50.3253 68.3255 50.3253C66.1421 50.3253 64.3314 52.2425 63.7456 54.2662C63.5859 54.852 63.4794 55.491 63.4794 56.2899V62.6271H62.361V54.7455C62.361 52.5088 62.0415 50.2721 59.1657 50.2721C56.8226 50.2721 55.0119 52.2958 54.4261 54.4792C54.2663 55.0117 54.2131 55.6508 54.2131 56.2366V62.5739H53.0947V51.1242H53.148Z" fill="#078187"/>
<path d="M77.0059 51.1242C77.0059 50.7514 76.7929 50.5384 76.4201 50.5384H75.3018V49.5266H76.5799C77.645 49.5266 78.071 49.9526 78.071 51.0177V60.9763C78.071 61.349 78.284 61.5621 78.6568 61.5621H79.7751V62.5739H78.497C77.4319 62.5739 77.0059 62.1479 77.0059 61.0828V51.1242ZM76.8461 44.3076H78.0177V46.2248H76.8461V44.3076Z" fill="#078187"/>
<path d="M82.3848 51.1244C82.3848 50.7516 82.1718 50.5386 81.799 50.5386H80.6807V49.5267H81.9588C83.0239 49.5267 83.4499 49.9528 83.4499 50.9646V57.4084C83.4499 59.6984 83.7162 61.8285 86.6452 61.8285C89.8937 61.8285 91.9706 58.9528 91.9706 55.9173V49.58H93.089V61.0297C93.089 61.4025 93.302 61.6155 93.6748 61.6155H94.7931V62.6273H93.515C92.4499 62.6273 92.0239 62.2013 92.0239 61.1895V60.4439C92.0239 59.8581 92.0771 59.3788 92.0771 59.3788H92.0239C91.5978 60.6037 89.8404 62.8936 86.6984 62.8936C83.5032 62.8936 82.3848 61.1362 82.3848 57.8344V51.1244Z" fill="#078187"/>
<path d="M97.3496 51.1242C97.3496 50.7514 97.1366 50.5384 96.7639 50.5384H95.6455V49.5265H96.9236C97.9887 49.5265 98.4147 49.9526 98.4147 50.9644V51.71C98.4147 52.2958 98.3615 52.7751 98.3615 52.7751H98.4147C99.0538 50.8046 101.344 49.2603 103.367 49.2603C105.977 49.2603 107.202 50.4851 107.468 52.7751H107.521C108.267 50.8046 110.237 49.2603 112.474 49.2603C115.829 49.2603 116.841 51.2307 116.841 54.3194V61.0295C116.841 61.4023 117.054 61.6153 117.427 61.6153H118.545V62.6271H117.267C116.202 62.6271 115.776 62.2011 115.776 61.136V54.7987C115.776 52.349 115.296 50.3253 112.527 50.3253C110.344 50.3253 108.533 52.2425 107.947 54.2662C107.788 54.852 107.681 55.491 107.681 56.2899V62.6271H106.563V54.7455C106.563 52.5088 106.243 50.2721 103.367 50.2721C101.024 50.2721 99.2136 52.2958 98.6278 54.4792C98.468 55.0117 98.4147 55.6508 98.4147 56.2366V62.5739H97.2964V51.1242H97.3496Z" fill="#078187"/>
<path d="M128.343 45.3727H126.639V44.3076H136.011C137.077 44.3076 137.503 44.7336 137.503 45.7987V47.1834H136.384V45.9053C136.384 45.5325 136.171 45.3194 135.798 45.3194H129.408V52.9348H136.384V53.9999H129.408V62.5206H128.343V45.3727Z" fill="#078187"/>
<path d="M140.219 51.1242C140.219 50.7514 140.006 50.5384 139.633 50.5384H138.515V49.5266H139.793C140.858 49.5266 141.284 49.9526 141.284 51.0177V60.9763C141.284 61.349 141.497 61.5621 141.87 61.5621H142.989V62.5739H141.71C140.645 62.5739 140.219 62.1479 140.219 61.0828V51.1242ZM140.06 44.3076H141.231V46.2248H140.06V44.3076Z" fill="#078187"/>
<path d="M145.651 51.1242C145.651 50.7514 145.438 50.5384 145.065 50.5384H143.947V49.5265H145.225C146.29 49.5265 146.716 49.9526 146.716 50.9644V51.71C146.716 52.2958 146.663 52.7751 146.663 52.7751H146.716C147.142 51.5502 148.953 49.2603 152.201 49.2603C155.61 49.2603 156.515 51.2839 156.515 54.3194V61.0295C156.515 61.4023 156.728 61.6153 157.101 61.6153H158.219V62.6271H156.941C155.876 62.6271 155.45 62.2011 155.45 61.136V54.7987C155.45 52.5088 155.183 50.3786 152.254 50.3786C149.805 50.3786 147.621 52.0827 146.982 54.5324C146.823 55.065 146.769 55.7041 146.769 56.2899V62.6271H145.651V51.1242Z" fill="#078187"/>
<path d="M167.592 54.639H168.444V54.4793C168.444 51.3905 167.379 50.2722 164.663 50.2722C163.971 50.2722 161.787 50.4319 161.787 51.5503V52.4556H160.669V51.284C160.669 49.7396 163.598 49.3136 164.663 49.3136C168.657 49.3136 169.509 51.497 169.509 54.213V61.0828C169.509 61.4556 169.722 61.6686 170.095 61.6686H171.214V62.6805H169.935C168.87 62.6805 168.444 62.2544 168.444 61.0828C168.444 60.3905 168.498 59.9112 168.498 59.9112H168.444C168.444 59.9112 167.326 63 163.918 63C161.787 63 159.498 61.8284 159.498 59.2189C159.551 54.6923 165.302 54.639 167.592 54.639ZM164.024 61.8284C166.847 61.8284 168.498 58.8994 168.498 56.2899V55.5976H167.645C165.409 55.5976 160.669 55.5976 160.669 59.0059C160.669 60.3905 161.788 61.8284 164.024 61.8284Z" fill="#078187"/>
<path d="M173.716 51.1242C173.716 50.7514 173.503 50.5384 173.13 50.5384H172.012V49.5265H173.29C174.355 49.5265 174.781 49.9526 174.781 50.9644V51.71C174.781 52.2958 174.728 52.7751 174.728 52.7751H174.781C175.207 51.5502 177.018 49.2603 180.266 49.2603C183.674 49.2603 184.58 51.2839 184.58 54.3194V61.0295C184.58 61.4023 184.793 61.6153 185.166 61.6153H186.284V62.6271H185.006C183.941 62.6271 183.515 62.2011 183.515 61.136V54.7987C183.515 52.5088 183.248 50.3786 180.319 50.3786C177.87 50.3786 175.686 52.0827 175.047 54.5324C174.887 55.065 174.834 55.7041 174.834 56.2899V62.6271H173.716V51.1242Z" fill="#078187"/>
<path d="M194.326 49.207C195.71 49.207 198.906 49.7928 198.906 51.923V52.9348H197.787V52.1893C197.787 50.9112 195.551 50.3254 194.273 50.3254C191.237 50.3254 188.681 52.6153 188.681 56.1301C188.681 59.5917 191.184 61.8816 194.273 61.8816C197.148 61.8816 198.639 60.0177 198.639 60.0177L199.225 60.923C199.225 60.923 197.521 62.9467 194.326 62.9467C190.651 62.9467 187.616 60.284 187.616 56.1301C187.616 51.9763 190.704 49.207 194.326 49.207Z" fill="#078187"/>
<path d="M207.16 49.207C210.675 49.207 212.485 51.9763 212.485 55.1183C212.485 55.3846 212.432 55.8106 212.432 55.8106H201.994C201.994 59.5917 204.551 61.7218 207.586 61.7218C210.089 61.7218 211.633 60.071 211.633 60.071L212.219 60.9763C212.219 60.9763 210.409 62.7869 207.586 62.7869C203.911 62.7869 200.876 60.1242 200.876 55.9704C200.876 51.6567 203.858 49.207 207.16 49.207ZM211.367 54.852C211.261 51.6567 209.343 50.2189 207.16 50.2189C204.764 50.2189 202.527 51.7632 202.101 54.852H211.367Z" fill="#078187"/>
</svg>
