<svg width="38" height="38" viewBox="0 0 38 38" fill="none" xmlns="http://www.w3.org/2000/svg">
<path fill-rule="evenodd" clip-rule="evenodd" d="M18.767 3C10.073 3 3 10.073 3 18.767C3 27.461 10.073 34.535 18.767 34.535C27.461 34.535 34.534 27.461 34.534 18.767C34.534 10.073 27.461 3 18.767 3ZM18.767 37.535C8.419 37.535 0 29.116 0 18.767C0 8.419 8.419 0 18.767 0C29.115 0 37.534 8.419 37.534 18.767C37.534 29.116 29.115 37.535 18.767 37.535Z" fill="#DEDD00"/>
<path fill-rule="evenodd" clip-rule="evenodd" d="M12.8672 27.1499V9.84595L30.1712 18.4979L12.8672 27.1499Z" fill="#DEDD00"/>
</svg>
